<?xml version="1.0" encoding="utf-8" standalone="no"?>
<!DOCTYPE svg PUBLIC "-//W3C//DTD SVG 1.1//EN"
  "http://www.w3.org/Graphics/SVG/1.1/DTD/svg11.dtd">
<!-- Created with matplotlib (http://matplotlib.org/) -->
<svg height="432pt" version="1.1" viewBox="0 0 864 432" width="864pt" xmlns="http://www.w3.org/2000/svg" xmlns:xlink="http://www.w3.org/1999/xlink">
 <defs>
  <style type="text/css">
*{stroke-linecap:butt;stroke-linejoin:round;}
  </style>
 </defs>
 <g id="figure_1">
  <g id="patch_1">
   <path d="M 0 432 
L 864 432 
L 864 0 
L 0 0 
z
" style="fill:#ffffff;"/>
  </g>
  <g id="axes_1">
   <g id="patch_2">
    <path d="M 176.287208 378 
L 176.287208 51.84 
L 709.312792 51.84 
L 709.312792 378 
L 176.287208 378 
" style="fill:#ffffff;"/>
   </g>
   <g id="PathCollection_1">
    <path clip-path="url(#p55b409b321)" d="M 615.515898 170.254757 
L 615.970265 172.93788 
L 613.887524 176.257891 
L 609.002831 178.433942 
L 605.102623 177.878737 
L 607.336724 174.01472 
L 605.897729 170.20269 
L 609.646577 167.231754 
L 611.729175 165.444969 
L 614.039099 165.286683 
L 616.992626 167.650586 
L 615.515898 170.254757 
" style="fill:none;stroke:#000000;"/>
    <path clip-path="url(#p55b409b321)" d="M 374.651452 75.271462 
L 373.152084 77.396779 
L 369.151847 76.989766 
L 365.811588 75.559765 
L 367.27842 73.069527 
L 371.24007 71.566291 
L 373.645751 73.521462 
L 374.651452 75.271462 
" style="fill:none;stroke:#000000;"/>
    <path clip-path="url(#p55b409b321)" d="M 374.025292 60.829679 
L 372.769909 60.997883 
L 367.606131 60.623384 
L 366.871398 58.974388 
L 372.420057 59.060967 
L 374.354142 60.157267 
L 374.025292 60.829679 
" style="fill:none;stroke:#000000;"/>
    <path clip-path="url(#p55b409b321)" d="M 365.994915 53.391098 
L 369.287972 55.491113 
L 368.541207 57.654111 
L 364.464435 58.879817 
L 362.220295 57.499691 
L 361.039383 55.251653 
L 360.821384 52.745818 
L 364.388968 52.988942 
L 365.994915 53.391098 
" style="fill:none;stroke:#000000;"/>
    <path clip-path="url(#p55b409b321)" d="M 389.702659 78.485822 
L 385.254391 77.815454 
L 377.931267 76.053598 
L 376.978321 73.019512 
L 376.643206 70.244297 
L 373.876993 67.772193 
L 368.177044 67.075738 
L 364.983732 65.300057 
L 366.020474 62.925675 
L 371.699491 63.294844 
L 374.758459 65.154847 
L 380.183594 65.142048 
L 382.562008 67.028807 
L 381.934281 69.164096 
L 385.095911 70.440646 
L 386.846028 71.773639 
L 390.562553 72.019492 
L 394.582939 72.487062 
L 398.962859 71.275047 
L 404.573386 70.797421 
L 409.050702 71.19218 
L 412.001809 73.29733 
L 412.617859 75.584497 
L 410.898926 77.042024 
L 406.790401 78.213274 
L 403.263326 77.551265 
L 395.35925 78.389534 
L 389.702659 78.485822 
" style="fill:none;stroke:#000000;"/>
    <path clip-path="url(#p55b409b321)" d="M 326.013688 57.08131 
L 329.898803 58.01488 
L 328.982665 59.787757 
L 323.845869 61.479197 
L 319.759344 59.580039 
L 321.990384 57.689199 
L 326.013688 57.08131 
" style="fill:none;stroke:#000000;"/>
    <path clip-path="url(#p55b409b321)" d="M 326.84247 53.156426 
L 330.425931 54.383702 
L 327.069369 55.559483 
L 322.493234 55.553734 
L 322.537874 54.694297 
L 325.364603 52.879365 
L 326.84247 53.156426 
" style="fill:none;stroke:#000000;"/>
    <path clip-path="url(#p55b409b321)" d="M 449.957892 283.458852 
L 451.366273 283.709858 
L 451.863072 284.275629 
L 451.157244 284.993148 
L 449.083047 284.976317 
L 447.473256 285.076637 
L 447.312711 283.858552 
L 447.703287 283.442209 
L 449.957892 283.458852 
" style="fill:none;stroke:#000000;"/>
    <path clip-path="url(#p55b409b321)" d="M 418.857039 283.527926 
L 420.711386 283.783399 
L 422.175228 284.467316 
L 422.631802 285.246382 
L 420.695011 285.299355 
L 419.857971 285.774417 
L 418.315814 285.318237 
L 416.740552 284.281514 
L 417.071182 283.630493 
L 418.229455 283.431899 
L 418.857039 283.527926 
" style="fill:none;stroke:#000000;"/>
    <path clip-path="url(#p55b409b321)" d="M 405.910572 270.011847 
L 408.29041 270.219155 
L 410.455309 270.251886 
L 413.043321 271.24095 
L 414.140081 272.302024 
L 416.713783 271.974807 
L 417.689582 272.65525 
L 420.023072 274.44535 
L 421.738588 275.745935 
L 422.645685 275.706335 
L 424.289009 276.293625 
L 424.08831 277.10353 
L 426.119506 277.221933 
L 428.202246 278.397367 
L 427.875389 279.06936 
L 426.043184 279.433219 
L 424.188553 279.575512 
L 422.290136 279.348806 
L 418.344862 279.627921 
L 420.192018 278.027933 
L 419.069058 277.281721 
L 417.292812 277.089564 
L 416.340721 276.259115 
L 415.687577 274.617754 
L 414.130399 274.730107 
L 411.56104 273.956004 
L 410.734252 273.349842 
L 407.142816 272.901615 
L 406.181042 272.337041 
L 407.214296 271.613115 
L 404.511518 271.46471 
L 402.531583 272.969713 
L 401.389899 273.010076 
L 400.994909 273.715488 
L 399.63131 274.031381 
L 398.452319 273.757521 
L 399.906763 272.864311 
L 400.503876 271.819522 
L 401.749648 271.174766 
L 403.156818 270.609032 
L 405.242976 270.331078 
L 405.910572 270.011847 
" style="fill:none;stroke:#000000;"/>
    <path clip-path="url(#p55b409b321)" d="M 479.391855 179.723726 
L 477.920965 182.0172 
L 476.097303 185.172745 
L 477.895976 183.957931 
L 479.746549 184.729153 
L 478.779649 185.979873 
L 481.224416 186.959577 
L 482.495675 186.088811 
L 485.243449 187.187413 
L 484.390746 189.787974 
L 486.319206 189.18261 
L 486.670483 191.057112 
L 487.526176 193.238985 
L 486.365982 196.302805 
L 485.119712 196.431702 
L 483.308082 195.777202 
L 483.906192 192.925203 
L 483.138496 192.479954 
L 479.94141 195.506632 
L 478.297231 195.385986 
L 480.243277 193.749242 
L 477.599235 192.899508 
L 474.63873 193.108626 
L 469.291055 193.001732 
L 468.868156 191.963491 
L 470.584527 190.724591 
L 469.385816 189.765313 
L 471.699869 187.627682 
L 474.546533 181.903805 
L 476.255001 179.831996 
L 478.645802 178.570449 
L 479.924323 178.731145 
L 479.391855 179.723726 
" style="fill:none;stroke:#000000;"/>
    <path clip-path="url(#p55b409b321)" d="M 401.46202 124.162855 
L 404.479338 125.695941 
L 407.635842 127.080723 
L 407.879899 129.179745 
L 409.908104 128.837182 
L 411.875224 130.292205 
L 409.429602 131.665955 
L 405.141737 130.616999 
L 403.594241 128.641711 
L 400.861916 130.975214 
L 396.94099 133.223351 
L 395.994879 130.680236 
L 392.260698 131.099467 
L 394.655771 128.932473 
L 395.008116 125.445226 
L 395.947819 121.325422 
L 397.938718 121.694776 
L 398.44997 123.678525 
L 399.860059 122.984493 
L 401.46202 124.162855 
" style="fill:none;stroke:#000000;"/>
    <path clip-path="url(#p55b409b321)" d="M 415.547679 89.307778 
L 418.154344 87.238958 
L 424.268007 89.869518 
L 428.062846 92.320349 
L 428.419605 94.542004 
L 433.53618 93.393411 
L 436.407905 96.614915 
L 443.059375 98.590886 
L 445.459574 100.590464 
L 448.066026 105.169339 
L 443.006833 107.416566 
L 449.496548 110.531656 
L 453.870916 111.570365 
L 457.831497 115.869648 
L 462.165639 116.177133 
L 461.308166 119.406358 
L 456.471671 124.659894 
L 453.081362 122.739902 
L 448.748858 118.362952 
L 445.183907 118.937513 
L 444.835977 121.547522 
L 447.733687 124.168069 
L 451.474347 126.222592 
L 452.609339 127.401427 
L 454.402458 131.745687 
L 453.453499 134.854431 
L 449.978254 133.687086 
L 443.067278 130.206021 
L 446.962075 133.950968 
L 449.831521 136.543217 
L 450.279908 138.030292 
L 442.807772 136.329257 
L 436.894452 133.835567 
L 433.555047 131.724322 
L 434.516964 130.493413 
L 430.405805 128.235724 
L 426.393607 126.086031 
L 426.437463 127.373287 
L 418.470236 128.07869 
L 416.139239 126.558162 
L 417.954143 123.266291 
L 423.131591 123.186275 
L 428.80356 122.610288 
L 427.883007 120.99413 
L 428.844568 118.718271 
L 432.409376 114.212809 
L 431.651932 112.138916 
L 430.589559 110.520879 
L 426.369115 108.210178 
L 420.787209 106.577139 
L 422.551921 105.354962 
L 419.634703 102.32501 
L 417.206453 102.045569 
L 415.033508 100.368394 
L 413.558773 101.822949 
L 408.563158 102.454223 
L 398.535546 101.356473 
L 392.70702 99.907503 
L 388.238533 99.159531 
L 385.946835 97.406924 
L 388.82817 95.112243 
L 384.914293 95.090165 
L 384.0408 89.913998 
L 386.158569 85.244224 
L 388.992061 83.080063 
L 396.106798 81.659978 
L 394.078735 85.096594 
L 396.249473 88.363012 
L 398.796192 84.129694 
L 405.779858 81.942982 
L 410.506783 87.411829 
L 410.096629 90.807411 
L 415.547679 89.307778 
" style="fill:none;stroke:#000000;"/>
    <path clip-path="url(#p55b409b321)" d="M 372.196647 79.879571 
L 377.937959 80.067795 
L 383.20141 81.376348 
L 379.084342 86.103463 
L 375.798975 87.121928 
L 372.843098 90.999458 
L 369.699693 90.807544 
L 367.980617 86.23987 
L 368.023263 83.614258 
L 369.462898 81.34586 
L 372.196647 79.879571 
" style="fill:none;stroke:#000000;"/>
    <path clip-path="url(#p55b409b321)" d="M 355.844065 87.467444 
L 352.808587 84.025154 
L 356.069825 81.445349 
L 359.355833 82.571097 
L 364.271123 81.894564 
L 364.987532 83.441201 
L 362.415085 85.975806 
L 366.585674 88.228333 
L 366.089698 92.867879 
L 361.57178 94.835667 
L 358.91777 94.412461 
L 357.011095 92.468095 
L 350.218495 88.629311 
L 350.218495 86.818262 
L 355.844065 87.467444 
" style="fill:none;stroke:#000000;"/>
    <path clip-path="url(#p55b409b321)" d="M 335.506126 70.453294 
L 337.959864 69.510042 
L 340.847323 69.755301 
L 341.332303 72.503198 
L 339.65566 75.13223 
L 330.324407 75.986359 
L 323.37228 78.351906 
L 319.182023 78.475157 
L 318.830604 76.697466 
L 324.553976 74.264023 
L 312.10502 74.921796 
L 308.25237 73.933277 
L 312.011825 68.455651 
L 314.605106 66.861521 
L 322.359672 68.782767 
L 327.254262 72.114469 
L 332.068259 72.538347 
L 328.127612 67.141836 
L 330.651976 65.051834 
L 333.496997 65.718483 
L 334.426069 68.440543 
L 335.506126 70.453294 
" style="fill:none;stroke:#000000;"/>
    <path clip-path="url(#p55b409b321)" d="M 294.077076 68.923316 
L 298.754094 64.646022 
L 304.412606 60.875345 
L 308.638888 60.956943 
L 312.418064 60.09273 
L 312.039947 64.574261 
L 309.917623 66.568877 
L 307.343067 66.848375 
L 302.221009 69.281613 
L 297.810474 70.146495 
L 294.077076 68.923316 
" style="fill:none;stroke:#000000;"/>
    <path clip-path="url(#p55b409b321)" d="M 297.706102 78.178006 
L 301.641125 79.304183 
L 308.678828 79.604906 
L 311.354909 81.165338 
L 314.313206 83.41353 
L 310.849281 84.7508 
L 304.09281 88.436507 
L 300.676092 92.049774 
L 300.676092 94.274457 
L 293.423292 96.707185 
L 291.968974 94.495578 
L 285.606857 91.800254 
L 286.788789 89.618206 
L 288.697494 85.80736 
L 291.08724 82.32226 
L 288.393147 79.026027 
L 297.706102 78.178006 
" style="fill:none;stroke:#000000;"/>
    <path clip-path="url(#p55b409b321)" d="M 173.905427 144.517304 
L 176.091472 144.892208 
L 176.353968 146.474425 
L 174.663228 147.113289 
L 172.856866 146.345192 
L 171.184494 145.225165 
L 173.905427 144.517304 
" style="fill:none;stroke:#000000;"/>
    <path clip-path="url(#p55b409b321)" d="M 210.384569 154.339483 
L 212.213998 154.609298 
L 213.381312 155.844809 
L 210.997417 157.725821 
L 208.245371 159.225337 
L 206.836492 158.210964 
L 206.410532 156.360115 
L 208.913039 154.947633 
L 210.384569 154.339483 
" style="fill:none;stroke:#000000;"/>
    <path clip-path="url(#p55b409b321)" d="M 266.92221 169.603332 
L 269.567462 169.300642 
L 268.74224 173.567418 
L 271.14066 176.552312 
L 270.041835 176.545156 
L 268.381424 174.851339 
L 267.363121 173.136615 
L 265.972681 171.970668 
L 265.462782 170.316953 
L 265.627171 169.111397 
L 266.92221 169.603332 
" style="fill:none;stroke:#000000;"/>
    <path clip-path="url(#p55b409b321)" d="M 287.022998 184.678164 
L 288.384817 186.380015 
L 291.135438 187.852272 
L 292.272068 189.811912 
L 290.886398 190.303612 
L 286.361667 188.696121 
L 285.535092 187.433864 
L 283.068966 186.184307 
L 282.573021 185.163101 
L 279.736752 184.516503 
L 278.675234 182.552955 
L 278.912669 181.713751 
L 281.805396 182.504315 
L 283.496065 183.052941 
L 286.086142 183.435367 
L 287.022998 184.678164 
" style="fill:none;stroke:#000000;"/>
    <path clip-path="url(#p55b409b321)" d="M 341.918381 50.113694 
L 347.327284 50.951732 
L 354.778275 53.180611 
L 356.886076 56.052985 
L 357.95863 58.542216 
L 353.45903 57.880083 
L 348.923976 55.942275 
L 342.789524 55.719448 
L 345.45044 53.927165 
L 342.118724 52.463043 
L 341.918381 50.113694 
" style="fill:none;stroke:#000000;"/>
    <path clip-path="url(#p55b409b321)" d="M 705.033585 233.590825 
L 704.689143 234.512463 
L 700.7213 234.777673 
L 700.748923 234.262738 
L 697.387235 233.65337 
L 697.896991 232.322129 
L 699.403337 233.377987 
L 701.548017 233.199662 
L 703.598577 233.421808 
L 703.531939 233.965957 
L 705.033585 233.590825 
" style="fill:none;stroke:#000000;"/>
    <path clip-path="url(#p55b409b321)" d="M 656.593316 215.678472 
L 657.971083 214.661749 
L 659.624232 216.986095 
L 659.237216 221.277577 
L 657.984325 221.07396 
L 656.86044 222.150093 
L 655.817147 221.295416 
L 655.706795 217.383036 
L 655.077857 215.514605 
L 656.593316 215.678472 
" style="fill:none;stroke:#000000;"/>
    <path clip-path="url(#p55b409b321)" d="M 656.692562 209.973753 
L 658.467027 208.70074 
L 658.935491 211.552863 
L 658.025476 214.102942 
L 656.774436 213.432593 
L 656.136528 211.20808 
L 656.692562 209.973753 
" style="fill:none;stroke:#000000;"/>
    <path clip-path="url(#p55b409b321)" d="M 666.68066 161.659974 
L 667.559919 163.603344 
L 665.906627 166.714604 
L 663.023227 164.548534 
L 662.638489 162.946111 
L 666.68066 161.659974 
" style="fill:none;stroke:#000000;"/>
    <path clip-path="url(#p55b409b321)" d="M 620.989232 152.005835 
L 624.313615 151.666628 
L 621.36856 155.99583 
L 624.175852 155.451474 
L 627.195021 155.472233 
L 626.476663 158.693833 
L 623.999502 162.194676 
L 626.848586 162.442205 
L 629.521391 167.382462 
L 631.407491 167.993936 
L 633.103358 172.294784 
L 633.888639 173.77112 
L 637.226976 174.480368 
L 636.892074 176.849206 
L 635.488392 177.92908 
L 636.588641 179.824729 
L 634.110056 181.73157 
L 630.423718 181.697993 
L 625.732675 182.69453 
L 624.447889 181.981405 
L 622.626078 183.675887 
L 620.077152 183.26633 
L 618.14143 184.642215 
L 616.676805 183.923481 
L 620.717837 180.114712 
L 623.184319 179.325424 
L 618.859645 178.712105 
L 618.080059 177.249585 
L 620.95933 176.10541 
L 619.45028 174.106427 
L 619.973848 171.657153 
L 624.073687 171.997029 
L 624.47893 169.811296 
L 622.591477 167.420472 
L 619.24595 166.749149 
L 618.589175 165.713535 
L 619.590534 163.995175 
L 618.684363 162.930506 
L 617.2008 164.755243 
L 617.03933 161.02294 
L 615.647893 159.027791 
L 616.64854 154.938572 
L 618.78902 151.68674 
L 620.989232 152.005835 
" style="fill:none;stroke:#000000;"/>
    <path clip-path="url(#p55b409b321)" d="M 592.616147 118.0513 
L 591.979805 121.007859 
L 595.093166 124.086371 
L 591.510843 127.483997 
L 583.562555 130.498837 
L 581.187915 131.295082 
L 577.560384 130.652346 
L 569.872171 129.265143 
L 572.584845 127.315625 
L 566.587515 125.140714 
L 571.466371 124.273367 
L 571.347831 122.953758 
L 565.564869 121.903451 
L 567.42662 118.938459 
L 571.602709 118.259982 
L 575.897409 121.355656 
L 580.084106 118.873844 
L 583.551021 120.165783 
L 588.044569 117.725104 
L 592.616147 118.0513 
" style="fill:none;stroke:#000000;"/>
    <path clip-path="url(#p55b409b321)" d="M 419.452871 311.103228 
L 420.876558 311.19137 
L 422.943921 309.252639 
L 424.078557 308.956847 
L 424.105824 308.037215 
L 424.613587 305.685111 
L 426.193904 304.391628 
L 427.93021 304.338665 
L 428.149348 303.757231 
L 430.305348 303.990068 
L 433.547287 301.956061 
L 434.881198 300.609144 
L 435.857353 300.780512 
L 436.580268 301.516073 
L 436.045379 302.456871 
L 435.967065 303.116672 
L 434.349513 303.442437 
L 435.248279 304.708347 
L 435.214675 306.165596 
L 433.999233 307.782293 
L 435.042241 309.987667 
L 436.230059 309.807227 
L 436.848816 307.798034 
L 435.994404 306.818685 
L 435.855146 304.709716 
L 439.286535 303.575834 
L 438.904787 302.259835 
L 439.870833 301.378186 
L 440.859875 303.341046 
L 442.792251 303.386334 
L 444.582522 304.941731 
L 444.690383 305.864341 
L 447.164411 305.888813 
L 450.108256 305.602542 
L 451.686081 306.849685 
L 453.793384 307.193652 
L 455.3391 306.324041 
L 455.370711 305.622627 
L 458.783802 305.454595 
L 462.08583 305.41586 
L 459.746004 306.238632 
L 460.687274 307.552631 
L 462.890903 307.761665 
L 464.97998 309.128915 
L 465.41904 311.353942 
L 466.855045 311.291267 
L 469.743856 312.965551 
L 471.448693 314.771094 
L 471.526082 316.196854 
L 472.564248 316.262437 
L 475.128623 318.575026 
L 478.429939 319.12872 
L 478.726253 318.630394 
L 480.954089 318.430849 
L 484.852446 319.477973 
L 486.881291 320.132068 
L 489.798723 322.463533 
L 490.25487 323.594072 
L 491.240779 323.694054 
L 491.875127 324.989933 
L 493.42063 329.812442 
L 494.894225 330.267454 
L 494.968553 332.169868 
L 492.896064 334.438244 
L 493.753111 335.268807 
L 498.623707 335.701532 
L 498.723096 338.4635 
L 500.815946 336.655277 
L 504.283288 337.645658 
L 508.859707 339.328684 
L 510.204582 340.943929 
L 509.752778 342.470083 
L 512.95677 341.620334 
L 518.319182 343.078697 
L 522.435752 342.971247 
L 526.509035 345.254042 
L 530.028065 348.34642 
L 532.150604 349.143156 
L 534.506876 349.253935 
L 535.505458 350.125477 
L 536.898033 355.321842 
L 535.800775 359.906947 
L 534.398944 361.721261 
L 530.515039 365.595668 
L 528.759583 368.75198 
L 526.719844 371.178211 
L 526.03096 371.23294 
L 525.261128 373.296305 
L 525.456701 378.570404 
L 524.395752 384.804567 
L 523.524538 385.927242 
L 523.035998 389.743327 
L 520.242232 393.489058 
L 519.773768 396.467109 
L 517.543512 397.720692 
L 516.898413 399.458624 
L 513.904874 399.451722 
L 509.570305 400.568416 
L 507.629599 401.863799 
L 504.543648 402.715905 
L 501.300856 405.04466 
L 498.968434 407.958659 
L 498.567392 410.162292 
L 499.025532 411.798048 
L 498.510863 414.803352 
L 497.885557 416.261316 
L 495.959873 417.910692 
L 492.902614 423.222799 
L 490.479633 425.636521 
L 488.606348 427.065538 
L 487.349826 429.98608 
L 485.526948 431.751018 
L 484.762424 433 
M 472.397526 433 
L 471.602688 432.187571 
L 471.508171 433 
L 471.508171 433 
" style="fill:none;stroke:#000000;"/>
    <path clip-path="url(#p55b409b321)" d="M 417.99743 315.11432 
L 419.113128 316.588963 
L 419.548058 318.928359 
L 418.957282 319.654081 
L 419.578957 322.181299 
L 419.059091 323.78348 
L 420.074688 324.440194 
L 419.020076 325.887557 
L 417.859739 327.620629 
L 416.492865 327.805508 
L 415.846698 328.804105 
L 415.968726 330.184986 
L 414.94067 330.391796 
L 415.314515 331.247403 
L 413.420157 332.344171 
L 411.910608 332.935277 
L 412.102692 334.059768 
L 411.059969 335.834383 
L 410.552847 337.55096 
L 409.587655 337.966494 
L 410.052915 340.467866 
L 409.493678 341.24494 
L 411.144122 342.453127 
L 412.19731 341.172856 
L 412.793213 342.376895 
L 411.326595 344.437996 
L 409.130227 346.180502 
L 408.27254 348.113949 
L 409.607803 350.749042 
L 408.716014 351.982929 
L 410.679289 353.102799 
L 412.819982 354.909494 
L 413.686996 356.950213 
L 414.813871 358.214146 
L 417.41719 363.74818 
L 420.133923 368.896027 
L 422.467626 372.571342 
L 422.01511 373.380015 
L 423.15658 375.701999 
L 425.281896 377.438159 
L 430.223332 380.526708 
L 435.685916 383.372006 
L 435.92506 384.537329 
L 438.687856 386.171251 
L 439.261403 390.193801 
L 439.463027 394.896864 
L 438.601354 401.374754 
L 437.716897 407.454891 
L 437.220454 413.177648 
L 435.609167 416.822115 
L 435.939299 420.532938 
L 435.116426 423.029141 
L 435.750917 427.596918 
L 434.584599 432.186451 
L 434.273485 433 
" style="fill:none;stroke:#000000;"/>
    <path clip-path="url(#p55b409b321)" d="M 700.718879 58.86053 
L 694.563923 61.270018 
L 689.702439 59.905561 
L 691.603917 58.379053 
L 689.939092 56.473458 
L 695.649363 55.270633 
L 696.743489 57.519558 
L 700.718879 58.86053 
" style="fill:none;stroke:#000000;"/>
    <path clip-path="url(#p55b409b321)" d="M 674.318467 47.804719 
L 675.364749 45.665837 
L 679.41048 45.447026 
L 682.885084 47.633766 
L 691.955905 52.232588 
L 685.022075 54.621604 
L 683.490954 59.021506 
L 681.073597 60.13596 
L 679.761472 64.963968 
L 676.441076 65.18848 
L 670.515369 61.648274 
L 673.014458 59.559592 
L 668.884147 57.844718 
L 663.515754 52.761866 
L 661.372783 47.941128 
L 668.884574 45.701256 
L 670.39391 47.891271 
L 674.318467 47.804719 
" style="fill:none;stroke:#000000;"/>
    <path clip-path="url(#p55b409b321)" d="M 417.99743 315.11432 
L 417.078871 314.315202 
L 416.488593 312.819038 
L 417.16936 312.078118 
L 416.471221 311.888017 
L 415.956908 310.971043 
L 414.584196 310.199231 
L 413.378508 310.376183 
L 412.819982 311.341895 
L 411.707061 312.03891 
L 411.10589 312.135746 
L 410.835776 312.712925 
L 412.150108 314.217481 
L 411.397932 314.571471 
L 410.999809 314.981932 
L 409.717871 315.123265 
L 409.240793 313.468117 
L 408.882112 313.939324 
L 407.973378 313.776635 
L 407.417345 312.661192 
L 406.287265 312.47696 
L 405.572253 312.152518 
L 404.389774 312.156675 
L 404.304696 312.758638 
L 403.988305 312.339221 
L 402.493067 311.723705 
L 401.933616 311.141168 
L 402.250932 310.659221 
L 402.150832 310.045657 
L 401.386909 309.380517 
L 399.354076 308.477885 
L 399.173027 307.66434 
L 398.450255 307.16719 
L 398.627388 307.976058 
L 398.077549 308.640526 
L 397.447757 307.868829 
L 396.562446 307.593966 
L 396.185896 307.033149 
L 396.201701 306.185528 
L 396.566504 305.308001 
L 395.788342 304.915153 
L 396.419843 304.376568 
L 394.178835 302.37142 
L 393.572253 301.429471 
L 392.410777 300.550521 
L 391.030376 299.286254 
L 391.336301 298.853048 
L 391.791166 299.274747 
L 391.999839 299.076802 
L 391.523829 298.200054 
L 390.687002 297.956265 
L 390.381148 298.616359 
L 388.78524 298.574504 
L 387.793492 298.305956 
L 386.654086 297.748584 
L 385.123037 297.574422 
L 384.34281 296.971916 
L 382.929089 296.482186 
L 381.210298 296.431466 
L 379.950145 295.874175 
L 378.467722 294.714108 
L 375.349378 291.680623 
L 373.928395 290.763609 
L 371.678631 290.026559 
L 370.139536 290.231969 
L 367.926509 291.294859 
L 366.537635 291.57313 
L 364.591874 290.828937 
L 362.526861 290.291348 
L 359.951522 288.993737 
L 357.885726 288.59699 
L 354.766314 287.279293 
L 352.46116 285.922431 
L 351.765585 285.163278 
L 350.223642 284.993589 
L 347.405243 284.092652 
L 346.257507 282.792176 
L 343.29686 281.171408 
L 341.916317 279.366356 
L 341.259542 277.968357 
L 342.178813 277.687994 
L 341.895314 276.868298 
L 342.528808 276.121873 
L 342.542406 275.125462 
L 341.612883 273.829412 
L 341.364199 272.678731 
L 340.4403 271.216441 
L 338.01205 268.326166 
L 335.241566 266.045322 
L 333.901176 264.218642 
L 331.536218 263.019103 
L 331.029523 262.300226 
L 331.449574 260.477205 
L 330.044824 259.787653 
L 328.418373 258.348198 
L 327.731483 256.274443 
L 326.249344 256.032091 
L 324.649306 254.460474 
L 323.358041 253.004659 
L 323.237935 252.067405 
L 321.756152 249.797375 
L 320.780139 247.481816 
L 320.821859 246.316142 
L 318.829109 245.109302 
L 317.909198 245.242002 
L 316.336641 244.402182 
L 315.895089 245.639483 
L 316.351022 247.097497 
L 316.619214 249.370137 
L 317.564115 250.61322 
L 319.608909 252.683267 
L 320.063062 253.388835 
L 320.482116 253.602586 
L 320.845638 254.629778 
L 321.335389 254.588249 
L 321.888432 256.511606 
L 322.725188 257.2683 
L 323.311978 258.31961 
L 325.043655 259.827169 
L 325.957942 262.571947 
L 327.541392 265.234107 
L 327.692824 266.777207 
L 329.021466 266.873762 
L 331.125921 269.499925 
L 331.058998 270.020634 
L 329.899444 271.087284 
L 329.411259 271.07334 
L 328.684713 269.307036 
L 326.881485 267.646242 
L 324.894644 266.233971 
L 323.485338 265.490665 
L 323.576396 263.343947 
L 323.158339 261.748923 
L 319.951143 259.515396 
L 319.587265 259.896258 
L 318.89233 259.124928 
L 317.192762 258.407592 
L 315.568731 256.682699 
L 315.769572 256.458075 
L 316.904493 256.626879 
L 317.926854 255.514146 
L 318.02966 254.167049 
L 315.908474 252.029465 
L 314.291563 251.197321 
L 310.977148 244.901674 
L 309.857819 242.151527 
L 309.394404 240.582151 
L 307.608722 238.809154 
L 306.323038 238.43925 
L 306.021892 237.551253 
L 304.475813 237.395616 
L 303.489813 236.556388 
L 300.930171 236.249985 
L 300.227333 235.747856 
L 299.892645 234.038214 
L 297.219199 230.887433 
L 294.924226 226.486628 
L 295.021977 225.748708 
L 293.806321 224.693912 
L 291.673602 222.005104 
L 291.29342 219.370604 
L 289.825093 217.595237 
L 290.429112 214.884861 
L 290.33307 212.058984 
L 289.453719 209.514676 
L 290.53026 206.360407 
L 291.200405 200.202198 
L 290.702488 195.576941 
L 289.831679 192.59252 
L 289.028365 190.961055 
L 289.362071 190.2723 
L 293.346682 191.469505 
L 294.814301 194.77291 
L 295.495923 193.852459 
L 295.055012 190.976654 
L 294.118199 188.07452 
L 293.748395 188.065497 
L 288.413793 184.553859 
L 286.445463 182.996348 
L 281.455401 181.496078 
L 279.920222 178.263125 
L 280.312649 176.000844 
L 276.787212 174.421362 
L 276.303797 171.407011 
L 272.970444 168.665581 
L 272.912207 166.704141 
L 271.397532 165.263468 
L 268.968925 164.036431 
L 268.189695 160.652447 
L 264.637489 157.477013 
L 263.152644 153.72356 
L 260.507036 153.464668 
L 256.126332 153.36651 
L 252.897137 152.210591 
L 247.199539 148.000696 
L 239.741571 145.756047 
L 235.926868 146.107393 
L 230.507855 144.208745 
L 227.23217 142.435774 
L 224.173844 143.318107 
L 224.742123 146.193242 
L 223.219047 146.457212 
L 220.030931 147.313335 
L 217.605102 148.693037 
L 214.551688 149.55779 
L 214.157552 147.152081 
L 215.396702 143.098231 
L 218.325098 141.813172 
L 217.569647 140.761093 
L 214.057238 143.09242 
L 212.176692 145.849998 
L 208.20657 148.766154 
L 210.222601 150.738481 
L 207.618783 153.630255 
L 204.656713 155.30118 
L 201.898972 156.512389 
L 201.216282 158.261221 
L 196.914747 160.286812 
L 196.043747 162.115629 
L 192.819892 163.770555 
L 190.928595 163.473578 
L 188.356887 164.549032 
L 185.560914 165.856931 
L 183.269287 167.135574 
L 178.540653 168.222804 
L 178.108998 167.58348 
L 181.123112 165.798512 
L 183.818842 164.613278 
L 186.755639 162.500421 
L 190.173927 162.061648 
L 191.532472 160.464795 
L 195.351802 158.116731 
L 195.967212 157.326701 
L 198.001611 155.928435 
L 198.47691 152.900708 
L 199.878313 150.519209 
L 196.701162 151.744047 
L 195.812577 151.049715 
L 194.320826 152.515564 
L 192.521371 150.468551 
L 191.778451 151.918392 
L 190.747973 149.901864 
L 187.993294 151.522046 
L 186.30177 151.51871 
L 186.064548 149.105668 
L 186.562771 147.608468 
L 184.78859 146.146332 
L 181.20577 146.934307 
L 178.880539 145.000249 
L 176.995364 144.005914 
L 176.983119 141.644413 
L 174.85994 139.85364 
L 175.926086 137.417636 
L 178.172504 135.031102 
L 179.15528 132.816333 
L 181.384896 132.499489 
L 183.27541 133.192719 
L 185.49812 131.096311 
L 187.498844 131.471863 
L 189.598315 130.116526 
L 189.08628 128.108462 
L 187.543982 127.31265 
L 189.583791 125.598266 
L 187.891556 125.648951 
L 184.967717 126.617948 
L 184.128042 127.596716 
L 181.955098 126.619211 
L 178.057737 127.117026 
L 174.022543 126.052339 
L 172.866051 124.255763 
L 169.378916 121.637195 
L 173.251074 119.734942 
L 179.397201 117.495618 
L 181.662699 117.495618 
L 181.287715 119.785655 
L 187.103925 119.607998 
L 184.866691 116.76254 
L 181.477521 114.996702 
L 179.517663 112.659045 
L 176.874404 110.647233 
L 173.088037 109.14509 
L 174.630336 106.633524 
L 179.518162 106.476909 
L 182.996041 104.270986 
L 183.651961 101.890493 
L 186.467085 99.54394 
L 189.151139 98.975832 
L 194.374365 96.757393 
L 196.907842 97.093133 
L 201.148149 94.405517 
L 205.317189 95.467942 
L 207.311078 97.735543 
L 208.534922 96.765695 
L 213.191577 97.066706 
L 213.026262 98.217045 
L 217.242078 99.063717 
L 220.052575 98.566041 
L 225.857251 100.135119 
L 231.156941 100.600037 
L 233.278554 101.241429 
L 236.944815 100.439418 
L 241.124606 101.92045 
L 249.258571 103.78459 
L 253.596059 106.117727 
L 256.46935 106.561329 
L 258.888131 104.543194 
L 262.225257 103.020919 
L 266.318119 103.617154 
L 270.44544 101.465357 
L 274.955078 100.235743 
L 276.848012 102.27736 
L 278.903983 101.12875 
L 279.519536 98.795976 
L 281.423648 99.326151 
L 286.082511 103.737987 
L 289.751335 100.410296 
L 290.123756 104.131937 
L 293.509011 103.332283 
L 294.549455 101.902933 
L 297.886867 102.186471 
L 302.100974 104.23818 
L 308.549182 106.014934 
L 312.341316 106.833565 
L 315.040392 106.523232 
L 318.757273 108.95423 
L 314.880559 111.310249 
L 319.861295 112.321331 
L 327.298901 111.765878 
L 329.64606 110.939482 
L 332.583284 113.760165 
L 335.580668 111.382504 
L 332.768462 109.370132 
L 334.547841 107.734423 
L 337.901769 107.513554 
L 340.106111 107.033191 
L 342.330245 108.178647 
L 345.099163 110.764468 
L 348.176285 110.386616 
L 353.044604 112.515513 
L 357.322075 111.768071 
L 361.341535 111.881113 
L 361.023578 108.930193 
L 363.473471 108.095162 
L 367.743182 109.71394 
L 367.726735 114.171672 
L 369.480412 110.420066 
L 371.697 110.547453 
L 372.942913 105.736023 
L 369.991166 102.735715 
L 366.774929 100.749322 
L 366.995847 95.230303 
L 370.253662 91.534334 
L 373.887601 92.356039 
L 376.675528 94.603541 
L 380.418822 100.247759 
L 377.974055 102.665879 
L 383.098605 103.654582 
L 383.086502 108.590947 
L 386.76871 104.817098 
L 390.062764 107.920678 
L 389.242098 111.448394 
L 391.907499 114.613199 
L 394.784421 111.221243 
L 396.794329 107.107356 
L 396.944906 101.772405 
L 400.860848 102.149066 
L 404.933989 102.870142 
L 408.632146 105.285887 
L 408.798102 107.678172 
L 406.747613 110.221626 
L 408.690455 112.749105 
L 408.339819 115.022793 
L 402.944586 118.254998 
L 399.112226 118.96236 
L 396.263071 117.580109 
L 395.44148 119.881272 
L 392.785762 123.698956 
L 391.981684 125.656092 
L 388.786165 128.654459 
L 384.841887 128.946116 
L 382.666308 130.798539 
L 382.484334 133.621798 
L 379.278705 134.16179 
L 375.907333 137.631686 
L 372.918921 142.377292 
L 371.850425 145.649806 
L 371.698068 150.397989 
L 375.747358 151.072589 
L 376.988431 154.831468 
L 378.276848 157.83924 
L 382.13263 157.059039 
L 387.252623 158.765734 
L 390.007303 160.255505 
L 391.97905 162.096366 
L 395.431584 163.163294 
L 398.350653 164.78804 
L 402.900587 165.009966 
L 405.897615 165.380911 
L 405.447519 168.685678 
L 406.304922 172.47451 
L 408.300662 176.635698 
L 412.400287 180.120558 
L 414.521616 178.930284 
L 416.012583 175.139591 
L 414.573446 169.21944 
L 412.629891 167.219536 
L 417.040853 165.426427 
L 420.163113 162.723555 
L 421.690247 160.010679 
L 421.464772 157.383244 
L 419.593695 154.00752 
L 416.246886 150.981813 
L 419.498649 146.710198 
L 418.297375 142.964538 
L 417.376609 136.374095 
L 419.29496 135.385411 
L 424.019037 136.55039 
L 426.851604 136.965537 
L 429.133976 135.843049 
L 431.700202 137.289583 
L 435.093359 139.746731 
L 435.929331 141.379156 
L 440.843001 141.696675 
L 440.760629 145.191429 
L 441.676624 150.36333 
L 444.193228 150.996022 
L 446.19032 153.367131 
L 450.180163 151.132428 
L 452.815947 146.635878 
L 454.63911 144.71846 
L 456.78493 148.389607 
L 460.373588 153.547267 
L 463.420523 158.310656 
L 462.312586 160.771631 
L 465.977637 162.963416 
L 468.454513 165.166819 
L 472.848103 166.15834 
L 474.616731 167.376751 
L 475.708792 170.583718 
L 477.854611 171.084041 
L 478.961766 172.499472 
L 479.162678 176.677096 
L 475.185152 179.34849 
L 470.644473 180.645937 
L 467.177416 183.623884 
L 462.519194 184.208833 
L 456.625809 183.449915 
L 452.490443 183.423988 
L 449.636589 183.673651 
L 447.329584 186.250296 
L 443.816891 187.83131 
L 439.842212 192.505863 
L 436.670899 195.726352 
L 439.011224 195.155343 
L 443.434288 190.553642 
L 449.213904 187.601 
L 453.336525 187.245728 
L 455.775811 188.988746 
L 453.173417 191.36092 
L 454.046625 195.131353 
L 454.94589 197.744529 
L 458.524866 199.463103 
L 463.078431 198.965992 
L 465.840942 195.079324 
L 466.032528 197.592161 
L 467.811764 198.840043 
L 464.4033 201.085014 
L 458.30053 203.111223 
L 455.567565 204.481975 
L 452.488378 206.908477 
L 450.396098 206.661875 
L 450.290516 203.806482 
L 455.074539 200.993497 
L 450.664361 201.105309 
L 447.602047 201.520988 
L 448.078076 202.637152 
L 445.135676 204.280129 
L 442.30454 205.445903 
L 439.394351 206.442204 
L 437.469067 209.183649 
L 437.44123 210.947857 
L 438.350533 212.702295 
L 439.493997 212.784793 
L 439.204732 211.577771 
L 440.031378 212.313014 
L 439.810815 213.256036 
L 437.950987 213.790381 
L 436.627328 213.726322 
L 434.606385 214.300322 
L 431.788698 214.626785 
L 429.49185 215.576543 
L 433.538886 214.958891 
L 434.355137 215.580127 
L 430.497575 216.561628 
L 428.742403 216.568129 
L 428.824143 216.166903 
L 427.985457 217.072599 
L 428.796272 217.222224 
L 428.201249 219.557726 
L 426.196254 222.044123 
L 425.991354 221.21622 
L 425.386196 221.048188 
L 424.482375 220.240172 
L 425.055638 221.97823 
L 425.739427 222.550899 
L 425.781047 223.764129 
L 424.8973 225.007744 
L 423.3466 227.551067 
L 423.09578 227.425061 
L 423.947813 225.258345 
L 422.54029 224.036179 
L 422.217548 221.365889 
L 421.68651 222.757972 
L 422.274503 224.791218 
L 420.454087 224.289852 
L 422.350855 225.319342 
L 422.469008 228.345483 
L 423.259647 228.564468 
L 423.545519 229.658562 
L 423.93282 232.805784 
L 422.181208 235.125095 
L 419.330877 236.048184 
L 417.519672 237.868161 
L 416.143653 238.066672 
L 414.748521 239.202248 
L 414.354772 240.236859 
L 411.329999 242.231161 
L 409.776894 243.688337 
L 408.478239 245.496418 
L 408.053544 247.654246 
L 408.540456 249.753915 
L 409.460002 252.328094 
L 410.684515 254.44799 
L 410.699936 255.737792 
L 412.004486 259.184351 
L 411.797773 262.324104 
L 411.110379 264.119301 
L 410.286577 264.489522 
L 408.930596 264.133706 
L 408.495594 262.844449 
L 407.448528 262.16736 
L 404.706458 257.359759 
L 404.292842 256.195928 
L 404.85838 254.215257 
L 404.086903 252.568129 
L 401.938807 250.05237 
L 400.863064 249.589529 
L 398.083344 250.957264 
L 397.59007 250.806861 
L 396.252976 249.400544 
L 394.525627 248.653065 
L 391.410985 249.03293 
L 388.965648 248.69869 
L 386.864194 248.907069 
L 385.725267 249.37825 
L 386.221507 250.180099 
L 386.17669 251.400982 
L 386.761748 251.994629 
L 386.236676 252.389288 
L 385.214278 251.946397 
L 384.180032 252.515842 
L 382.180715 252.42252 
L 380.123631 250.834314 
L 377.720149 251.209538 
L 375.716107 250.512873 
L 374.0021 250.724039 
L 371.683188 251.42693 
L 369.175057 253.650925 
L 366.436752 254.939831 
L 364.9324 256.363382 
L 364.298693 257.70149 
L 364.27114 259.746758 
L 364.408903 261.164974 
L 364.9324 262.16736 
L 363.863122 264.747168 
L 363.381273 266.853908 
L 363.179863 270.755539 
L 362.914447 272.171666 
L 363.392024 273.749831 
L 364.246436 275.157423 
L 364.796489 277.389994 
L 366.625419 279.526357 
L 367.268666 281.15922 
L 368.346702 282.565495 
L 371.272463 283.32216 
L 372.411371 284.513796 
L 374.828087 283.717956 
L 376.929196 283.430131 
L 380.726741 282.428349 
L 382.479279 281.262921 
L 383.13584 279.593723 
L 383.362098 277.182789 
L 383.838393 276.341893 
L 385.704629 275.587743 
L 388.618358 274.919057 
L 391.058142 275.01951 
L 392.729375 274.775206 
L 393.390421 275.386619 
L 393.296942 276.773469 
L 391.816227 278.481299 
L 391.16109 280.226212 
L 391.668925 280.724535 
L 390.565543 284.185139 
L 389.86712 283.453476 
L 389.290226 283.500974 
L 389.300407 283.918979 
L 389.822623 283.932079 
L 389.776702 284.706454 
L 389.330665 285.936306 
L 389.571731 286.375628 
L 389.283035 287.390982 
L 389.456965 287.662153 
L 389.137584 289.093571 
L 388.59643 289.844191 
L 388.098777 289.934138 
L 387.552711 290.913091 
L 388.45105 291.423903 
L 388.688628 291.003148 
L 389.78311 291.47394 
L 390.387485 290.977533 
L 391.175899 290.937029 
L 391.431489 291.167256 
L 391.859015 291.027011 
L 393.139103 291.2818 
L 394.412782 291.208041 
L 395.299232 290.895648 
L 395.622387 290.579349 
L 397.880481 290.851272 
L 398.428042 290.606143 
L 400.123908 291.060286 
L 400.964864 291.588008 
L 401.761395 292.22052 
L 402.763252 292.652444 
L 403.488374 293.427628 
L 403.251365 293.697912 
L 403.11104 294.326388 
L 403.392189 295.355658 
L 402.757414 296.312818 
L 402.46167 297.44235 
L 402.372462 298.677908 
L 402.520405 299.40001 
L 402.589821 300.660101 
L 402.168844 300.934873 
L 401.911189 302.130481 
L 402.100639 302.868089 
L 401.536846 303.581891 
L 401.665068 304.335855 
L 402.087539 304.793926 
L 402.785465 306.30778 
L 403.850828 307.428045 
L 405.144442 308.615168 
L 405.144442 308.615168 
" style="fill:none;stroke:#000000;"/>
    <path clip-path="url(#p55b409b321)" d="M 405.144442 308.615168 
L 406.13384 309.612121 
L 406.077453 310.200667 
L 407.176919 310.325525 
L 407.437066 310.099625 
L 408.194439 310.781963 
L 409.550064 310.58131 
L 410.72222 309.879865 
L 412.395588 309.319487 
L 413.336004 308.488805 
L 414.8573 308.651947 
L 414.754637 308.925391 
L 416.290955 309.02019 
L 417.517006 309.5002 
L 418.416413 310.336001 
L 419.452871 311.103228 
" style="fill:none;stroke:#000000;"/>
    <path clip-path="url(#p55b409b321)" d="M 434.996178 280.031818 
L 435.340762 279.543606 
L 435.91196 279.486082 
L 437.491636 279.556857 
L 439.123783 280.293956 
L 439.849973 280.22207 
L 440.35026 281.236776 
L 441.857816 281.179754 
L 441.769036 282.03122 
L 442.995015 282.134284 
L 444.349216 283.181098 
L 443.325929 284.340805 
L 442.015371 283.721342 
L 440.750519 283.840813 
L 439.844135 283.70522 
L 439.347335 284.224721 
L 438.289519 284.400164 
L 437.870251 283.709269 
L 436.959168 284.118184 
L 435.856285 286.065793 
L 435.146898 285.613964 
L 435.007355 284.79659 
L 433.177286 284.312852 
L 431.876908 284.510266 
L 430.195708 284.304466 
L 428.906508 284.836435 
L 427.430705 283.949522 
L 427.67348 283.030799 
L 430.20952 283.42667 
L 432.288772 283.655378 
L 433.280875 283.020778 
L 432.022289 281.784385 
L 432.043078 280.692531 
L 430.304636 280.246255 
L 430.925244 279.455431 
L 432.606373 279.582027 
L 434.996178 280.031818 
" style="fill:none;stroke:#000000;"/>
    <path clip-path="url(#p55b409b321)" d="M 673.267058 224.597399 
L 675.358627 224.318054 
L 674.366452 226.829352 
L 674.778814 227.813452 
L 674.200425 229.441468 
L 672.093194 228.249695 
L 670.692075 227.907623 
L 666.84626 226.291828 
L 667.231852 224.653343 
L 670.456277 224.945576 
L 673.267058 224.597399 
" style="fill:none;stroke:#000000;"/>
    <path clip-path="url(#p55b409b321)" d="M 587.79916 281.798407 
L 587.466394 280.377149 
L 587.741421 278.948527 
L 587.029185 277.584147 
L 585.576806 276.34219 
L 585.825277 273.787234 
L 586.883663 272.999462 
L 587.785277 271.490258 
L 587.607574 270.50819 
L 588.554896 268.455675 
L 590.08858 266.600287 
L 591.016251 266.129148 
L 591.745574 264.420469 
L 591.810931 262.855395 
L 592.805597 261.033895 
L 594.641077 259.957086 
L 596.387634 256.928361 
L 597.823497 255.743184 
L 600.385807 255.413808 
L 602.556972 253.37096 
L 603.938441 252.57237 
L 606.238611 250.061374 
L 605.550012 246.29557 
L 606.596865 243.673678 
L 606.966367 242.061512 
L 608.738697 239.984704 
L 611.503201 238.574808 
L 613.546713 237.294936 
L 615.387889 234.072603 
L 616.254048 232.149594 
L 618.282396 232.164678 
L 619.943519 233.494726 
L 622.563782 233.278361 
L 625.417708 233.968783 
L 626.614639 234.002208 
L 629.263452 232.291244 
L 632.242467 231.74554 
L 633.982047 230.447197 
L 636.63563 229.486774 
L 641.305457 228.923236 
L 645.86308 228.666487 
L 647.252808 229.136361 
L 649.847583 227.888201 
L 652.791926 227.863696 
L 653.912537 228.601046 
L 655.796928 228.408754 
L 658.797657 227.128345 
L 660.726474 227.50948 
L 660.645596 229.112586 
L 662.982788 227.947039 
L 663.178859 228.555805 
L 661.801092 230.10438 
L 661.782582 231.560825 
L 662.736596 232.341016 
L 662.373786 235.047306 
L 660.56002 236.61137 
L 661.083731 238.300593 
L 662.508771 238.353181 
L 663.202211 239.82106 
L 664.25006 240.302741 
L 667.486446 241.361375 
L 668.643508 241.096993 
L 670.945387 241.609578 
L 674.601681 242.979442 
L 675.892162 245.691925 
L 678.365622 246.282065 
L 682.249312 247.552456 
L 685.184685 249.056896 
L 686.528278 248.272508 
L 687.849089 246.878598 
L 687.20691 244.547854 
L 688.071218 243.061762 
L 690.056563 241.625443 
L 691.953627 241.206417 
L 695.681116 241.834809 
L 696.620749 243.204622 
L 697.64667 243.217585 
L 698.523935 243.739136 
L 701.261813 244.097524 
L 701.933182 245.104579 
L 705.599301 245.054274 
L 710.986632 246.757187 
L 712.262447 247.229635 
L 714.383918 246.267853 
L 715.518055 245.396221 
L 717.948085 245.145117 
L 719.907231 245.529547 
L 720.657912 247.036824 
L 721.297386 246.04448 
L 723.505715 246.762285 
L 725.653385 246.934116 
L 727.009224 246.16906 
L 727.81088 245.166527 
L 727.622783 244.993728 
L 728.351536 243.567221 
L 728.910417 241.255085 
L 729.380589 240.444653 
L 730.361942 237.930145 
L 731.784277 235.634717 
L 731.526978 233.246576 
L 732.201338 231.956379 
L 731.188232 230.530006 
L 732.231809 229.344718 
L 730.551321 229.613765 
L 728.246737 228.886451 
L 726.351951 230.703387 
L 722.169953 231.057247 
L 719.939269 229.364723 
L 716.969011 229.258562 
L 716.333808 230.567863 
L 714.429483 230.941442 
L 711.764794 229.261829 
L 708.75666 229.318751 
L 707.124299 226.163115 
L 705.11133 224.391816 
L 706.451791 221.895265 
L 704.705091 220.352999 
L 707.761495 217.247062 
L 712.004721 217.116602 
L 713.162068 214.628907 
L 718.413701 215.063422 
L 721.725838 212.929181 
L 724.936735 211.995042 
L 729.495356 211.924676 
L 734.304725 214.249776 
L 738.257475 215.519261 
L 741.467376 215.013746 
L 743.839311 215.305941 
L 747.092498 213.590595 
L 747.503293 212.18034 
L 746.815264 209.917173 
L 745.222631 208.688572 
L 743.695924 208.304255 
L 742.686378 207.278398 
L 739.173186 204.433052 
L 736.029639 203.155075 
L 733.649873 201.155246 
L 735.65501 200.609061 
L 737.941369 197.736328 
L 736.400423 196.368334 
L 740.461817 194.951327 
L 740.388913 194.189669 
L 737.915454 194.751321 
L 735.715526 195.029623 
L 733.882396 196.153078 
L 731.302856 196.33584 
L 728.929497 197.624798 
L 729.09054 199.764271 
L 730.438548 200.590327 
L 733.249044 200.385067 
L 732.710952 201.603815 
L 729.694559 202.19394 
L 725.954113 204.157381 
L 724.421853 203.468362 
L 725.029431 201.87119 
L 722.01845 200.872464 
L 722.505139 200.216662 
L 725.143059 199.076624 
L 724.345104 198.288782 
L 720.062009 197.41715 
L 719.872346 196.126922 
L 717.31929 196.55357 
L 716.296645 198.454702 
L 714.163071 200.989172 
L 714.227146 201.869077 
L 712.890957 202.601422 
L 712.053988 202.282844 
L 711.283088 206.363494 
L 709.853064 207.753678 
L 708.846793 210.14086 
L 709.736304 212.033426 
L 710.063659 213.303143 
L 712.468913 214.366233 
L 711.967415 215.17055 
L 708.695574 215.351342 
L 707.520001 216.363697 
L 705.22097 218.12008 
L 704.353957 216.601641 
L 704.391405 215.92684 
L 702.712626 215.833806 
L 701.27477 215.524256 
L 697.937857 216.374931 
L 699.847879 218.207915 
L 698.448041 218.737684 
L 696.91336 218.740957 
L 695.455713 217.064422 
L 694.938552 217.779719 
L 695.554247 219.719561 
L 696.932725 221.236813 
L 695.894132 221.943115 
L 697.42867 223.424599 
L 698.792625 224.353861 
L 698.833918 226.157847 
L 696.285135 225.312745 
L 697.097898 226.93764 
L 695.348208 227.271272 
L 696.393209 230.064931 
L 694.563069 230.10438 
L 692.303622 228.729953 
L 691.270297 226.189783 
L 690.788164 224.064658 
L 688.30189 220.751802 
L 688.115359 219.830703 
L 687.646895 219.603948 
L 687.59179 218.89031 
L 686.06551 217.798566 
L 685.825725 216.243822 
L 686.058533 214.0057 
L 686.434586 212.982896 
L 685.970963 212.46263 
L 685.394283 212.206571 
L 684.621817 211.125302 
L 683.431151 210.466336 
L 680.840932 209.234661 
L 679.242887 208.032102 
L 676.722724 207.036135 
L 674.405609 204.557442 
L 674.961643 204.304771 
L 673.705335 202.879152 
L 673.65379 201.730484 
L 671.882456 201.192473 
L 671.03794 202.662906 
L 670.224323 201.522927 
L 670.38437 200.281239 
L 670.997644 199.970624 
L 668.804266 199.471083 
L 666.564042 200.686814 
L 666.7164 202.379812 
L 666.379078 203.347605 
L 667.282258 205.070244 
L 669.865927 206.765848 
L 671.251668 209.531276 
L 674.317755 212.206144 
L 676.476959 212.185723 
L 677.148471 212.915879 
L 676.375435 213.572721 
L 680.866277 215.75327 
L 683.229099 217.456983 
L 683.514449 218.065182 
L 682.999566 219.228567 
L 681.470296 217.71097 
L 679.076433 217.17459 
L 677.916808 219.278433 
L 679.908276 220.478824 
L 679.581348 222.162153 
L 678.430267 222.35297 
L 676.958522 225.10234 
L 675.809861 225.348379 
L 675.82054 224.371144 
L 676.382696 222.650853 
L 676.981589 221.963585 
L 675.064591 218.457105 
L 673.920771 218.051898 
L 673.107296 216.644772 
L 671.336675 216.050453 
L 670.144442 214.733024 
L 668.1057 214.520176 
L 665.952619 213.033875 
L 663.432029 210.880027 
L 661.55846 208.962887 
L 660.698993 205.6481 
L 659.328061 205.256115 
L 657.086413 204.140942 
L 655.817859 204.597876 
L 654.225795 206.16275 
L 653.080693 206.409276 
L 650.584452 208.303391 
L 645.14999 207.396911 
L 641.136582 208.482867 
L 640.82133 210.489517 
L 640.968704 212.414473 
L 638.357554 214.608878 
L 634.82699 215.302468 
L 634.581225 216.403731 
L 632.887637 218.211361 
L 631.825691 220.849538 
L 632.900309 222.690802 
L 631.306537 224.122169 
L 630.710634 226.198178 
L 628.630314 226.832474 
L 626.679284 229.270323 
L 620.555512 229.258644 
L 618.829743 230.37333 
L 617.777338 231.562693 
L 616.429188 231.30184 
L 615.408963 230.237859 
L 614.627811 228.419885 
L 612.055533 227.929011 
L 610.948165 228.751216 
L 609.495501 228.305942 
L 608.073593 228.654544 
L 608.494498 226.169535 
L 608.235775 224.205812 
L 607.002819 223.910373 
L 606.34398 222.69429 
L 606.563261 220.584314 
L 607.6618 219.409142 
L 607.857302 218.096289 
L 608.432273 216.134558 
L 608.371188 214.746005 
L 607.820281 213.56489 
L 607.698964 212.452641 
L 607.837795 210.091355 
L 606.712343 208.645162 
L 610.610415 206.226028 
L 613.982214 206.832398 
L 617.681652 206.811142 
L 620.613536 207.384178 
L 622.901389 207.208294 
L 627.354641 207.319293 
L 628.779539 205.302218 
L 629.304246 198.51491 
L 626.460858 194.882993 
L 624.428595 193.117307 
L 620.217549 191.768512 
L 619.939817 189.195518 
L 623.512314 188.42387 
L 628.139495 189.33628 
L 627.266074 185.301805 
L 629.867257 186.836925 
L 636.282502 184.040595 
L 637.109789 181.074361 
L 641.727786 179.618817 
L 643.1477 178.612811 
L 645.560643 173.167311 
L 649.330564 171.599321 
L 651.620198 171.705371 
L 652.15829 170.909191 
L 654.461308 170.70445 
L 654.972346 171.534002 
L 656.843353 169.676024 
L 656.213419 168.255204 
L 656.086976 166.092267 
L 654.968502 163.959495 
L 654.884919 159.988034 
L 655.343985 158.929777 
L 656.134392 157.748855 
L 658.562002 157.503944 
L 659.5294 156.412657 
L 661.745987 155.292337 
L 661.65258 157.331499 
L 660.836684 158.615209 
L 661.167314 159.714134 
L 662.661271 160.306302 
L 661.987908 161.776719 
L 661.167314 161.354113 
L 659.183392 164.143528 
L 659.932649 166.014305 
L 659.981347 167.49047 
L 662.765786 168.376917 
L 662.736453 169.72174 
L 665.538121 169.01095 
L 667.087184 167.971137 
L 670.198123 169.469038 
L 671.499284 170.671546 
L 673.381824 169.562874 
L 677.681864 167.80835 
L 681.151912 166.517714 
L 683.901892 167.162776 
L 684.10964 168.091497 
L 686.766924 168.139529 
L 687.394722 166.461802 
L 691.197108 165.219018 
L 690.611173 161.972225 
L 690.706574 159.032254 
L 692.060705 156.555588 
L 694.657616 155.199361 
L 696.845725 158.157847 
L 699.056332 158.081207 
L 699.905547 152.679447 
L 698.892298 153.185425 
L 697.143605 151.75634 
L 696.904532 149.430041 
L 700.388534 148.294543 
L 703.86029 147.700709 
L 706.849771 148.37642 
L 709.693302 148.2556 
L 712.825031 145.988413 
L 709.938213 144.022429 
L 704.937614 144.352413 
L 700.092078 145.867889 
L 695.609209 146.735887 
L 694.014012 144.48519 
L 691.345337 143.121691 
L 691.958753 138.986422 
L 690.620571 135.141418 
L 691.934405 132.62838 
L 694.432782 129.889989 
L 700.736535 125.090619 
L 702.575931 124.154744 
L 702.2893 122.250932 
L 698.457439 120.106199 
L 693.717556 121.393619 
L 691.045748 124.53752 
L 691.475908 127.264817 
L 687.092713 130.801248 
L 681.771736 134.530868 
L 679.765174 140.522652 
L 681.726456 143.469568 
L 684.36167 145.766488 
L 681.830828 150.377886 
L 678.965084 151.324281 
L 677.91396 158.02043 
L 676.349092 161.687607 
L 673.006484 161.311757 
L 671.447027 164.383277 
L 668.256776 164.560569 
L 667.381077 160.897919 
L 665.074357 156.436928 
L 662.978659 150.773196 
L 661.130293 148.278396 
L 655.689565 152.961077 
L 652.0159 153.900359 
L 648.205398 151.855499 
L 647.220058 147.487194 
L 646.348915 137.859944 
L 648.886165 135.111014 
L 656.161874 131.479742 
L 661.601889 126.94371 
L 666.646059 120.685307 
L 673.266773 111.744433 
L 677.881495 108.169125 
L 685.45366 102.089967 
L 691.500115 99.931439 
L 696.033674 100.194322 
L 700.229627 96.059235 
L 705.254147 96.281872 
L 710.201492 95.277563 
L 718.820082 98.945501 
L 715.271151 100.272555 
L 718.290106 103.359788 
L 721.132783 101.655021 
L 725.659223 104.609848 
L 733.204903 105.763004 
L 743.6159 111.169583 
L 745.730679 113.405941 
L 745.912796 116.503594 
L 742.853966 118.921693 
L 738.354727 120.139879 
L 726.053786 116.651494 
L 724.030707 117.238157 
L 728.522875 120.592414 
L 728.698683 122.693985 
L 728.87871 127.261353 
L 732.425979 128.608343 
L 734.579172 129.749591 
L 734.935283 127.613947 
L 733.275444 125.705893 
L 735.02916 124.012126 
L 741.690133 126.789542 
L 744.010608 125.705893 
L 742.156212 122.420449 
L 748.577684 117.957809 
L 751.120796 118.22273 
L 753.693557 119.822744 
L 755.298584 116.666542 
L 753.000977 113.895841 
L 754.313635 111.031402 
L 752.324339 108.132764 
L 760.031774 109.663555 
L 761.605986 112.312855 
L 758.117159 112.892994 
L 758.135992 115.491109 
L 760.304905 117.076028 
L 764.562053 116.073236 
L 765.236028 113.100091 
L 780.607591 106.757046 
L 782.685947 106.993934 
L 779.969409 109.895019 
L 783.461059 110.438348 
L 785.361375 108.764479 
L 790.525964 108.632576 
L 794.617703 106.644173 
L 797.757281 109.528214 
L 800.888592 106.355637 
L 798.001356 103.545658 
L 799.434257 101.930096 
L 807.573704 103.412015 
L 811.38749 104.932984 
L 821.373246 110.412347 
L 823.215297 107.918084 
L 820.415132 105.371471 
L 820.334619 104.342116 
L 817.013955 103.864491 
L 817.922361 101.543042 
L 816.448654 97.67313 
L 816.365275 96.066923 
L 821.450122 91.462558 
L 823.258502 86.748266 
L 825.307541 85.715585 
L 832.602618 87.099444 
L 833.177095 89.991596 
L 830.56518 94.145659 
L 832.27905 95.758463 
L 833.16566 99.256926 
L 832.539678 105.968762 
L 835.579378 108.911292 
L 834.396836 112.075466 
L 828.9998 118.67508 
L 832.14927 119.349587 
L 833.245264 117.698172 
L 836.276829 116.513409 
L 837.008448 114.214142 
L 839.393234 111.980927 
L 837.787542 109.287513 
L 839.073165 106.121691 
L 836.060171 105.724199 
L 835.397521 103.019941 
L 837.596151 98.058602 
L 834.01769 93.951707 
L 838.949116 90.501939 
L 838.311071 86.80637 
L 839.685336 86.687423 
L 841.133308 89.575248 
L 840.046213 94.518083 
L 842.994867 95.442228 
L 841.738452 91.772966 
L 846.34967 89.748056 
L 852.0682 89.474033 
L 857.160214 92.408109 
L 854.709822 88.109295 
L 854.435294 82.491952 
L 859.226722 81.412375 
L 865 81.618301 
L 865 81.618301 
" style="fill:none;stroke:#000000;"/>
    <path clip-path="url(#p55b409b321)" d="M 865 282.852148 
L 863.886154 284.064985 
L 861.814663 285.859367 
L 859.069096 287.717241 
L 859.064824 289.020287 
L 857.691187 289.717623 
L 855.209327 290.730322 
L 853.922262 290.879445 
L 853.096115 293.031523 
L 853.669805 296.689974 
L 853.815897 299.016362 
L 852.648298 301.674742 
L 852.635767 306.414048 
L 851.209873 306.548869 
L 849.9557 308.670839 
L 850.794378 309.586851 
L 848.282047 310.374317 
L 847.35409 312.261819 
L 846.248431 313.058897 
L 843.639274 310.468095 
L 842.363743 306.574551 
L 841.306781 303.763431 
L 840.341376 302.443014 
L 838.877463 299.756615 
L 838.193848 296.249607 
L 837.717553 294.493549 
L 835.21106 290.621037 
L 833.245649 281.479805 
L 833.255473 278.010276 
L 832.721083 275.316014 
L 828.711235 277.039269 
L 826.769176 276.69446 
L 823.169696 273.198848 
L 824.494493 272.152656 
L 823.680734 271.015011 
L 820.448762 268.547143 
L 818.429101 267.809964 
L 817.607367 265.709671 
L 815.478492 263.476155 
L 810.401857 264.028655 
L 805.925111 264.083344 
L 802.044553 264.494676 
L 796.860982 263.608333 
L 793.856551 262.93277 
L 790.747035 262.550424 
L 789.571889 258.929281 
L 788.253072 258.40399 
L 786.13573 258.933645 
L 783.35656 260.365738 
L 779.98946 259.384608 
L 777.207869 257.104696 
L 774.554856 256.25713 
L 772.714748 253.423731 
L 770.681417 249.415148 
L 769.198566 249.904145 
L 767.447452 248.903713 
L 766.418684 250.081861 
L 764.783475 249.93399 
L 765.358447 251.263146 
L 765.112539 251.948921 
L 767.078947 256.781178 
L 768.434501 257.460259 
L 768.906666 258.502761 
L 770.784508 259.747752 
L 770.951246 260.967162 
L 770.676718 261.949425 
L 771.025432 262.938395 
L 771.81769 263.76211 
L 772.18463 264.724439 
L 772.596707 265.442843 
L 772.414305 263.307795 
L 773.156727 261.763698 
L 773.909259 261.446471 
L 774.743096 262.370222 
L 774.791651 264.091384 
L 774.19347 265.815703 
L 774.716754 266.932336 
L 775.207003 266.790419 
L 775.308812 267.591205 
L 777.465453 267.131115 
L 781.408235 267.293695 
L 783.295759 265.31646 
L 785.351303 263.435 
L 787.092165 261.620801 
L 787.894533 260.616049 
L 788.235273 260.872425 
L 787.975553 262.090792 
L 787.616303 262.624876 
L 787.990504 264.944795 
L 789.225739 266.943507 
L 790.764122 268.003177 
L 792.785207 268.384072 
L 794.417141 268.914982 
L 796.403483 271.545547 
L 797.389819 271.912667 
L 797.384551 272.558771 
L 795.941427 275.091488 
L 794.780663 276.013176 
L 793.752463 277.983048 
L 792.50242 277.83242 
L 791.929442 278.516886 
L 791.486894 279.970116 
L 791.82564 281.881653 
L 791.565778 282.232466 
L 790.297936 282.223098 
L 788.576867 283.289236 
L 788.308319 284.676749 
L 787.678243 285.277093 
L 785.964293 285.25417 
L 784.885403 285.969927 
L 784.899072 287.11679 
L 783.565731 287.904162 
L 782.045431 287.636879 
L 780.202761 288.592746 
L 778.929935 288.753062 
L 776.936758 289.513408 
L 776.403649 290.768572 
L 776.33872 291.731447 
L 773.595289 292.922076 
L 769.192301 294.235924 
L 766.72525 296.219778 
L 765.512086 296.374575 
L 764.685369 296.208456 
L 763.074936 297.373553 
L 761.318696 297.913588 
L 759.005569 298.059221 
L 758.309708 298.218526 
L 757.707398 298.958524 
L 756.985195 299.162932 
L 756.558594 299.875169 
L 755.194781 299.813398 
L 754.314526 300.193228 
L 752.407352 300.050915 
L 751.690703 298.414745 
L 751.769444 296.881402 
L 751.318922 296.052835 
L 750.77969 293.972775 
L 749.987859 292.814728 
L 750.539336 292.677648 
L 750.256692 291.388598 
L 750.590739 290.843973 
L 750.468568 289.611063 
L 750.111026 288.403049 
L 749.280038 287.549475 
L 749.067591 286.417523 
L 747.644402 285.399415 
L 746.17579 283.011715 
L 745.398625 280.684253 
L 743.492733 278.713024 
L 742.263906 278.241785 
L 740.439034 275.500778 
L 740.120223 273.494974 
L 740.237695 271.779234 
L 738.657306 268.55738 
L 737.365258 267.419429 
L 735.876712 266.815483 
L 734.970683 265.138947 
L 735.121332 264.476182 
L 734.3557 262.953367 
L 733.551054 262.296269 
L 732.475154 260.101257 
L 729.39198 255.668159 
L 728.020194 255.682487 
L 728.448503 254.043496 
L 728.570959 252.995444 
L 728.912126 251.797963 
L 728.819999 251.362837 
L 728.046109 252.56989 
L 727.453196 254.830817 
L 726.703655 256.383307 
L 726.06119 256.902924 
L 723.899281 254.610789 
L 721.933158 250.310047 
L 721.649944 250.583106 
L 722.79177 253.750913 
L 724.483365 256.75066 
L 726.565963 261.364773 
L 727.583626 262.966287 
L 728.46858 264.625179 
L 730.941185 267.86287 
L 730.393695 268.371121 
L 730.482546 270.262245 
L 733.691878 272.86461 
L 734.175504 273.457036 
L 735.064091 276.287229 
L 734.459788 276.809217 
L 734.860189 279.764034 
L 735.871586 283.17572 
L 738.429482 284.929423 
L 740.029093 288.216093 
L 740.788175 290.812952 
L 742.298649 292.18787 
L 746.059742 294.848425 
L 749.945711 299.032721 
L 751.300411 299.875024 
L 751.952416 300.741051 
L 751.8657 301.901911 
L 750.293713 302.570386 
L 752.373463 303.848641 
L 752.913549 305.00187 
L 754.156615 306.168258 
L 755.524557 306.177541 
L 758.122038 305.464891 
L 761.121201 305.1346 
L 763.546675 304.268406 
L 764.913193 304.084776 
L 765.897393 303.575834 
L 768.346931 303.422751 
L 769.616766 303.00804 
L 771.077546 302.726967 
L 772.381555 301.770641 
L 773.426414 301.762986 
L 773.488781 302.53546 
L 773.23433 304.158865 
L 773.244724 305.624066 
L 772.663061 306.629941 
L 771.886607 309.636313 
L 770.559958 312.736713 
L 768.856545 316.274738 
L 766.491872 320.32755 
L 764.139445 323.419702 
L 760.89893 327.183092 
L 758.141403 329.414952 
L 754.019778 332.15164 
L 751.451202 334.247583 
L 748.435806 337.585422 
L 747.800319 339.038572 
L 747.178074 339.69116 
L 745.248261 340.79179 
L 744.567891 341.942023 
L 743.535133 342.144122 
L 743.144304 344.087192 
L 742.259492 345.200289 
L 741.721684 347.036594 
L 740.612131 347.94828 
L 739.339925 351.352762 
L 739.503246 352.920213 
L 741.267318 353.928418 
L 741.349904 354.648189 
L 740.591392 356.321235 
L 740.749302 357.163695 
L 740.568894 358.488726 
L 741.531166 360.229042 
L 742.671427 362.97063 
L 743.682681 363.579398 
L 744.128505 364.82828 
L 744.015162 367.607745 
L 744.355617 370.061056 
L 744.462552 374.444036 
L 744.947106 375.821543 
L 744.125372 377.834659 
L 743.056307 379.795492 
L 741.301918 381.550039 
L 735.676939 384.00488 
L 732.563721 387.059635 
L 731.503484 387.580448 
L 729.579935 389.610827 
L 728.444659 390.272682 
L 728.211851 392.317721 
L 729.518565 394.496356 
L 730.062211 396.188348 
L 730.096434 397.053112 
L 730.583309 396.908501 
L 730.504474 399.751122 
L 730.057654 401.102096 
L 730.707096 401.600708 
L 730.297297 402.814111 
L 729.145503 403.853589 
L 726.872529 404.842825 
L 723.558826 406.430641 
L 722.350361 407.517857 
L 722.586586 408.759142 
L 723.290848 408.957651 
L 723.054338 410.512994 
L 722.365882 412.671622 
L 722.040378 415.146201 
L 721.32743 416.495616 
L 718.908649 418.443839 
L 717.740908 419.972748 
L 716.972286 421.524136 
L 715.409696 423.69591 
L 710.35086 428.679974 
L 708.270113 430.079692 
L 705.390272 431.276744 
L 703.985594 431.437706 
L 703.630045 432.296538 
L 701.955395 431.839093 
L 700.59144 432.428263 
L 697.605092 431.831739 
L 695.93571 432.20917 
L 694.79488 432.047123 
L 692.581632 433 
M 683.822627 433 
L 683.361237 432.461401 
L 683.231092 432.89114 
L 682.864865 432.058478 
L 682.880243 430.247542 
L 681.985036 428.18679 
L 682.874263 427.62827 
L 682.802213 425.282562 
L 680.997846 422.438153 
L 679.609115 419.870256 
L 677.630888 415.969945 
L 675.583176 413.715857 
L 674.504855 411.546092 
L 673.896565 408.667077 
L 673.217364 406.534486 
L 672.294106 402.027554 
L 672.232309 398.549283 
L 671.879609 396.969836 
L 670.807553 395.778858 
L 669.385361 393.397924 
L 667.936968 389.955289 
L 667.335512 388.160204 
L 665.093579 385.377395 
L 664.926271 383.197182 
L 664.666979 381.414812 
L 665.048442 378.928285 
L 665.999181 376.346722 
L 666.142568 375.138944 
L 667.036635 372.60686 
L 667.693481 371.457822 
L 669.27629 369.625784 
L 670.160248 368.38147 
L 670.449584 366.312906 
L 670.305343 364.732514 
L 669.481331 363.736668 
L 668.070672 360.380638 
L 668.218616 359.803329 
L 669.065552 358.702686 
L 667.66543 354.169601 
L 666.2851 352.41886 
L 666.547098 351.881319 
L 666.161078 351.02374 
L 665.424352 348.945878 
L 663.16163 346.021631 
L 660.33006 343.237168 
L 658.509033 340.96202 
L 656.835806 338.114882 
L 656.92423 337.199375 
L 657.525829 336.318373 
L 658.195205 334.312371 
L 658.750526 332.269267 
L 658.234504 331.853724 
L 659.181114 328.758589 
L 659.583508 326.581548 
L 658.506612 324.757814 
L 657.249449 324.289824 
L 656.689571 323.053103 
L 655.983886 322.657215 
L 656.015496 321.894116 
L 653.154879 322.887763 
L 652.109166 322.742603 
L 651.049641 323.36122 
L 648.845584 323.300883 
L 647.370422 321.573793 
L 646.463254 319.573955 
L 644.51251 317.752281 
L 640.010418 317.785014 
L 637.733173 318.107668 
L 635.514735 318.697548 
L 631.194903 320.315484 
L 629.662927 321.262855 
L 627.18007 322.064003 
L 624.723841 321.279627 
L 623.470238 321.307746 
L 621.547686 320.767654 
L 619.781194 320.799561 
L 616.517185 321.281768 
L 614.604174 322.078844 
L 611.875836 323.091548 
L 611.34344 323.019009 
L 610.621664 323.043331 
L 607.781693 321.727215 
L 605.278047 319.624373 
L 602.930532 318.11167 
L 601.075046 316.326588 
L 600.332695 316.121255 
L 598.349058 315.005834 
L 596.913624 313.521545 
L 596.431491 312.508706 
L 596.093884 310.45762 
L 594.885347 308.813706 
L 593.81379 307.725223 
L 593.108318 307.364777 
L 592.420503 306.811637 
L 592.107672 305.581161 
L 591.704494 304.967299 
L 590.903336 304.510515 
L 589.432304 303.344219 
L 588.27218 303.15966 
L 587.639612 302.372431 
L 587.655702 301.947253 
L 586.8156 301.354132 
L 586.640318 300.755867 
L 586.188229 298.609697 
L 586.54036 297.365868 
L 585.404087 295.179053 
L 584.02931 294.177453 
L 585.241335 293.642682 
L 586.576242 291.663413 
L 587.230952 290.212979 
L 586.992306 288.688383 
L 587.761498 287.290946 
L 588.103732 284.61594 
L 587.79916 281.798407 
L 587.79916 281.798407 
" style="fill:none;stroke:#000000;"/>
    <path clip-path="url(#p55b409b321)" d="M 462.63952 305.292202 
L 464.223885 304.929867 
L 464.802522 305.027429 
L 464.692305 307.10241 
L 462.391532 307.408518 
L 461.895557 307.158071 
L 462.694628 306.392538 
L 462.63952 305.292202 
" style="fill:none;stroke:#000000;"/>
    <path clip-path="url(#p55b409b321)" d="M 204.395916 278.985146 
L 204.885334 279.23379 
L 205.332428 279.617553 
L 206.034646 280.620673 
L 205.96835 280.779236 
L 204.891809 281.389825 
L 204.010241 281.836213 
L 203.607784 282.313877 
L 202.923118 281.905016 
L 203.001896 281.106379 
L 202.546122 280.06479 
L 202.683314 279.746116 
L 203.161655 279.278877 
L 202.971558 278.714988 
L 203.131345 278.447424 
L 203.34084 278.500538 
L 204.395916 278.985146 
" style="fill:none;stroke:#000000;"/>
    <path clip-path="url(#p55b409b321)" d="M 202.760521 277.020295 
L 202.530168 277.36546 
L 201.60658 277.571092 
L 201.131877 276.965775 
L 200.815169 276.731945 
L 200.790701 276.552248 
L 201.060649 276.305526 
L 202.040117 276.579036 
L 202.760521 277.020295 
" style="fill:none;stroke:#000000;"/>
    <path clip-path="url(#p55b409b321)" d="M 200.659295 275.832294 
L 200.573629 276.143625 
L 199.097056 276.060011 
L 199.303547 275.709174 
L 200.659295 275.832294 
" style="fill:none;stroke:#000000;"/>
    <path clip-path="url(#p55b409b321)" d="M 197.168292 274.274718 
L 197.398617 274.460161 
L 198.194326 275.413553 
L 198.044983 275.57998 
L 197.847777 275.542894 
L 196.888699 275.441596 
L 196.538403 274.787765 
L 196.431355 274.672561 
L 197.168292 274.274718 
" style="fill:none;stroke:#000000;"/>
    <path clip-path="url(#p55b409b321)" d="M 193.474682 272.835405 
L 193.531361 273.509067 
L 193.204569 273.795193 
L 192.276572 273.268157 
L 192.419137 273.057414 
L 192.839531 272.773944 
L 193.474682 272.835405 
" style="fill:none;stroke:#000000;"/>
    <path clip-path="url(#p55b409b321)" d="M 417.145183 264.107149 
L 417.974206 264.225433 
L 418.938602 266.656209 
L 418.953316 268.349627 
L 418.277302 268.494598 
L 417.577288 266.813569 
L 416.545577 265.967131 
L 417.145183 264.107149 
" style="fill:none;stroke:#000000;"/>
    <path clip-path="url(#p55b409b321)" d="M 414.970801 259.450826 
L 416.265847 259.213966 
L 418.084422 259.302801 
L 418.167085 260.072091 
L 415.16368 260.54496 
L 414.970801 259.450826 
" style="fill:none;stroke:#000000;"/>
    <path clip-path="url(#p55b409b321)" d="M 418.249747 258.710292 
L 420.426527 260.042523 
L 419.95108 262.140312 
L 419.444469 261.762642 
L 419.489685 260.219907 
L 418.255203 259.05059 
L 418.249747 258.710292 
" style="fill:none;stroke:#000000;"/>
    <path clip-path="url(#p55b409b321)" d="M 456.206006 194.981652 
L 457.171394 196.668118 
L 459.169623 197.132062 
L 461.724501 197.037798 
L 460.369304 198.451329 
L 459.348642 198.675726 
L 455.853478 197.212305 
L 455.165147 196.053329 
L 456.206006 194.981652 
" style="fill:none;stroke:#000000;"/>
    <path clip-path="url(#p55b409b321)" d="M 454.816559 184.9547 
L 455.769658 184.652353 
L 459.392839 185.552588 
L 462.210818 187.046851 
L 462.291497 187.700742 
L 460.949953 187.764422 
L 457.378712 186.646546 
L 454.816559 184.9547 
" style="fill:none;stroke:#000000;"/>
    <path clip-path="url(#p55b409b321)" d="M 411.29123 137.372647 
L 412.354835 136.092119 
L 413.48282 136.185759 
L 414.183247 137.061203 
L 413.103951 139.291928 
L 411.885946 138.932384 
L 411.162401 137.666559 
L 411.29123 137.372647 
" style="fill:none;stroke:#000000;"/>
    <path clip-path="url(#p55b409b321)" d="M 401.156048 135.804441 
L 403.203846 133.82097 
L 406.988385 133.862016 
L 406.929804 134.69697 
L 403.705084 137.05888 
L 401.759622 136.960439 
L 401.156048 135.804441 
" style="fill:none;stroke:#000000;"/>
    <path clip-path="url(#p55b409b321)" d="M 425.342274 113.466231 
L 423.551501 114.845576 
L 420.462706 115.078892 
L 419.775146 112.791728 
L 420.945482 110.145561 
L 423.470684 109.486471 
L 425.621866 110.800732 
L 425.652644 112.82023 
L 425.342274 113.466231 
" style="fill:none;stroke:#000000;"/>
    <path clip-path="url(#p55b409b321)" d="M 366.537726 102.763573 
L 369.044364 105.548941 
L 367.330983 107.239601 
L 363.616984 105.779454 
L 361.372953 106.307352 
L 357.610174 104.13029 
L 360.034913 102.61665 
L 361.96138 100.483857 
L 364.884476 101.880821 
L 366.537726 102.763573 
" style="fill:none;stroke:#000000;"/>
    <path clip-path="url(#p55b409b321)" d="M 339.079478 85.526001 
L 342.165927 87.641358 
L 343.895255 92.671719 
L 344.749667 96.248074 
L 349.377061 98.726646 
L 354.349467 101.072327 
L 354.050448 103.230812 
L 349.526429 103.623582 
L 351.284021 105.491304 
L 350.355566 107.259962 
L 345.368961 106.503587 
L 340.629643 105.198837 
L 337.426329 105.493054 
L 332.253174 107.129283 
L 325.270537 107.848943 
L 320.368509 108.301498 
L 318.875742 106.033525 
L 315.114479 104.713791 
L 312.667817 105.255973 
L 309.272994 101.389137 
L 311.106082 100.864094 
L 315.359346 100.019867 
L 319.243749 100.24239 
L 322.840382 99.380039 
L 317.511716 98.217045 
L 311.623812 98.613668 
L 307.716698 98.513512 
L 306.263037 96.669165 
L 312.653578 94.651712 
L 308.403161 94.722642 
L 303.591371 93.38499 
L 305.904001 89.537586 
L 307.822494 87.467174 
L 315.199656 84.265764 
L 318.015492 85.286465 
L 316.640074 87.744781 
L 322.77175 86.160479 
L 326.603468 88.798234 
L 329.717255 86.130344 
L 332.23514 87.846137 
L 334.489603 92.914464 
L 335.873849 90.78905 
L 333.916341 85.45467 
L 336.34096 84.681689 
L 339.079478 85.526001 
" style="fill:none;stroke:#000000;"/>
    <path clip-path="url(#p55b409b321)" d="M 412.777948 86.960167 
L 409.746258 84.167291 
L 409.862574 82.251831 
L 411.187453 81.896063 
L 417.493557 82.472131 
L 422.245102 85.385417 
L 422.489222 86.837195 
L 419.560119 86.684408 
L 416.591895 86.573733 
L 413.575866 87.277721 
L 412.777948 86.960167 
" style="fill:none;stroke:#000000;"/>
    <path clip-path="url(#p55b409b321)" d="M 360.972887 66.233347 
L 361.185056 65.478879 
L 363.291338 68.128796 
L 363.377224 71.026929 
L 362.121898 75.161257 
L 357.578947 75.725726 
L 354.617089 74.844954 
L 354.674259 71.602453 
L 350.157644 72.032774 
L 349.98286 67.673462 
L 352.947067 67.851176 
L 357.097454 65.902211 
L 360.972887 66.233347 
" style="fill:none;stroke:#000000;"/>
    <path clip-path="url(#p55b409b321)" d="M 368.028318 41.948078 
L 369.937769 39.988713 
L 372.762149 39.536512 
L 371.558027 38.049287 
L 377.96601 37.717428 
L 381.484541 41.171946 
L 390.640466 43.746385 
L 392.817246 47.893819 
L 396.139334 49.895916 
L 392.35553 51.724171 
L 387.264086 56.278265 
L 382.389787 56.708669 
L 376.679658 55.941655 
L 373.719011 53.480977 
L 373.761514 51.268445 
L 375.939656 49.629256 
L 370.900683 49.676487 
L 367.863786 47.613475 
L 366.118012 44.77313 
L 368.028318 41.948078 
" style="fill:none;stroke:#000000;"/>
    <path clip-path="url(#p55b409b321)" d="M 380.2332 33.523832 
L 384.330561 32.252193 
L 387.548144 32.034672 
L 392.954356 30.946806 
L 397.00548 28.424877 
L 400.422184 28.780408 
L 403.398048 30.674892 
L 405.492165 27.006234 
L 409.129316 25.907133 
L 414.070771 25.144363 
L 422.49309 24.857357 
L 423.956823 25.603618 
L 431.912401 24.433529 
L 437.879988 24.873122 
L 443.847574 25.311819 
L 451.21184 25.851961 
L 457.128685 26.731984 
L 462.171099 28.585962 
L 462.050191 30.394136 
L 455.326642 33.301263 
L 448.660131 34.644645 
L 446.168875 36.120262 
L 452.16808 36.086362 
L 445.666149 40.035718 
L 441.175646 41.855223 
L 436.463056 47.02058 
L 430.779181 48.054678 
L 429.023429 49.319944 
L 420.680769 49.981181 
L 424.479085 50.753276 
L 422.574485 51.847963 
L 424.853243 54.843614 
L 422.235348 56.902214 
L 417.978311 58.587506 
L 416.671747 60.896655 
L 412.822926 62.644562 
L 413.208298 63.958976 
L 417.916645 63.734848 
L 417.976658 65.14529 
L 410.613797 68.574244 
L 403.413506 67.003486 
L 395.319606 67.887363 
L 391.219104 67.197812 
L 386.009492 66.898573 
L 385.663907 64.139749 
L 390.757875 62.827096 
L 389.400529 58.586972 
L 391.081333 58.170053 
L 398.448382 60.719648 
L 394.69093 56.919904 
L 390.221863 55.770649 
L 392.453586 53.434464 
L 397.339767 51.983479 
L 398.121562 49.843381 
L 394.229838 47.418708 
L 393.060301 44.180818 
L 400.591821 44.45346 
L 402.767896 45.137587 
L 407.06763 42.828298 
L 400.863064 42.090764 
L 391.221997 42.497742 
L 386.351301 40.321433 
L 384.055019 37.700419 
L 380.837077 35.780426 
L 380.2332 33.523832 
" style="fill:none;stroke:#000000;"/>
    <path clip-path="url(#p55b409b321)" d="M 503.739902 28.590315 
L 512.990802 24.48955 
L 522.659314 24.801146 
L 526.173545 22.232385 
L 535.911934 21.558222 
L 557.920581 22.438183 
L 575.155909 27.917731 
L 570.068224 30.528998 
L 559.526797 30.825399 
L 544.695846 31.481758 
L 546.083309 32.676168 
L 555.836935 31.939124 
L 564.136748 34.236168 
L 569.485564 32.197549 
L 571.776776 34.583654 
L 568.751713 38.399024 
L 575.766951 35.967734 
L 589.145741 33.403064 
L 597.406482 34.687103 
L 598.954007 37.494624 
L 587.720777 42.090508 
L 586.164876 43.555989 
L 577.357901 44.651164 
L 583.739144 44.953949 
L 580.51627 49.506415 
L 578.298187 53.479323 
L 578.384873 60.132182 
L 581.693247 63.945715 
L 577.388789 64.184818 
L 572.857754 66.007702 
L 577.942518 69.027874 
L 578.590344 73.788346 
L 575.644197 74.30077 
L 579.213482 79.010403 
L 573.09257 79.399088 
L 576.287972 81.588648 
L 575.384747 83.471178 
L 571.499967 84.292483 
L 567.659686 84.307946 
L 571.111728 87.867334 
L 571.149119 90.177394 
L 565.6967 88.03102 
L 564.278707 89.421762 
L 567.99852 90.713399 
L 571.60853 93.84087 
L 572.653522 97.899073 
L 567.742073 98.859866 
L 565.617674 96.93381 
L 562.210904 94.034152 
L 563.153422 97.456132 
L 559.953253 100.073614 
L 567.214714 100.283679 
L 571.012781 100.55335 
L 563.627574 104.816703 
L 556.138074 108.612607 
L 548.074787 110.257236 
L 545.035727 110.277401 
L 542.185523 112.098684 
L 538.352986 117.020327 
L 532.426414 120.233915 
L 530.522586 120.421628 
L 526.854381 121.536913 
L 522.894378 122.593523 
L 520.533619 125.369134 
L 520.49554 128.478031 
L 519.101602 131.35577 
L 514.608398 134.819413 
L 515.718059 138.157519 
L 513.068064 145.701311 
L 509.185406 145.9526 
L 505.118024 142.566752 
L 499.609118 142.545258 
L 496.935978 140.246399 
L 495.09726 136.101703 
L 490.322508 130.72543 
L 488.925815 127.862803 
L 488.549838 123.861855 
L 484.733392 119.683572 
L 485.72548 116.295759 
L 483.886239 114.658642 
L 486.610548 109.151224 
L 490.757561 107.37152 
L 491.845813 105.354765 
L 492.422219 101.541222 
L 487.774656 104.003077 
L 485.299272 104.69619 
L 481.918182 103.105987 
L 481.734534 99.762208 
L 482.81237 97.110209 
L 485.368089 97.03781 
L 490.992378 98.367815 
L 483.789496 93.442982 
L 481.045707 94.158061 
L 478.745815 92.896257 
L 481.822211 88.091618 
L 480.146504 86.143574 
L 474.643137 76.752403 
L 471.13505 74.617185 
L 471.167095 72.292663 
L 463.773071 69.003527 
L 457.92321 68.590809 
L 450.559026 68.819535 
L 443.835505 69.235399 
L 440.637926 67.427441 
L 435.849782 63.812943 
L 443.085122 61.982817 
L 448.631061 61.673967 
L 436.840741 60.147733 
L 430.629837 57.730051 
L 431.009038 55.404511 
L 441.440855 52.490209 
L 451.533259 49.541266 
L 452.599055 47.282042 
L 445.161963 45.029075 
L 447.563833 42.500613 
L 457.103197 38.000477 
L 461.111806 37.301571 
L 459.963569 34.34581 
L 466.490243 32.595459 
L 474.963289 31.543897 
L 483.430741 31.484309 
L 486.437287 33.563453 
L 493.7465 29.872914 
L 500.322992 32.387172 
L 504.191653 32.913615 
L 509.914214 35.0713 
L 503.362658 31.483168 
L 503.739902 28.590315 
L 503.739902 28.590315 
" style="fill:none;stroke:#000000;"/>
    <path clip-path="url(#p55b409b321)" d="M 338.866176 82.749164 
L 342.558435 82.535811 
L 344.652552 83.706817 
L 342.227785 87.184658 
L 337.929334 83.494349 
L 338.866176 82.749164 
" style="fill:none;stroke:#000000;"/>
   </g>
   <g id="line2d_1">
    <defs>
     <path d="M 0 3 
C 0.795609 3 1.55874 2.683901 2.12132 2.12132 
C 2.683901 1.55874 3 0.795609 3 0 
C 3 -0.795609 2.683901 -1.55874 2.12132 -2.12132 
C 1.55874 -2.683901 0.795609 -3 0 -3 
C -0.795609 -3 -1.55874 -2.683901 -2.12132 -2.12132 
C -2.683901 -1.55874 -3 -0.795609 -3 0 
C -3 0.795609 -2.683901 1.55874 -2.12132 2.12132 
C -1.55874 2.683901 -0.795609 3 0 3 
z
" id="mc6ca762599" style="stroke:#ff0000;"/>
    </defs>
    <g clip-path="url(#p55b409b321)">
     <use style="fill:#ff0000;stroke:#ff0000;" x="450.598197" xlink:href="#mc6ca762599" y="283.777638"/>
     <use style="fill:#ff0000;stroke:#ff0000;" x="420.147631" xlink:href="#mc6ca762599" y="221.835604"/>
     <use style="fill:#ff0000;stroke:#ff0000;" x="376.316124" xlink:href="#mc6ca762599" y="212.628887"/>
     <use style="fill:#ff0000;stroke:#ff0000;" x="430.568116" xlink:href="#mc6ca762599" y="324.472027"/>
     <use style="fill:#ff0000;stroke:#ff0000;" x="402.874519" xlink:href="#mc6ca762599" y="197.117787"/>
     <use style="fill:#ff0000;stroke:#ff0000;" x="200.57558" xlink:href="#mc6ca762599" y="94.746029"/>
     <use style="fill:#ff0000;stroke:#ff0000;" x="291.941144" xlink:href="#mc6ca762599" y="219.463747"/>
     <use style="fill:#ff0000;stroke:#ff0000;" x="401.249098" xlink:href="#mc6ca762599" y="231.884575"/>
     <use style="fill:#ff0000;stroke:#ff0000;" x="279.652259" xlink:href="#mc6ca762599" y="178.614808"/>
     <use style="fill:#ff0000;stroke:#ff0000;" x="223.965276" xlink:href="#mc6ca762599" y="125.993014"/>
     <use style="fill:#ff0000;stroke:#ff0000;" x="433.724997" xlink:href="#mc6ca762599" y="210.232955"/>
     <use style="fill:#ff0000;stroke:#ff0000;" x="386.314461" xlink:href="#mc6ca762599" y="187.78994"/>
     <use style="fill:#ff0000;stroke:#ff0000;" x="324.249514" xlink:href="#mc6ca762599" y="214.904675"/>
     <use style="fill:#ff0000;stroke:#ff0000;" x="324.667235" xlink:href="#mc6ca762599" y="214.99328"/>
     <use style="fill:#ff0000;stroke:#ff0000;" x="631.568328" xlink:href="#mc6ca762599" y="177.938342"/>
     <use style="fill:#ff0000;stroke:#ff0000;" x="330.76332" xlink:href="#mc6ca762599" y="224.973586"/>
     <use style="fill:#ff0000;stroke:#ff0000;" x="366.947735" xlink:href="#mc6ca762599" y="214.828852"/>
     <use style="fill:#ff0000;stroke:#ff0000;" x="327.119281" xlink:href="#mc6ca762599" y="201.089616"/>
     <use style="fill:#ff0000;stroke:#ff0000;" x="453.491534" xlink:href="#mc6ca762599" y="284.924607"/>
     <use style="fill:#ff0000;stroke:#ff0000;" x="397.331446" xlink:href="#mc6ca762599" y="205.160231"/>
     <use style="fill:#ff0000;stroke:#ff0000;" x="366.4609" xlink:href="#mc6ca762599" y="221.159366"/>
     <use style="fill:#ff0000;stroke:#ff0000;" x="497.465239" xlink:href="#mc6ca762599" y="342.182751"/>
     <use style="fill:#ff0000;stroke:#ff0000;" x="386.44075" xlink:href="#mc6ca762599" y="207.719648"/>
     <use style="fill:#ff0000;stroke:#ff0000;" x="330.829175" xlink:href="#mc6ca762599" y="225.117029"/>
     <use style="fill:#ff0000;stroke:#ff0000;" x="200.575343" xlink:href="#mc6ca762599" y="94.746358"/>
     <use style="fill:#ff0000;stroke:#ff0000;" x="330.530212" xlink:href="#mc6ca762599" y="203.800776"/>
     <use style="fill:#ff0000;stroke:#ff0000;" x="385.614941" xlink:href="#mc6ca762599" y="204.80875"/>
     <use style="fill:#ff0000;stroke:#ff0000;" x="327.924414" xlink:href="#mc6ca762599" y="199.817819"/>
     <use style="fill:#ff0000;stroke:#ff0000;" x="685.084356" xlink:href="#mc6ca762599" y="109.1874"/>
     <use style="fill:#ff0000;stroke:#ff0000;" x="397.280581" xlink:href="#mc6ca762599" y="210.711496"/>
     <use style="fill:#ff0000;stroke:#ff0000;" x="366.397594" xlink:href="#mc6ca762599" y="221.523928"/>
     <use style="fill:#ff0000;stroke:#ff0000;" x="366.461129" xlink:href="#mc6ca762599" y="221.159404"/>
     <use style="fill:#ff0000;stroke:#ff0000;" x="200.575522" xlink:href="#mc6ca762599" y="94.746105"/>
     <use style="fill:#ff0000;stroke:#ff0000;" x="296.372789" xlink:href="#mc6ca762599" y="225.276423"/>
     <use style="fill:#ff0000;stroke:#ff0000;" x="291.90863" xlink:href="#mc6ca762599" y="219.493408"/>
     <use style="fill:#ff0000;stroke:#ff0000;" x="397.140496" xlink:href="#mc6ca762599" y="210.474947"/>
     <use style="fill:#ff0000;stroke:#ff0000;" x="624.82338" xlink:href="#mc6ca762599" y="161.976406"/>
     <use style="fill:#ff0000;stroke:#ff0000;" x="291.878872" xlink:href="#mc6ca762599" y="219.529063"/>
     <use style="fill:#ff0000;stroke:#ff0000;" x="370.415704" xlink:href="#mc6ca762599" y="246.501362"/>
     <use style="fill:#ff0000;stroke:#ff0000;" x="293.491482" xlink:href="#mc6ca762599" y="221.872031"/>
     <use style="fill:#ff0000;stroke:#ff0000;" x="401.356835" xlink:href="#mc6ca762599" y="231.519474"/>
     <use style="fill:#ff0000;stroke:#ff0000;" x="401.246894" xlink:href="#mc6ca762599" y="231.884889"/>
     <use style="fill:#ff0000;stroke:#ff0000;" x="200.57712" xlink:href="#mc6ca762599" y="94.744414"/>
     <use style="fill:#ff0000;stroke:#ff0000;" x="201.067758" xlink:href="#mc6ca762599" y="94.698756"/>
     <use style="fill:#ff0000;stroke:#ff0000;" x="291.878784" xlink:href="#mc6ca762599" y="219.528816"/>
     <use style="fill:#ff0000;stroke:#ff0000;" x="201.099445" xlink:href="#mc6ca762599" y="94.780231"/>
     <use style="fill:#ff0000;stroke:#ff0000;" x="335.607614" xlink:href="#mc6ca762599" y="220.122824"/>
     <use style="fill:#ff0000;stroke:#ff0000;" x="459.587895" xlink:href="#mc6ca762599" y="363.174545"/>
     <use style="fill:#ff0000;stroke:#ff0000;" x="414.777922" xlink:href="#mc6ca762599" y="231.70992"/>
     <use style="fill:#ff0000;stroke:#ff0000;" x="366.405469" xlink:href="#mc6ca762599" y="221.511328"/>
     <use style="fill:#ff0000;stroke:#ff0000;" x="324.713526" xlink:href="#mc6ca762599" y="234.4519"/>
     <use style="fill:#ff0000;stroke:#ff0000;" x="292.366305" xlink:href="#mc6ca762599" y="220.017515"/>
     <use style="fill:#ff0000;stroke:#ff0000;" x="330.782608" xlink:href="#mc6ca762599" y="225.372477"/>
     <use style="fill:#ff0000;stroke:#ff0000;" x="386.444578" xlink:href="#mc6ca762599" y="207.718717"/>
     <use style="fill:#ff0000;stroke:#ff0000;" x="200.575492" xlink:href="#mc6ca762599" y="94.746206"/>
     <use style="fill:#ff0000;stroke:#ff0000;" x="397.353214" xlink:href="#mc6ca762599" y="210.749314"/>
     <use style="fill:#ff0000;stroke:#ff0000;" x="400.053512" xlink:href="#mc6ca762599" y="209.418764"/>
     <use style="fill:#ff0000;stroke:#ff0000;" x="451.517002" xlink:href="#mc6ca762599" y="283.864494"/>
     <use style="fill:#ff0000;stroke:#ff0000;" x="300.180117" xlink:href="#mc6ca762599" y="222.235761"/>
     <use style="fill:#ff0000;stroke:#ff0000;" x="386.33972" xlink:href="#mc6ca762599" y="207.689876"/>
     <use style="fill:#ff0000;stroke:#ff0000;" x="430.91089" xlink:href="#mc6ca762599" y="323.852217"/>
     <use style="fill:#ff0000;stroke:#ff0000;" x="397.283739" xlink:href="#mc6ca762599" y="210.712904"/>
     <use style="fill:#ff0000;stroke:#ff0000;" x="200.515644" xlink:href="#mc6ca762599" y="94.845386"/>
     <use style="fill:#ff0000;stroke:#ff0000;" x="412.591222" xlink:href="#mc6ca762599" y="309.886732"/>
     <use style="fill:#ff0000;stroke:#ff0000;" x="330.343824" xlink:href="#mc6ca762599" y="222.766465"/>
     <use style="fill:#ff0000;stroke:#ff0000;" x="201.067758" xlink:href="#mc6ca762599" y="94.703314"/>
     <use style="fill:#ff0000;stroke:#ff0000;" x="430.8905" xlink:href="#mc6ca762599" y="323.363964"/>
     <use style="fill:#ff0000;stroke:#ff0000;" x="335.614783" xlink:href="#mc6ca762599" y="220.138234"/>
     <use style="fill:#ff0000;stroke:#ff0000;" x="366.213141" xlink:href="#mc6ca762599" y="214.82163"/>
     <use style="fill:#ff0000;stroke:#ff0000;" x="363.306451" xlink:href="#mc6ca762599" y="248.692388"/>
     <use style="fill:#ff0000;stroke:#ff0000;" x="291.939215" xlink:href="#mc6ca762599" y="219.460667"/>
     <use style="fill:#ff0000;stroke:#ff0000;" x="429.464296" xlink:href="#mc6ca762599" y="200.145386"/>
     <use style="fill:#ff0000;stroke:#ff0000;" x="366.434765" xlink:href="#mc6ca762599" y="221.166937"/>
     <use style="fill:#ff0000;stroke:#ff0000;" x="331.868243" xlink:href="#mc6ca762599" y="238.892061"/>
    </g>
   </g>
   <g id="patch_3">
    <path d="M 176.287208 378 
L 176.287208 51.84 
L 709.312792 51.84 
L 709.312792 378 
L 176.287208 378 
" style="fill:none;stroke:#000000;stroke-linejoin:miter;"/>
   </g>
  </g>
 </g>
 <defs>
  <clipPath id="p55b409b321">
   <rect height="326.16" width="533.025583" x="176.287208" y="51.84"/>
  </clipPath>
 </defs>
</svg>
