<?xml version="1.0" encoding="utf-8" standalone="no"?>
<!DOCTYPE svg PUBLIC "-//W3C//DTD SVG 1.1//EN"
  "http://www.w3.org/Graphics/SVG/1.1/DTD/svg11.dtd">
<!-- Created with matplotlib (http://matplotlib.org/) -->
<svg height="432pt" version="1.1" viewBox="0 0 864 432" width="864pt" xmlns="http://www.w3.org/2000/svg" xmlns:xlink="http://www.w3.org/1999/xlink">
 <defs>
  <style type="text/css">
*{stroke-linecap:butt;stroke-linejoin:round;}
  </style>
 </defs>
 <g id="figure_1">
  <g id="patch_1">
   <path d="M 0 432 
L 864 432 
L 864 0 
L 0 0 
z
" style="fill:#ffffff;"/>
  </g>
  <g id="axes_1">
   <g id="patch_2">
    <path d="M 197.211718 378 
L 197.211718 51.84 
L 688.388282 51.84 
L 688.388282 378 
L 197.211718 378 
" style="fill:#ffffff;"/>
   </g>
   <g id="PathCollection_1">
    <path clip-path="url(#p513a80c879)" d="M 601.95559 185.401317 
L 602.374284 187.873782 
L 600.455064 190.933132 
L 595.953878 192.938336 
L 592.359884 192.426722 
L 594.418581 188.866077 
L 593.092565 185.353337 
L 596.547082 182.615657 
L 598.466171 180.969156 
L 600.594738 180.823297 
L 603.316377 183.001605 
L 601.95559 185.401317 
" style="fill:none;stroke:#000000;"/>
    <path clip-path="url(#p513a80c879)" d="M 380.001946 97.875371 
L 378.620297 99.833824 
L 374.934127 99.458767 
L 371.856119 98.141039 
L 373.207787 95.846315 
L 376.858398 94.461101 
L 379.075204 96.262767 
L 380.001946 97.875371 
" style="fill:none;stroke:#000000;"/>
    <path clip-path="url(#p513a80c879)" d="M 379.424947 84.567444 
L 378.268127 84.722442 
L 373.509768 84.377346 
L 372.832721 82.857816 
L 377.945742 82.937597 
L 379.727978 83.947825 
L 379.424947 84.567444 
" style="fill:none;stroke:#000000;"/>
    <path clip-path="url(#p513a80c879)" d="M 372.025053 77.712883 
L 375.059564 79.648021 
L 374.371429 81.641198 
L 370.614734 82.77067 
L 368.546787 81.498901 
L 367.45859 79.427361 
L 367.257706 77.118265 
L 370.545192 77.342301 
L 372.025053 77.712883 
" style="fill:none;stroke:#000000;"/>
    <path clip-path="url(#p513a80c879)" d="M 393.871449 100.837365 
L 389.772425 100.219629 
L 383.024255 98.5961 
L 382.146127 95.800227 
L 381.837322 93.2429 
L 379.288291 90.964886 
L 374.035858 90.323111 
L 371.09326 88.686843 
L 372.048605 86.498879 
L 377.28175 86.839063 
L 380.100551 88.553034 
L 385.099747 88.541239 
L 387.291426 90.279865 
L 386.712983 92.247507 
L 389.626387 93.423833 
L 391.239099 94.65217 
L 394.663831 94.878721 
L 398.368567 95.309581 
L 402.40461 94.192724 
L 407.574643 93.752596 
L 411.700434 94.116363 
L 414.419843 96.056232 
L 414.987526 98.163828 
L 413.40355 99.506922 
L 409.617594 100.586215 
L 406.367438 99.976182 
L 399.083928 100.748636 
L 393.871449 100.837365 
" style="fill:none;stroke:#000000;"/>
    <path clip-path="url(#p513a80c879)" d="M 335.18284 81.113368 
L 338.762926 81.973641 
L 337.918716 83.607326 
L 333.185222 85.165967 
L 329.419538 83.415916 
L 331.475414 81.67353 
L 335.18284 81.113368 
" style="fill:none;stroke:#000000;"/>
    <path clip-path="url(#p513a80c879)" d="M 335.946552 77.496635 
L 339.248668 78.627555 
L 336.155637 79.711023 
L 331.938785 79.705726 
L 331.97992 78.913765 
L 334.584716 77.241327 
L 335.946552 77.496635 
" style="fill:none;stroke:#000000;"/>
    <path clip-path="url(#p513a80c879)" d="M 449.39591 289.717508 
L 450.693716 289.948806 
L 451.15151 290.470158 
L 450.501099 291.131343 
L 448.589751 291.115833 
L 447.106348 291.208277 
L 446.958408 290.085827 
L 447.318319 289.702171 
L 449.39591 289.717508 
" style="fill:none;stroke:#000000;"/>
    <path clip-path="url(#p513a80c879)" d="M 420.736854 289.781158 
L 422.445612 290.016574 
L 423.794524 290.646795 
L 424.215252 291.364694 
L 422.430523 291.413509 
L 421.6592 291.851272 
L 420.238122 291.430908 
L 418.786537 290.475581 
L 419.091209 289.875673 
L 420.158543 289.692671 
L 420.736854 289.781158 
" style="fill:none;stroke:#000000;"/>
    <path clip-path="url(#p513a80c879)" d="M 408.806843 277.326257 
L 410.999834 277.517289 
L 412.994763 277.54745 
L 415.379584 278.45886 
L 416.390235 279.436627 
L 418.76187 279.1351 
L 419.661057 279.76212 
L 421.811339 281.411676 
L 423.392166 282.610149 
L 424.228045 282.573658 
L 425.742348 283.114839 
L 425.557406 283.861156 
L 427.429128 283.970263 
L 429.348348 285.053411 
L 429.047154 285.672645 
L 427.358799 286.007936 
L 425.649779 286.139058 
L 423.900411 285.930151 
L 420.264889 286.187352 
L 421.967021 284.712982 
L 420.932227 284.025357 
L 419.295438 283.848286 
L 418.418097 283.083038 
L 417.816234 281.570544 
L 416.381313 281.674075 
L 414.01368 280.960749 
L 413.251805 280.402178 
L 409.942341 279.989143 
L 409.056078 279.468895 
L 410.008209 278.801806 
L 407.517631 278.665052 
L 405.693146 280.051894 
L 404.641098 280.089088 
L 404.277119 280.739117 
L 403.020579 281.030208 
L 401.934154 280.77785 
L 403.274406 279.954768 
L 403.824639 278.992007 
L 404.972602 278.397872 
L 406.269292 277.876556 
L 408.191661 277.620424 
L 408.806843 277.326257 
" style="fill:none;stroke:#000000;"/>
    <path clip-path="url(#p513a80c879)" d="M 476.518948 194.126856 
L 475.16354 196.240264 
L 473.483058 199.148061 
L 475.140513 198.028625 
L 476.845794 198.739296 
L 475.954807 199.89182 
L 478.20763 200.794604 
L 479.37908 199.992204 
L 481.91112 201.004553 
L 481.125364 203.400938 
L 482.902417 202.843103 
L 483.226114 204.570433 
L 484.014625 206.581002 
L 482.94552 209.404275 
L 481.797098 209.523052 
L 480.127703 208.919938 
L 480.678854 206.291856 
L 479.971431 205.881564 
L 477.025356 208.670611 
L 475.510265 208.559438 
L 477.303522 207.051198 
L 474.86707 206.268178 
L 472.139001 206.460878 
L 467.211184 206.362377 
L 466.821488 205.40565 
L 468.403102 204.264019 
L 467.298504 203.380056 
L 469.430876 201.410255 
L 472.054042 196.135773 
L 473.628374 194.226626 
L 475.831469 193.064126 
L 477.00961 193.212205 
L 476.518948 194.126856 
" style="fill:none;stroke:#000000;"/>
    <path clip-path="url(#p513a80c879)" d="M 404.707556 142.928192 
L 407.487978 144.340912 
L 410.396658 145.616972 
L 410.621553 147.551195 
L 412.49052 147.235528 
L 414.303196 148.576313 
L 412.049586 149.842207 
L 408.09837 148.875607 
L 406.672372 147.055404 
L 404.154568 149.205698 
L 400.541483 151.277329 
L 399.669653 148.93388 
L 396.228651 149.320196 
L 398.435681 147.323337 
L 398.760362 144.109882 
L 399.626288 140.313532 
L 401.460877 140.653887 
L 401.931989 142.481888 
L 403.231369 141.842347 
L 404.707556 142.928192 
" style="fill:none;stroke:#000000;"/>
    <path clip-path="url(#p513a80c879)" d="M 417.687319 110.809665 
L 420.089329 108.903273 
L 425.722994 111.327301 
L 429.219893 113.585712 
L 429.548641 115.63294 
L 434.263503 114.574526 
L 436.909762 117.543102 
L 443.039011 119.363935 
L 445.250765 121.206522 
L 447.652578 125.425899 
L 442.990594 127.496691 
L 448.970787 130.367209 
L 453.001713 131.324366 
L 456.651341 135.286104 
L 460.6452 135.569447 
L 459.855049 138.545139 
L 455.398278 143.386208 
L 452.27415 141.616959 
L 448.2818 137.583652 
L 444.996741 138.113103 
L 444.676128 140.518194 
L 447.346332 142.932997 
L 450.793305 144.826215 
L 451.839186 145.912497 
L 453.491523 149.915679 
L 452.617069 152.780349 
L 449.414673 151.704655 
L 443.046293 148.496896 
L 446.635301 151.947819 
L 449.279461 154.336545 
L 449.692643 155.706866 
L 442.807161 154.139384 
L 437.358109 151.841478 
L 434.280889 149.895992 
L 435.167283 148.761725 
L 431.3789 146.681291 
L 427.681709 144.700376 
L 427.722122 145.886566 
L 420.38042 146.536587 
L 418.232434 145.135439 
L 419.904847 142.10202 
L 424.675801 142.028286 
L 429.902451 141.497521 
L 429.054173 140.008251 
L 429.94024 137.911075 
L 433.225167 133.759346 
L 432.527191 131.84828 
L 431.548228 130.357278 
L 427.659141 128.227995 
L 422.515482 126.72317 
L 424.141642 125.596949 
L 421.453462 122.804885 
L 419.215859 122.547383 
L 417.213517 121.001887 
L 415.854567 122.342242 
L 411.251168 122.923953 
L 402.010847 121.91239 
L 396.639931 120.577182 
L 392.522274 119.887935 
L 390.410503 118.272929 
L 393.065618 116.158408 
L 389.459028 116.138064 
L 388.654115 111.368289 
L 390.605613 107.06515 
L 393.216642 105.070901 
L 399.772785 103.76231 
L 397.90395 106.92911 
L 399.904258 109.939074 
L 402.251028 106.038124 
L 408.686391 104.023095 
L 413.042195 109.062571 
L 412.664243 112.191558 
L 417.687319 110.809665 
" style="fill:none;stroke:#000000;"/>
    <path clip-path="url(#p513a80c879)" d="M 377.739872 102.121687 
L 383.030422 102.295133 
L 387.880628 103.500949 
L 384.0868 107.856928 
L 381.059374 108.79543 
L 378.335569 112.368527 
L 375.43896 112.191681 
L 373.854853 107.982625 
L 373.89415 105.563156 
L 375.220757 103.472854 
L 377.739872 102.121687 
" style="fill:none;stroke:#000000;"/>
    <path clip-path="url(#p513a80c879)" d="M 362.671168 109.113819 
L 359.874012 105.941791 
L 362.879203 103.564532 
L 365.907219 104.601896 
L 370.436599 103.978478 
L 371.096761 105.403685 
L 368.726283 107.739293 
L 372.569429 109.814969 
L 372.112394 114.090254 
L 367.949187 115.903546 
L 365.50355 115.513568 
L 363.746572 113.721858 
L 357.487274 110.184466 
L 357.487274 108.515606 
L 362.671168 109.113819 
" style="fill:none;stroke:#000000;"/>
    <path clip-path="url(#p513a80c879)" d="M 343.930006 93.435488 
L 346.191096 92.566292 
L 348.851853 92.792296 
L 349.298757 95.32445 
L 347.75375 97.74707 
L 339.155115 98.53414 
L 332.748815 100.713962 
L 328.887544 100.827536 
L 328.563716 99.189417 
L 333.837733 96.947028 
L 322.366172 97.553158 
L 318.816002 96.64225 
L 322.280295 91.594685 
L 324.669971 90.125713 
L 331.815709 91.896117 
L 336.326014 94.96624 
L 340.762053 95.356839 
L 337.130795 90.38402 
L 339.456965 88.458109 
L 342.078618 89.072417 
L 342.934746 91.580763 
L 343.930006 93.435488 
" style="fill:none;stroke:#000000;"/>
    <path clip-path="url(#p513a80c879)" d="M 305.753642 92.025632 
L 310.063457 88.084157 
L 315.277707 84.609525 
L 319.172174 84.684717 
L 322.654639 83.888355 
L 322.306209 88.018031 
L 320.350512 89.856045 
L 317.97809 90.113599 
L 313.258177 92.355798 
L 309.193923 93.152776 
L 305.753642 92.025632 
" style="fill:none;stroke:#000000;"/>
    <path clip-path="url(#p513a80c879)" d="M 309.097746 100.553716 
L 312.723821 101.591474 
L 319.208979 101.868586 
L 321.674954 103.306506 
L 324.400989 105.378188 
L 321.209024 106.610465 
L 314.983019 110.006799 
L 311.834555 113.33638 
L 311.834555 115.386399 
L 305.151188 117.628128 
L 303.811052 115.590159 
L 297.948439 113.106451 
L 299.037575 111.09572 
L 300.796424 107.584072 
L 302.998545 104.372595 
L 300.515971 101.335157 
L 309.097746 100.553716 
" style="fill:none;stroke:#000000;"/>
    <path clip-path="url(#p513a80c879)" d="M 195.016936 161.684568 
L 197.031349 162.030038 
L 197.273236 163.488032 
L 195.71524 164.076737 
L 194.0507 163.368945 
L 192.509629 162.336854 
L 195.016936 161.684568 
" style="fill:none;stroke:#000000;"/>
    <path clip-path="url(#p513a80c879)" d="M 228.63202 170.735586 
L 230.317816 170.984217 
L 231.393482 172.122726 
L 229.196751 173.856056 
L 226.660775 175.237841 
L 225.36251 174.303108 
L 224.969993 172.597574 
L 227.276022 171.295989 
L 228.63202 170.735586 
" style="fill:none;stroke:#000000;"/>
    <path clip-path="url(#p513a80c879)" d="M 280.730765 184.801037 
L 283.168333 184.522112 
L 282.407901 188.453894 
L 284.618015 191.204437 
L 283.605461 191.197843 
L 282.075413 189.637011 
L 281.137059 188.056914 
L 279.855786 186.982508 
L 279.38592 185.45863 
L 279.537403 184.347724 
L 280.730765 184.801037 
" style="fill:none;stroke:#000000;"/>
    <path clip-path="url(#p513a80c879)" d="M 299.253395 198.69231 
L 300.508295 200.260546 
L 303.042959 201.617212 
L 304.090349 203.422996 
L 302.813471 203.876092 
L 298.643987 202.394809 
L 297.882308 201.231654 
L 295.609803 200.080203 
L 295.152796 199.139174 
L 292.539209 198.543341 
L 291.561033 196.733956 
L 291.779827 195.96064 
L 294.445439 196.689135 
L 296.00337 197.194687 
L 298.390094 197.547088 
L 299.253395 198.69231 
" style="fill:none;stroke:#000000;"/>
    <path clip-path="url(#p513a80c879)" d="M 349.838821 74.692795 
L 354.823059 75.465037 
L 361.689056 77.518921 
L 363.631369 80.165779 
L 364.619714 82.459575 
L 360.473388 81.849428 
L 356.294391 80.063761 
L 350.641568 79.858429 
L 353.093569 78.206862 
L 350.023434 76.857691 
L 349.838821 74.692795 
" style="fill:none;stroke:#000000;"/>
    <path clip-path="url(#p513a80c879)" d="M 684.445045 243.76473 
L 684.127646 244.614008 
L 680.471327 244.858396 
L 680.496782 244.38389 
L 677.399027 243.822364 
L 677.868761 242.595642 
L 679.25684 243.568602 
L 681.233137 243.404278 
L 683.122703 243.608983 
L 683.061296 244.110409 
L 684.445045 243.76473 
" style="fill:none;stroke:#000000;"/>
    <path clip-path="url(#p513a80c879)" d="M 639.807929 227.258715 
L 641.077524 226.321818 
L 642.600881 228.463674 
L 642.24425 232.418223 
L 641.089727 232.230592 
L 640.05408 233.222236 
L 639.092699 232.434661 
L 638.991011 228.82945 
L 638.411453 227.107714 
L 639.807929 227.258715 
" style="fill:none;stroke:#000000;"/>
    <path clip-path="url(#p513a80c879)" d="M 639.899383 222.001887 
L 641.534531 220.82882 
L 641.966215 223.457017 
L 641.127647 225.806884 
L 639.974829 225.189165 
L 639.387005 223.139303 
L 639.899383 222.001887 
" style="fill:none;stroke:#000000;"/>
    <path clip-path="url(#p513a80c879)" d="M 649.103293 177.481329 
L 649.91352 179.272121 
L 648.390032 182.139109 
L 645.733013 180.143103 
L 645.378482 178.666489 
L 649.103293 177.481329 
" style="fill:none;stroke:#000000;"/>
    <path clip-path="url(#p513a80c879)" d="M 606.999201 168.585159 
L 610.062579 168.272583 
L 607.348746 172.26189 
L 609.935632 171.760273 
L 612.71776 171.779402 
L 612.055801 174.748067 
L 609.773128 177.974051 
L 612.398524 178.202146 
L 614.861481 182.754533 
L 616.599499 183.317998 
L 618.162219 187.281177 
L 618.885847 188.641602 
L 621.962083 189.295166 
L 621.653476 191.478021 
L 620.36 192.473112 
L 621.373865 194.219929 
L 619.08988 195.97706 
L 615.692964 195.94612 
L 611.370225 196.864416 
L 610.18631 196.20728 
L 608.507534 197.768724 
L 606.15873 197.391322 
L 604.374985 198.659184 
L 603.025351 197.99688 
L 606.749113 194.487145 
L 609.021946 193.759826 
L 605.036813 193.19466 
L 604.318434 191.846966 
L 606.971647 190.792622 
L 605.581075 188.950584 
L 606.063537 186.693608 
L 609.841488 187.006799 
L 610.214914 184.992673 
L 608.47565 182.789558 
L 605.392787 182.170942 
L 604.787578 181.216637 
L 605.710317 179.633189 
L 604.875292 178.652109 
L 603.508207 180.333582 
L 603.359414 176.894311 
L 602.077222 175.055805 
L 602.999306 171.28764 
L 604.971732 168.291116 
L 606.999201 168.585159 
" style="fill:none;stroke:#000000;"/>
    <path clip-path="url(#p513a80c879)" d="M 580.853749 137.296469 
L 580.267368 140.020902 
L 583.136292 142.857713 
L 579.835226 145.988584 
L 572.510975 148.766722 
L 570.322773 149.500452 
L 566.980047 148.908179 
L 559.895453 147.629888 
L 562.39515 145.833432 
L 556.868683 143.829278 
L 561.364489 143.030028 
L 561.255256 141.814024 
L 555.926327 140.846179 
L 557.641908 138.113975 
L 561.490123 137.488767 
L 565.447637 140.341393 
L 569.305627 138.054433 
L 572.500347 139.24494 
L 576.641096 136.995884 
L 580.853749 137.296469 
" style="fill:none;stroke:#000000;"/>
    <path clip-path="url(#p513a80c879)" d="M 421.285906 315.191463 
L 422.597816 315.272684 
L 424.502866 313.486167 
L 425.548419 313.213599 
L 425.573545 312.366169 
L 426.041443 310.198734 
L 427.497686 309.006805 
L 429.09767 308.958001 
L 429.299603 308.422216 
L 431.286331 308.636772 
L 434.273738 306.76246 
L 435.50292 305.521292 
L 436.402436 305.679206 
L 437.068593 306.357016 
L 436.5757 307.22395 
L 436.503534 307.831949 
L 435.012979 308.132137 
L 435.841182 309.298658 
L 435.810216 310.641495 
L 434.690201 312.131262 
L 435.65132 314.163487 
L 436.74588 313.997213 
L 437.316056 312.145767 
L 436.528726 311.243309 
L 436.400402 309.299919 
L 439.562385 308.255061 
L 439.210609 307.042384 
L 440.100808 306.229955 
L 441.012198 308.038707 
L 442.79286 308.080439 
L 444.442573 309.513718 
L 444.541965 310.363892 
L 446.821752 310.386442 
L 449.534469 310.122647 
L 450.988415 311.271874 
L 452.930269 311.588836 
L 454.354628 310.7875 
L 454.383756 310.141155 
L 457.528879 309.986317 
L 460.571656 309.950623 
L 458.415535 310.708797 
L 459.282904 311.919631 
L 461.313522 312.112253 
L 463.238581 313.372157 
L 463.643169 315.422492 
L 464.96643 315.364738 
L 467.628434 316.90757 
L 469.19942 318.571357 
L 469.270733 319.885176 
L 470.227391 319.94561 
L 472.590432 322.076633 
L 475.632553 322.586855 
L 475.905603 322.127654 
L 477.958527 321.943775 
L 481.550815 322.908688 
L 483.420372 323.511428 
L 486.108749 325.659845 
L 486.529083 326.701622 
L 487.437586 326.793755 
L 488.02213 327.987892 
L 489.446292 332.431775 
L 490.804192 332.851063 
L 490.872684 334.604114 
L 488.962911 336.694395 
L 489.752669 337.459748 
L 494.240865 337.858499 
L 494.33245 340.403618 
L 496.260986 338.737364 
L 499.456099 339.649987 
L 503.673213 341.200876 
L 504.912499 342.689304 
L 504.496167 344.095636 
L 507.448606 343.312603 
L 512.390004 344.656467 
L 516.183373 344.557453 
L 519.936854 346.66102 
L 523.179596 349.510609 
L 525.13549 350.244791 
L 527.306766 350.346873 
L 528.226947 351.149988 
L 529.510188 355.938375 
L 528.499078 360.163494 
L 527.207308 361.835361 
L 523.628337 365.40558 
L 522.010705 368.314083 
L 520.131111 370.549825 
L 519.496313 370.600257 
L 518.786922 372.501623 
L 518.96714 377.361641 
L 517.989489 383.106346 
L 517.186676 384.140877 
L 516.736492 387.657353 
L 514.162071 391.108998 
L 513.730387 393.853236 
L 511.675233 395.008398 
L 511.080783 396.609881 
L 508.322273 396.603521 
L 504.32802 397.63254 
L 502.539683 398.82622 
L 499.696018 399.611425 
L 496.707824 401.757344 
L 494.558526 404.442559 
L 494.188971 406.47318 
L 494.611141 407.980509 
L 494.13688 410.74986 
L 493.560668 412.093356 
L 491.786173 413.613236 
L 488.968947 418.508277 
L 486.736199 420.732493 
L 485.00999 422.049314 
L 483.852121 424.740559 
L 482.17236 426.366927 
L 481.073536 428.162048 
L 478.205793 429.756619 
L 476.331382 429.182143 
L 474.957211 429.489909 
L 472.610113 428.258374 
L 470.888169 428.350283 
L 469.341325 426.769206 
L 469.167733 428.261333 
L 472.391385 430.721933 
L 472.044726 432.713775 
L 472.403877 433 
L 472.403877 433 
" style="fill:none;stroke:#000000;"/>
    <path clip-path="url(#p513a80c879)" d="M 419.944735 318.887635 
L 420.972837 320.2465 
L 421.37362 322.402225 
L 420.829226 323.070969 
L 421.402093 325.39977 
L 420.923042 326.876159 
L 421.858903 327.481314 
L 420.88709 328.815042 
L 419.817854 330.412046 
L 418.558296 330.58241 
L 417.962862 331.502605 
L 418.075309 332.775069 
L 417.127967 332.965643 
L 417.472461 333.754073 
L 415.726833 334.764732 
L 414.335802 335.309429 
L 414.512806 336.345634 
L 413.551949 337.980919 
L 413.084642 339.562725 
L 412.19523 339.945634 
L 412.623961 342.250617 
L 412.108631 342.966682 
L 413.629495 344.080011 
L 414.599995 342.900257 
L 415.149112 344.009764 
L 413.797641 345.909044 
L 411.773715 347.514742 
L 410.983367 349.29639 
L 412.213796 351.724596 
L 411.392023 352.861608 
L 413.201157 353.893554 
L 415.17378 355.558401 
L 415.972722 357.438899 
L 417.011124 358.603598 
L 419.410051 363.703143 
L 421.913487 368.446821 
L 424.063966 371.833578 
L 423.646978 372.578761 
L 424.698829 374.718441 
L 426.657281 376.318292 
L 431.210754 379.164351 
L 436.244458 381.786259 
L 436.464827 382.860089 
L 439.010709 384.365729 
L 439.539226 388.07246 
L 439.725021 392.406275 
L 438.930999 398.375571 
L 438.115983 403.978343 
L 437.658517 409.251794 
L 436.173735 412.610126 
L 436.477948 416.029604 
L 435.719681 418.329824 
L 436.304356 422.538975 
L 435.229608 426.768174 
L 433.474074 431.358818 
L 432.929003 433 
" style="fill:none;stroke:#000000;"/>
    <path clip-path="url(#p513a80c879)" d="M 687.282478 70.360442 
L 683.517385 73.461082 
L 676.153574 74.132981 
L 668.665113 73.180996 
L 668.213355 71.598413 
L 664.569763 71.497375 
L 661.791375 68.83185 
L 669.632005 67.192797 
L 673.318634 68.605015 
L 675.886429 66.844864 
L 682.306178 68.314185 
L 687.282478 70.360442 
" style="fill:none;stroke:#000000;"/>
    <path clip-path="url(#p513a80c879)" d="M 680.469096 82.752898 
L 674.79738 84.973211 
L 670.317582 83.715881 
L 672.06977 82.309223 
L 670.535654 80.55324 
L 675.797599 79.444851 
L 676.805823 81.517208 
L 680.469096 82.752898 
" style="fill:none;stroke:#000000;"/>
    <path clip-path="url(#p513a80c879)" d="M 656.141439 72.565103 
L 657.105576 70.59415 
L 660.833667 70.392518 
L 664.035472 72.407572 
L 672.394123 76.64533 
L 666.004684 78.846779 
L 664.593774 82.901235 
L 662.366209 83.92819 
L 661.157102 88.377141 
L 658.097398 88.584026 
L 652.636931 85.321769 
L 654.939811 83.397075 
L 651.13378 81.816839 
L 646.186872 77.133054 
L 644.212149 72.690802 
L 651.134174 70.626787 
L 652.525008 72.644859 
L 656.141439 72.565103 
" style="fill:none;stroke:#000000;"/>
    <path clip-path="url(#p513a80c879)" d="M 419.944735 318.887635 
L 419.098294 318.151257 
L 418.55436 316.772561 
L 419.181678 316.089812 
L 418.538352 315.914636 
L 418.064419 315.069656 
L 416.799481 314.358441 
L 415.688454 314.521499 
L 415.17378 315.411391 
L 414.148236 316.053682 
L 413.594265 316.142915 
L 413.345358 316.674779 
L 414.556499 318.061209 
L 413.863378 318.387406 
L 413.496513 318.765641 
L 412.315222 318.895878 
L 411.8756 317.370679 
L 411.54508 317.804891 
L 410.707693 317.654975 
L 410.195315 316.627107 
L 409.153961 316.45734 
L 408.495086 316.158371 
L 407.405446 316.162201 
L 407.327048 316.716903 
L 407.035498 316.330415 
L 405.657653 315.763224 
L 405.142126 315.226423 
L 405.434529 314.782315 
L 405.342288 314.216923 
L 404.638342 313.604005 
L 402.765112 312.772241 
L 402.598277 312.022569 
L 401.932251 311.564452 
L 402.095478 312.309813 
L 401.588807 312.922112 
L 401.008462 312.211004 
L 400.192659 311.95772 
L 399.845672 311.440935 
L 399.860237 310.659862 
L 400.196399 309.851231 
L 399.479332 309.489227 
L 400.061251 308.992927 
L 397.996191 307.145208 
L 397.437233 306.277214 
L 396.366947 305.467272 
L 395.094924 304.302265 
L 395.37683 303.903071 
L 395.795983 304.291662 
L 395.988272 304.109258 
L 395.549635 303.301345 
L 394.778509 303.076697 
L 394.496668 303.684965 
L 393.026058 303.646396 
L 392.112175 303.398933 
L 391.062226 302.885321 
L 389.651383 302.724833 
L 388.932413 302.169631 
L 387.629687 301.718351 
L 386.045842 301.671613 
L 384.884627 301.158076 
L 383.518591 300.089088 
L 380.645075 297.293769 
L 379.335658 296.448752 
L 377.262527 295.769569 
L 375.84427 295.958852 
L 373.804992 296.938292 
L 372.525163 297.194716 
L 370.732167 296.508951 
L 368.829283 296.013569 
L 366.45614 294.817836 
L 364.552534 294.452239 
L 361.678034 293.237997 
L 359.553863 291.987665 
L 358.912898 291.288115 
L 357.492017 291.131749 
L 354.894896 290.301547 
L 353.837272 289.103173 
L 351.109072 287.609656 
L 349.836918 285.946323 
L 349.231708 284.658084 
L 350.078805 284.399733 
L 349.817565 283.644393 
L 350.401321 282.956571 
L 350.413852 282.038391 
L 349.557308 280.844096 
L 349.328148 279.783758 
L 348.476787 278.436275 
L 346.239184 275.772923 
L 343.686216 273.671153 
L 342.451064 271.98789 
L 340.271784 270.882528 
L 339.804871 270.220092 
L 340.191942 268.540201 
L 338.897483 267.904787 
L 337.398728 266.578347 
L 336.765767 264.667407 
L 335.399994 264.444083 
L 333.925579 262.995857 
L 332.735694 261.654341 
L 332.625017 260.790673 
L 331.259573 258.698868 
L 330.360188 256.565108 
L 330.398633 255.490954 
L 328.562338 254.378866 
L 327.714651 254.501147 
L 326.265559 253.727263 
L 325.858675 254.867421 
L 326.278812 256.210964 
L 326.525947 258.305173 
L 327.396662 259.450659 
L 329.280914 261.358182 
L 329.699411 262.008354 
L 330.085564 262.205323 
L 330.420545 263.151868 
L 330.871845 263.113599 
L 331.381467 264.88595 
L 332.152527 265.583234 
L 332.693247 266.552003 
L 334.288967 267.941201 
L 335.131471 270.47048 
L 336.590601 272.923628 
L 336.730143 274.345575 
L 337.954471 274.43455 
L 339.8937 276.854527 
L 339.832031 277.334354 
L 338.763516 278.317259 
L 338.31366 278.30441 
L 337.644157 276.676782 
L 335.982504 275.146381 
L 334.151655 273.84499 
L 332.852996 273.160043 
L 332.936905 271.181868 
L 332.551671 269.712073 
L 329.596279 267.653905 
L 329.26097 268.004865 
L 328.620596 267.294094 
L 327.054464 266.633077 
L 325.55794 265.04361 
L 325.743013 264.836621 
L 326.788828 264.992172 
L 327.730921 263.966802 
L 327.825656 262.72547 
L 325.871009 260.755712 
L 324.381045 259.988901 
L 321.326852 254.187539 
L 320.295404 251.653312 
L 319.868373 250.207152 
L 318.222889 248.573357 
L 317.038147 248.232494 
L 316.760644 247.414216 
L 315.335951 247.270799 
L 314.427364 246.49746 
L 312.068685 246.215113 
L 311.421029 245.752407 
L 311.112618 244.176994 
L 308.64907 241.273587 
L 306.534281 237.2183 
L 306.624357 236.538315 
L 305.504145 235.566333 
L 303.53887 233.08863 
L 303.188537 230.66097 
L 301.835492 229.024991 
L 302.392088 226.527413 
L 302.303586 223.923402 
L 301.493275 221.578853 
L 302.485295 218.672232 
L 303.102825 212.997518 
L 302.644 208.7354 
L 301.841561 205.985293 
L 301.101316 204.481918 
L 301.408822 203.847238 
L 305.080594 204.950448 
L 306.432986 207.994495 
L 307.061092 207.146311 
L 306.654798 204.496292 
L 305.791537 201.822011 
L 305.450766 201.813696 
L 300.534996 198.577765 
L 298.721204 197.142537 
L 294.122923 195.760057 
L 292.708274 192.78093 
L 293.069891 190.696266 
L 289.821243 189.240792 
L 289.375783 186.463105 
L 286.304139 183.936911 
L 286.250474 182.129467 
L 284.854719 180.801905 
L 282.616788 179.671205 
L 281.898737 176.552906 
L 278.625422 173.626782 
L 277.257156 170.168021 
L 274.81926 169.929455 
L 270.782495 169.839004 
L 267.806832 168.773838 
L 262.556564 164.894472 
L 255.684138 162.826055 
L 252.168936 163.149816 
L 247.175382 161.400236 
L 244.156878 159.766464 
L 241.338667 160.579523 
L 241.86233 163.228925 
L 240.458834 163.47217 
L 237.521025 164.261077 
L 235.285652 165.532455 
L 232.471969 166.329315 
L 232.108777 164.112483 
L 233.250639 160.37691 
L 235.94912 159.192744 
L 235.252981 158.223266 
L 232.016339 160.371555 
L 230.283439 162.912629 
L 226.62502 165.599832 
L 228.482768 167.417307 
L 226.083382 170.082041 
L 223.35387 171.621779 
L 220.812645 172.737893 
L 220.183555 174.34942 
L 216.219743 176.215978 
L 215.417127 177.90121 
L 212.446384 179.426204 
L 210.703577 179.152543 
L 208.333779 180.143561 
L 205.757325 181.348774 
L 203.645619 182.527028 
L 199.28824 183.528897 
L 198.890475 182.939768 
L 201.667944 181.294941 
L 204.152027 180.202763 
L 206.858249 178.255791 
L 210.00816 177.851467 
L 211.260042 176.379987 
L 214.779508 174.216274 
L 215.346601 173.488272 
L 217.221275 172.199786 
L 217.659257 169.409773 
L 218.950633 167.215251 
L 216.022927 168.343924 
L 215.204106 167.704105 
L 213.829477 169.054868 
L 212.171301 167.16857 
L 211.486709 168.504581 
L 210.537136 166.646375 
L 207.998733 168.139353 
L 206.440014 168.136278 
L 206.221417 165.91269 
L 206.680524 164.533038 
L 205.045638 163.185697 
L 201.744112 163.911807 
L 199.60144 162.129596 
L 197.864275 161.213329 
L 197.852991 159.037235 
L 195.896507 157.387059 
L 196.878948 155.142311 
L 198.948995 152.943149 
L 199.854611 150.902266 
L 201.909175 150.610299 
L 203.651261 151.249101 
L 205.699461 149.317287 
L 207.543103 149.663354 
L 209.47774 148.414427 
L 209.005907 146.564021 
L 207.584697 145.83069 
L 209.464357 144.250906 
L 207.904983 144.297611 
L 205.210701 145.190531 
L 204.436951 146.092454 
L 202.434609 145.191694 
L 198.843239 145.650425 
L 195.124857 144.669329 
L 194.059163 143.013806 
L 190.845811 140.600828 
L 194.413957 138.847925 
L 200.077539 136.784414 
L 202.165167 136.784414 
L 201.819624 138.894656 
L 207.17919 138.730947 
L 205.117607 136.108893 
L 201.994528 134.481695 
L 200.188543 132.327572 
L 197.752812 130.473712 
L 194.263721 129.089505 
L 195.68493 126.775128 
L 200.189002 126.630809 
L 203.393825 124.598078 
L 203.998248 122.404483 
L 206.59235 120.242163 
L 209.065673 119.718658 
L 213.878812 117.674393 
L 216.21338 117.983775 
L 220.120771 115.507169 
L 223.962491 116.48618 
L 225.799835 118.575747 
L 226.927592 117.682044 
L 231.218643 117.959422 
L 231.066308 119.019446 
L 234.95113 119.799643 
L 237.540969 119.341041 
L 242.889907 120.786927 
L 247.773506 121.215343 
L 249.728546 121.806379 
L 253.106961 121.067335 
L 256.958588 122.432088 
L 264.453937 124.14987 
L 268.45088 126.299827 
L 271.098582 126.708602 
L 273.327459 124.848914 
L 276.402581 123.446157 
L 280.174103 123.99558 
L 283.977378 122.012725 
L 288.132955 120.879651 
L 289.87727 122.760976 
L 291.771823 121.702546 
L 292.339047 119.552924 
L 294.093663 120.041473 
L 298.386748 124.106926 
L 301.767525 121.040499 
L 302.110707 124.469946 
L 305.230177 123.733074 
L 306.188934 122.415946 
L 309.264318 122.677223 
L 313.147566 124.567848 
L 319.089511 126.205105 
L 322.583917 126.959463 
L 325.071082 126.673495 
L 328.496143 128.91363 
L 324.923798 131.084673 
L 329.513485 132.016373 
L 336.367149 131.50453 
L 338.530027 130.743015 
L 341.236643 133.342241 
L 343.998695 131.151255 
L 341.407282 129.296879 
L 343.046958 127.789593 
L 346.137562 127.586065 
L 348.168836 127.143416 
L 350.218348 128.19894 
L 352.769872 130.581743 
L 355.605403 130.233557 
L 360.091499 132.195309 
L 364.033136 131.506551 
L 367.737019 131.610718 
L 367.444026 128.89148 
L 369.701573 128.122009 
L 373.636059 129.613694 
L 373.620904 133.721439 
L 375.236896 130.26438 
L 377.279454 130.381766 
L 378.427548 125.948092 
L 375.707549 123.183345 
L 372.743825 121.352908 
L 372.947399 116.267199 
L 375.949436 112.861409 
L 379.298066 113.6186 
L 381.867107 115.689646 
L 385.316507 120.890723 
L 383.063684 123.118992 
L 387.785894 124.03007 
L 387.774741 128.578869 
L 391.167851 125.101314 
L 394.203281 127.961225 
L 393.447048 131.211972 
L 395.903182 134.128301 
L 398.55423 131.002655 
L 400.406336 127.211759 
L 400.545091 122.295666 
L 404.153584 122.642755 
L 407.906934 123.307218 
L 411.31474 125.533297 
L 411.467666 127.737758 
L 409.578165 130.08152 
L 411.368471 132.410561 
L 411.045364 134.505737 
L 406.073723 137.484174 
L 402.54225 138.136 
L 399.916788 136.862272 
L 399.159702 138.982766 
L 396.71249 142.500715 
L 395.971543 144.304192 
L 393.026911 147.067151 
L 389.392307 147.335909 
L 387.387538 149.042894 
L 387.21985 151.644493 
L 384.265902 152.142089 
L 381.159225 155.339556 
L 378.405439 159.712574 
L 377.420833 162.728155 
L 377.280438 167.103548 
L 381.01181 167.725183 
L 382.155443 171.188944 
L 383.342703 173.96057 
L 386.89576 173.241624 
L 391.613771 174.814323 
L 394.152175 176.187128 
L 395.969116 177.883459 
L 399.150583 178.86662 
L 401.84047 180.363804 
L 406.033178 180.568306 
L 408.794903 180.910128 
L 408.380145 183.95543 
L 409.170231 187.446793 
L 411.009281 191.281276 
L 414.787036 194.492532 
L 416.741814 193.395709 
L 418.115722 189.902632 
L 416.789575 184.447285 
L 414.998613 182.604398 
L 419.063261 180.95207 
L 421.940385 178.461406 
L 423.34762 175.961524 
L 423.139848 173.540375 
L 421.415673 170.429687 
L 418.331629 167.641535 
L 421.32809 163.705293 
L 420.22113 160.253714 
L 419.372656 154.180701 
L 421.140393 153.269641 
L 425.493572 154.343155 
L 428.103748 154.725708 
L 430.206926 153.691349 
L 432.571672 155.024312 
L 435.698424 157.288544 
L 436.468763 158.792803 
L 440.99665 159.085393 
L 440.920744 162.305766 
L 441.764823 167.07161 
L 444.083842 167.654628 
L 445.924139 169.839576 
L 449.60073 167.780324 
L 452.029573 163.636808 
L 453.709595 161.869931 
L 455.686942 165.252848 
L 458.993847 170.005569 
L 461.80156 174.394974 
L 460.780609 176.662732 
L 464.157909 178.682435 
L 466.44032 180.712844 
L 470.48896 181.626519 
L 472.118729 182.749269 
L 473.12505 185.70445 
L 475.102396 186.165492 
L 476.122625 187.469794 
L 476.307764 191.319424 
L 472.642522 193.781081 
L 468.458342 194.976662 
L 465.263491 197.720804 
L 460.970996 198.259828 
L 455.540314 197.560494 
L 451.729625 197.536603 
L 449.099833 197.766663 
L 446.973956 200.141011 
L 443.737052 201.597896 
L 440.074435 205.90544 
L 437.152109 208.873081 
L 439.308689 208.346903 
L 443.384489 204.106491 
L 448.710334 201.385668 
L 452.509279 201.058289 
L 454.757051 202.664459 
L 452.358977 204.850388 
L 453.163627 208.324796 
L 453.992289 210.732806 
L 457.290272 212.316451 
L 461.486327 211.858369 
L 464.031947 208.276852 
L 464.208491 210.592401 
L 465.848035 211.742309 
L 462.707177 213.811022 
L 457.083549 215.678149 
L 454.565155 216.94128 
L 451.727722 219.177273 
L 449.799711 218.950031 
L 449.702419 216.318822 
L 454.110838 213.72669 
L 450.046912 213.829723 
L 447.225028 214.212767 
L 447.663683 215.241298 
L 444.952297 216.755282 
L 442.34344 217.829528 
L 439.661736 218.747607 
L 437.887611 221.273815 
L 437.861959 222.899512 
L 438.699871 224.516205 
L 439.753559 224.592225 
L 439.487004 223.47997 
L 440.248748 224.157487 
L 440.045503 225.02647 
L 438.331693 225.518863 
L 437.111958 225.459833 
L 435.249684 225.988767 
L 432.653219 226.289599 
L 430.536702 227.164789 
L 434.265996 226.59563 
L 435.018162 227.168091 
L 431.463466 228.072533 
L 429.846096 228.078523 
L 429.921419 227.708799 
L 429.14858 228.543386 
L 429.895736 228.681264 
L 429.34743 230.833401 
L 427.499851 233.124585 
L 427.311038 232.361683 
L 426.753393 232.206843 
L 425.920532 231.462267 
L 426.448787 233.063865 
L 427.07889 233.591573 
L 427.117242 234.70955 
L 426.30288 235.855526 
L 424.87393 238.199167 
L 424.642802 238.083054 
L 425.42794 236.086451 
L 424.130925 234.960241 
L 423.833522 232.4996 
L 423.344177 233.782388 
L 423.886005 235.655999 
L 422.208514 235.193997 
L 423.956363 236.142659 
L 424.065239 238.931211 
L 424.793803 239.133003 
L 425.057231 240.141197 
L 425.414124 243.041324 
L 423.800035 245.178541 
L 421.17349 246.029156 
L 419.504487 247.706243 
L 418.236502 247.889168 
L 416.950905 248.935588 
L 416.58807 249.88897 
L 413.800779 251.726694 
L 412.369612 253.069464 
L 411.172916 254.735589 
L 410.781565 256.724001 
L 411.230249 258.65882 
L 412.077599 261.030894 
L 413.205973 262.984353 
L 413.220183 264.17289 
L 414.42231 267.348852 
L 414.231826 270.242096 
L 413.598401 271.896348 
L 412.839278 272.237502 
L 411.589758 271.909621 
L 411.188909 270.721587 
L 410.22405 270.097658 
L 407.697267 265.667512 
L 407.316125 264.595056 
L 407.837261 262.769892 
L 407.126354 261.252083 
L 405.14691 258.933843 
L 404.155626 258.507341 
L 401.594148 259.767691 
L 401.139601 259.629097 
L 399.907486 258.333192 
L 398.315755 257.6444 
L 395.44565 257.994441 
L 393.192302 257.686443 
L 391.255839 257.878461 
L 390.206331 258.31265 
L 390.66361 259.051543 
L 390.622312 260.176572 
L 391.161435 260.72361 
L 390.677588 261.087284 
L 389.735461 260.679165 
L 388.782416 261.203902 
L 386.94007 261.117907 
L 385.044492 259.654395 
L 382.829713 260.000159 
L 380.983012 259.358191 
L 379.403575 259.552778 
L 377.266726 260.200483 
L 374.955514 262.249867 
L 372.4322 263.437579 
L 371.045958 264.749363 
L 370.462005 265.982413 
L 370.436615 267.867103 
L 370.563562 269.173971 
L 371.045958 270.097658 
L 370.060631 272.474919 
L 369.616614 274.416255 
L 369.431016 278.01156 
L 369.186439 279.316504 
L 369.62652 280.770764 
L 370.41385 282.067842 
L 370.920717 284.12513 
L 372.606054 286.093761 
L 373.198799 287.598425 
L 374.192195 288.89429 
L 376.888249 289.591548 
L 377.937738 290.689626 
L 380.164713 289.956268 
L 382.100859 289.691042 
L 385.60025 288.767911 
L 387.215192 287.693984 
L 387.820205 286.155838 
L 388.028699 283.934193 
L 388.467599 283.159316 
L 390.187313 282.464377 
L 392.872279 281.848191 
L 395.12051 281.940757 
L 396.660531 281.715634 
L 397.269677 282.279044 
L 397.183537 283.557009 
L 395.819076 285.130754 
L 395.215375 286.738669 
L 395.683339 287.197868 
L 394.666586 290.386772 
L 394.022997 289.712554 
L 393.491397 289.756323 
L 393.500779 290.141509 
L 393.981994 290.153581 
L 393.939679 290.867158 
L 393.528661 292.000451 
L 393.750801 292.405282 
L 393.484771 293.340917 
L 393.645045 293.590798 
L 393.350739 294.909832 
L 392.852073 295.60152 
L 392.393491 295.684404 
L 391.890298 296.586498 
L 392.718106 297.057205 
L 392.937032 296.669484 
L 393.945583 297.103313 
L 394.502507 296.64588 
L 395.229021 296.608557 
L 395.464545 296.820708 
L 395.858505 296.691474 
L 397.03809 296.926259 
L 398.21177 296.858291 
L 399.028623 296.570424 
L 399.326406 296.278958 
L 401.407212 296.529532 
L 401.911783 296.303649 
L 403.474503 296.722137 
L 405.906626 298.18929 
L 406.574816 298.903613 
L 406.356416 299.152676 
L 406.227108 299.731809 
L 406.486184 300.680269 
L 405.901246 301.562281 
L 405.628721 302.603131 
L 405.546518 303.741681 
L 405.682846 304.40709 
L 405.746811 305.568249 
L 405.358886 305.821448 
L 405.12146 306.923185 
L 405.296036 307.602882 
L 404.776507 308.260642 
L 404.894663 308.955411 
L 405.283965 309.377518 
L 405.927095 310.772516 
L 408.100863 312.898746 
L 408.100863 312.898746 
" style="fill:none;stroke:#000000;"/>
    <path clip-path="url(#p513a80c879)" d="M 408.100863 312.898746 
L 409.012581 313.817425 
L 408.960622 314.359763 
L 409.973766 314.474818 
L 410.213488 314.266654 
L 410.911398 314.89542 
L 412.16059 314.710521 
L 413.240717 314.064148 
L 414.782706 313.547767 
L 415.649288 312.782304 
L 417.051144 312.932637 
L 416.956541 313.184612 
L 418.372239 313.271968 
L 419.50203 313.714292 
L 420.330822 314.484472 
L 421.285906 315.191463 
" style="fill:none;stroke:#000000;"/>
    <path clip-path="url(#p513a80c879)" d="M 435.608873 286.559538 
L 435.926403 286.109656 
L 436.452755 286.056649 
L 437.908407 286.121867 
L 439.412411 286.801095 
L 440.081586 286.734853 
L 440.542595 287.669891 
L 441.931789 287.617347 
L 441.849979 288.401963 
L 442.979704 288.496935 
L 444.227584 289.461561 
L 443.284637 290.530216 
L 442.076974 289.959389 
L 440.911428 290.06948 
L 440.076206 289.944532 
L 439.618412 290.423246 
L 438.643647 290.584916 
L 438.257297 289.948264 
L 437.417745 290.325074 
L 436.401452 292.119772 
L 435.74776 291.703417 
L 435.619173 290.950217 
L 433.932787 290.504458 
L 432.734504 290.686373 
L 431.185299 290.496731 
L 429.997317 290.986933 
L 428.637382 290.169654 
L 428.861097 289.323062 
L 431.198026 289.687852 
L 433.114032 289.898604 
L 434.028243 289.313828 
L 432.868471 288.174507 
L 432.887627 287.168377 
L 431.285675 286.757139 
L 431.857557 286.028404 
L 433.406697 286.14506 
L 435.608873 286.559538 
" style="fill:none;stroke:#000000;"/>
    <path clip-path="url(#p513a80c879)" d="M 655.172579 235.477398 
L 657.099934 235.219984 
L 656.185657 237.534115 
L 656.565643 238.440952 
L 656.032665 239.941148 
L 654.090877 238.842944 
L 652.799763 238.527729 
L 649.255891 237.038793 
L 649.61121 235.528949 
L 652.582478 235.798239 
L 655.172579 235.477398 
" style="fill:none;stroke:#000000;"/>
    <path clip-path="url(#p513a80c879)" d="M 576.414955 288.187428 
L 576.108315 286.877756 
L 576.361749 285.561298 
L 575.705432 284.304039 
L 574.367083 283.159591 
L 574.596045 280.80523 
L 575.571335 280.079308 
L 576.402162 278.688595 
L 576.238411 277.783631 
L 577.111356 275.892263 
L 578.524627 274.182546 
L 579.379465 273.748397 
L 580.051527 272.17387 
L 580.111752 270.731673 
L 581.028325 269.053184 
L 582.719698 268.060917 
L 584.329129 265.269984 
L 585.652258 264.177858 
L 588.013396 263.874343 
L 590.014098 261.991883 
L 591.287105 261.255992 
L 593.406684 258.94214 
L 592.772148 255.471998 
L 593.73681 253.055956 
L 594.077302 251.570364 
L 595.710482 249.656612 
L 598.257939 248.357409 
L 600.141011 247.178023 
L 601.837632 244.208682 
L 602.635787 242.436653 
L 604.504884 242.450553 
L 606.035589 243.676176 
L 608.450129 243.476798 
L 611.079987 244.113013 
L 612.182945 244.143814 
L 614.623793 242.567182 
L 617.368919 242.064323 
L 618.971921 240.867915 
L 621.417165 239.982897 
L 625.720353 239.463604 
L 629.920148 239.227012 
L 631.200765 239.659995 
L 633.591819 238.509831 
L 636.304995 238.487251 
L 637.337624 239.16671 
L 639.074067 238.989515 
L 641.839203 237.809633 
L 643.616584 238.160845 
L 643.542056 239.638087 
L 645.69575 238.56405 
L 645.876427 239.12502 
L 644.606831 240.552014 
L 644.589774 241.89411 
L 645.468886 242.613046 
L 645.134561 245.10686 
L 643.463198 246.548125 
L 643.945792 248.104724 
L 645.258949 248.153182 
L 645.897945 249.505816 
L 646.863525 249.949678 
L 649.845815 250.925197 
L 650.912034 250.681572 
L 653.033187 251.153913 
L 656.402417 252.416225 
L 657.59158 254.915746 
L 659.870843 255.459553 
L 663.449616 256.630202 
L 666.154526 258.016526 
L 667.392631 257.293721 
L 668.609742 256.00925 
L 668.017982 253.861498 
L 668.814431 252.492083 
L 670.643903 251.168532 
L 672.392024 250.782405 
L 675.826859 251.36146 
L 676.692719 252.623726 
L 677.638093 252.635672 
L 678.446482 253.116274 
L 680.969403 253.446525 
L 681.588062 254.374513 
L 684.966346 254.328158 
L 689.930705 255.897372 
L 691.106354 256.332726 
L 693.061263 255.446456 
L 694.106357 254.643258 
L 696.3456 254.411869 
L 698.150929 254.766117 
L 698.842672 256.155054 
L 699.431939 255.240621 
L 701.466887 255.90207 
L 703.445939 256.06041 
L 704.695328 255.35542 
L 705.434045 254.431598 
L 705.260715 254.272366 
L 705.932252 252.957857 
L 706.447254 250.827252 
L 706.880512 250.080449 
L 707.784817 247.763361 
L 709.095481 245.648151 
L 708.858383 243.447509 
L 709.479798 242.258608 
L 708.546233 240.944223 
L 709.507877 239.851994 
L 707.959327 240.099918 
L 705.835681 239.429707 
L 704.089659 241.103992 
L 700.235999 241.430068 
L 698.180451 239.870429 
L 695.443394 239.772603 
L 694.858063 240.979108 
L 693.10325 241.323356 
L 690.647772 239.775613 
L 687.875813 239.828066 
L 686.371613 236.920186 
L 684.516686 235.287955 
L 685.751904 232.987414 
L 684.142342 231.566235 
L 686.958781 228.704152 
L 690.868862 228.583935 
L 691.935343 226.291554 
L 696.774659 226.691955 
L 699.826752 224.725277 
L 702.785555 223.86448 
L 706.986268 223.799638 
L 711.418043 225.94219 
L 715.060454 227.112005 
L 718.018338 226.646179 
L 720.204047 226.915433 
L 723.20182 225.334762 
L 723.580363 224.035229 
L 722.946352 221.949749 
L 721.47876 220.817608 
L 720.071918 220.463465 
L 719.141634 219.51815 
L 715.90427 216.896198 
L 713.00753 215.718558 
L 710.814605 213.87574 
L 712.662315 213.372438 
L 714.769166 210.725249 
L 713.349203 209.464659 
L 717.091728 208.158905 
L 717.024548 207.457046 
L 714.745286 207.974601 
L 712.718079 208.231054 
L 711.028872 209.266303 
L 708.651858 209.434716 
L 706.464836 210.622476 
L 706.613236 212.593974 
L 707.855408 213.355174 
L 710.445246 213.166029 
L 709.949401 214.289091 
L 707.169832 214.832884 
L 703.723056 216.642171 
L 702.311097 216.007248 
L 702.870974 214.535474 
L 700.096391 213.61516 
L 700.544869 213.010846 
L 702.97568 211.960316 
L 702.240375 211.234328 
L 698.293555 210.431131 
L 698.118782 209.242201 
L 695.766173 209.635352 
L 694.823817 211.387221 
L 692.857755 213.722705 
L 692.9168 214.533527 
L 691.685518 215.208374 
L 690.914261 214.914808 
L 690.203886 218.675077 
L 688.886136 219.956115 
L 687.95887 222.155873 
L 688.778543 223.89985 
L 689.080197 225.069879 
L 691.296609 226.049503 
L 690.834485 226.790672 
L 687.819524 226.957269 
L 686.736248 227.890142 
L 684.617719 229.508627 
L 683.818776 228.109404 
L 683.853285 227.487583 
L 682.30631 227.401854 
L 680.981343 227.116607 
L 677.906419 227.900494 
L 679.66648 229.589567 
L 678.376547 230.077742 
L 676.962357 230.080758 
L 675.619153 228.535851 
L 675.142595 229.194989 
L 675.709951 230.982529 
L 676.980202 232.380659 
L 676.023151 233.031508 
L 677.437209 234.396677 
L 678.694077 235.252981 
L 678.732128 236.915331 
L 676.383456 236.136581 
L 677.132407 237.633901 
L 675.520089 237.941339 
L 676.483045 240.515662 
L 674.796593 240.552014 
L 672.71454 239.285496 
L 671.762343 236.94476 
L 671.318064 234.986484 
L 669.026993 231.933727 
L 668.855106 231.084945 
L 668.423423 230.875993 
L 668.372644 230.218385 
L 666.966196 229.212356 
L 666.745237 227.779679 
L 666.959767 225.717276 
L 667.306295 224.774775 
L 666.879072 224.295357 
L 666.347669 224.059401 
L 665.63585 223.063025 
L 664.538666 222.455796 
L 662.151811 221.320822 
L 660.679232 220.212679 
L 658.356933 219.294907 
L 656.22174 217.010822 
L 656.734118 216.777989 
L 655.576445 215.464298 
L 655.528947 214.405815 
L 653.896685 213.910044 
L 653.118474 215.26503 
L 652.368736 214.214553 
L 652.516217 213.070353 
L 653.081341 212.784125 
L 651.060171 212.323804 
L 648.995832 213.444086 
L 649.136227 215.004162 
L 648.825389 215.895972 
L 649.657659 217.483363 
L 652.038478 219.045841 
L 653.315421 221.59415 
L 656.140783 224.059007 
L 658.130463 224.04019 
L 658.749253 224.71302 
L 658.03691 225.318291 
L 662.175166 227.327641 
L 664.352478 228.897592 
L 664.615424 229.45804 
L 664.140966 230.530085 
L 662.731762 229.131637 
L 660.525847 228.63737 
L 659.457266 230.576036 
L 661.29238 231.682181 
L 660.99112 233.233348 
L 659.930412 233.409183 
L 658.574218 235.942695 
L 657.515741 236.169417 
L 657.525581 235.268906 
L 658.043601 233.683679 
L 658.595474 233.050371 
L 656.828983 229.819192 
L 655.774967 229.445798 
L 655.02536 228.149149 
L 653.393754 227.601492 
L 652.295126 226.387497 
L 650.416451 226.19136 
L 648.432413 224.821752 
L 646.10972 222.837007 
L 644.383248 221.070386 
L 643.59126 218.015851 
L 642.327963 217.654641 
L 640.262312 216.627023 
L 639.093355 217.048082 
L 637.626287 218.490094 
L 636.57109 218.717264 
L 634.270834 220.462669 
L 629.263044 219.627358 
L 625.564737 220.628053 
L 625.274237 222.477157 
L 625.41004 224.25098 
L 623.003897 226.273098 
L 619.750526 226.912232 
L 619.524056 227.927033 
L 617.963435 229.592742 
L 616.984865 232.02379 
L 617.975113 233.720492 
L 616.506471 235.039479 
L 615.957354 236.952496 
L 614.040364 237.536992 
L 612.242514 239.78344 
L 606.599533 239.772678 
L 605.009258 240.799848 
L 604.039479 241.895831 
L 602.797176 241.655459 
L 601.857051 240.675013 
L 601.137228 238.999772 
L 598.766906 238.547438 
L 597.74648 239.305089 
L 596.407868 238.894775 
L 595.097597 239.216008 
L 595.485456 236.926102 
L 595.247046 235.116556 
L 594.110892 234.844311 
L 593.50378 233.723706 
L 593.705844 231.779389 
L 594.718135 230.696482 
L 594.898288 229.486704 
L 595.428117 227.678993 
L 595.371827 226.399459 
L 594.864173 225.311076 
L 594.752381 224.286151 
L 594.880312 222.110255 
L 593.843222 220.777606 
L 597.435248 218.548403 
L 600.542319 219.107166 
L 603.951306 219.087579 
L 606.653001 219.615625 
L 608.76123 219.45355 
L 612.864847 219.555834 
L 614.177873 217.697125 
L 614.661385 211.442703 
L 612.041237 208.095936 
L 610.168531 206.468877 
L 606.288104 205.225979 
L 606.032177 202.854997 
L 609.32419 202.143933 
L 613.588081 202.984707 
L 612.783234 199.266988 
L 615.180192 200.681583 
L 621.091762 198.104799 
L 621.854097 195.37145 
L 626.109524 194.030184 
L 627.417958 193.103161 
L 629.641456 188.0852 
L 633.115392 186.640316 
L 635.225261 186.73804 
L 635.721107 186.00437 
L 637.84331 185.815704 
L 638.314225 186.580126 
L 640.038335 184.868022 
L 639.457858 183.558753 
L 639.341343 181.565634 
L 638.310683 179.60031 
L 638.233662 175.940658 
L 638.656686 174.965486 
L 639.385036 173.877281 
L 641.622049 173.651598 
L 642.513495 172.645991 
L 644.556053 171.61363 
L 644.469979 173.492692 
L 643.718141 174.675615 
L 644.022812 175.688261 
L 645.399476 176.233937 
L 644.77898 177.588909 
L 644.022812 177.199483 
L 642.194653 179.769894 
L 642.885084 181.493792 
L 642.929958 182.854061 
L 645.495784 183.67091 
L 645.468755 184.910149 
L 648.050458 184.255164 
L 649.4779 183.296989 
L 652.344593 184.677286 
L 653.543597 185.785383 
L 655.278335 184.763756 
L 662.438375 181.957678 
L 664.972449 182.552094 
L 665.163885 183.4079 
L 667.61254 183.45216 
L 668.191049 181.906155 
L 671.694901 180.760945 
L 671.154969 177.769065 
L 671.24288 175.059918 
L 672.490694 172.7777 
L 674.883716 171.527954 
L 676.900032 174.254162 
L 678.93708 174.18354 
L 679.719621 169.205884 
L 678.785925 169.672136 
L 677.174525 168.355252 
L 676.954222 166.211596 
L 680.164687 165.165248 
L 683.363868 164.618037 
L 686.118639 165.240697 
L 688.738918 165.129362 
L 691.624767 163.040178 
L 688.9646 161.228547 
L 684.356609 161.532623 
L 679.891507 162.929116 
L 675.760598 163.728965 
L 674.290644 161.654976 
L 671.831492 160.398528 
L 672.396748 156.587928 
L 671.163629 153.044804 
L 672.37431 150.72907 
L 674.676535 148.205676 
L 680.485367 143.783115 
L 682.180347 142.920718 
L 681.91622 141.166379 
L 678.385207 139.190033 
L 674.017463 140.376375 
L 671.555424 143.273441 
L 671.951812 145.786612 
L 667.912751 149.04539 
L 663.009535 152.482189 
L 661.160513 158.003546 
L 662.96781 160.719092 
L 665.396128 162.835676 
L 663.063988 167.085023 
L 660.42324 167.957115 
L 659.454642 174.127534 
L 658.012636 177.506793 
L 654.932463 177.160452 
L 653.495443 179.99082 
L 650.555665 180.154192 
L 649.748719 176.779105 
L 647.623105 172.668356 
L 645.691945 167.449297 
L 643.988698 165.150369 
L 638.975134 169.465402 
L 635.589896 170.330939 
L 632.078565 168.446626 
L 631.170586 164.421286 
L 630.367839 155.549892 
L 632.705883 153.016787 
L 639.41036 149.670614 
L 644.423268 145.490717 
L 649.071409 139.723675 
L 655.172316 131.484768 
L 659.424726 128.190165 
L 666.402384 122.588295 
L 671.974118 120.599239 
L 676.151737 120.841482 
L 680.018256 117.03105 
L 684.648291 117.236207 
L 689.207209 116.310749 
L 697.149134 119.690709 
L 693.878837 120.913573 
L 696.660768 123.758421 
L 699.28026 122.187498 
L 703.451319 124.910335 
L 710.404571 125.972955 
L 719.998178 130.955051 
L 721.94692 133.015828 
L 722.114739 135.870277 
L 719.296064 138.098526 
L 715.150071 139.221069 
L 703.814904 136.006565 
L 701.950661 136.547168 
L 706.09014 139.638074 
L 706.252144 141.574647 
L 706.418037 145.783421 
L 709.686802 147.024655 
L 711.670943 148.076301 
L 711.999094 146.108331 
L 710.469573 144.350083 
L 712.085601 142.789297 
L 718.223606 145.348653 
L 720.361895 144.350083 
L 718.653092 141.322587 
L 724.570401 137.210318 
L 726.913848 137.45444 
L 729.284615 138.928833 
L 730.763628 136.020432 
L 728.646411 133.467264 
L 729.85601 130.827719 
L 728.022897 128.15666 
L 735.125205 129.567265 
L 736.575822 132.008562 
L 733.36091 132.543153 
L 733.378265 134.937285 
L 735.376892 136.397768 
L 739.299801 135.473708 
L 739.920861 132.73399 
L 754.085569 126.888952 
L 756.000749 127.107241 
L 753.497492 129.780555 
L 756.715005 130.281227 
L 758.466122 128.738777 
L 763.225228 128.61723 
L 766.995716 126.784941 
L 769.888798 129.442549 
L 772.774263 126.519058 
L 770.11371 123.929697 
L 771.434111 122.440977 
L 778.934512 123.806547 
L 782.448869 125.208101 
L 791.650622 130.257267 
L 793.34805 127.958835 
L 790.767732 125.612162 
L 790.69354 124.663623 
L 787.633589 124.223498 
L 788.470674 122.084311 
L 787.11267 118.518234 
L 787.035838 117.038134 
L 791.721462 112.795268 
L 793.387862 108.451106 
L 795.276026 107.499503 
L 801.998351 108.774712 
L 802.527725 111.439794 
L 800.120877 115.267713 
L 801.700187 116.753892 
L 802.517187 119.977683 
L 801.940353 126.162558 
L 804.741399 128.874064 
L 803.651701 131.789811 
L 798.678398 137.871275 
L 801.580596 138.492825 
L 802.590542 136.971066 
L 805.384092 135.879322 
L 806.058269 133.760575 
L 808.255821 131.702694 
L 806.776195 129.220746 
L 807.960881 126.30348 
L 805.184444 125.937196 
L 804.57382 123.445255 
L 806.59983 118.873442 
L 803.302323 115.088988 
L 807.846571 111.91007 
L 807.258621 108.504648 
L 808.524989 108.395039 
L 809.859277 111.056135 
L 808.857533 115.610897 
L 811.574682 116.462485 
L 810.416911 113.081305 
L 814.666092 111.215375 
L 819.935647 110.962867 
L 824.627876 113.666582 
L 822.369869 109.705277 
L 822.116895 104.528965 
L 826.532137 103.534148 
L 832.639212 103.75198 
L 838.141666 103.104464 
L 836.077983 100.499971 
L 839.016317 97.181637 
L 841.933395 97.041588 
L 846.870069 94.498422 
L 853.574939 93.809435 
L 854.422036 92.387305 
L 861.089118 91.903135 
L 863.166578 93.072545 
L 865 92.178647 
L 865 92.178647 
" style="fill:none;stroke:#000000;"/>
    <path clip-path="url(#p513a80c879)" d="M 865 295.048468 
L 864.401402 293.871168 
L 862.728728 295.179829 
L 859.843271 297.036368 
L 858.418979 296.804639 
L 856.845761 296.194251 
L 857.720937 292.960437 
L 857.191108 290.508254 
L 855.200903 287.476982 
L 855.511348 286.526542 
L 854.026042 286.188239 
L 852.223993 284.031242 
L 851.49866 282.64897 
L 851.352229 281.295384 
L 850.86898 280.013459 
L 849.808141 278.45962 
L 847.46944 278.352697 
L 847.700371 279.453726 
L 846.903134 280.936678 
L 845.822745 280.396671 
L 845.453518 280.881447 
L 844.734483 280.591041 
L 843.752108 280.352543 
L 843.388523 281.324596 
L 841.661264 281.291122 
L 838.5311 281.843177 
L 838.677006 283.839387 
L 837.321599 285.405067 
L 833.667642 287.18159 
L 830.825747 290.276051 
L 828.916893 291.929552 
L 826.386887 293.641561 
L 826.382951 294.842302 
L 825.117161 295.484888 
L 822.830157 296.418078 
L 821.644143 296.555494 
L 820.882858 298.538608 
L 821.411506 301.909825 
L 821.546128 304.053563 
L 820.4702 306.503228 
L 820.458653 310.870441 
L 819.144709 310.994676 
L 817.989004 312.950046 
L 818.761836 313.79414 
L 816.446753 314.51978 
L 815.591652 316.25909 
L 814.572801 316.993588 
L 812.168495 314.606195 
L 810.993108 311.018342 
L 810.019131 308.42793 
L 809.129522 307.211181 
L 807.780544 304.735697 
L 807.150601 301.504032 
L 806.711701 299.885846 
L 804.401998 296.317373 
L 802.590896 287.89384 
L 802.599949 284.696711 
L 802.107515 282.213982 
L 798.412489 283.80194 
L 796.622905 283.484203 
L 793.306028 280.263039 
L 794.526813 279.298987 
L 793.776943 278.25066 
L 790.798721 275.97655 
L 788.937628 275.297249 
L 788.180411 273.361855 
L 786.218678 271.303697 
L 781.540621 271.812818 
L 777.415354 271.863214 
L 773.839467 272.242251 
L 769.06287 271.425497 
L 766.294323 270.802974 
L 763.428942 270.450647 
L 762.34606 267.113808 
L 761.130786 266.629758 
L 759.179681 267.117829 
L 756.61871 268.437486 
L 753.515969 267.533386 
L 750.952766 265.432474 
L 748.508047 264.651454 
L 746.81241 262.040511 
L 744.938721 258.34665 
L 743.572292 258.797255 
L 741.958662 257.875369 
L 741.010664 258.961018 
L 739.503839 258.824757 
L 740.033668 260.049558 
L 739.807067 260.681492 
L 741.619088 265.134357 
L 742.868215 265.760121 
L 743.30331 266.720774 
L 745.033717 267.868019 
L 745.187365 268.99169 
L 744.934391 269.896833 
L 745.255726 270.808157 
L 745.985783 271.567201 
L 746.323913 272.453975 
L 746.703637 273.115976 
L 746.535556 271.148554 
L 747.219689 269.725688 
L 747.913138 269.433367 
L 748.681508 270.284593 
L 748.726251 271.870623 
L 748.175034 273.459561 
L 748.657234 274.488525 
L 749.108993 274.35775 
L 749.202808 275.095665 
L 751.190127 274.671697 
L 754.823353 274.821513 
L 756.562683 272.999515 
L 758.456841 271.265773 
L 760.800397 268.668144 
L 761.114384 268.904391 
L 760.875056 270.027101 
L 760.544011 270.519253 
L 760.888833 272.65703 
L 762.027086 274.498819 
L 763.444688 275.475292 
L 765.307093 275.826282 
L 766.8109 276.31551 
L 768.64129 278.739543 
L 769.550187 279.077839 
L 769.545332 279.673217 
L 768.215511 282.007084 
L 767.145881 282.856408 
L 766.198408 284.671621 
L 765.046509 284.532819 
L 764.518516 285.163546 
L 764.110713 286.50268 
L 764.422864 288.264138 
L 764.183404 288.587408 
L 763.015103 288.578776 
L 761.429159 289.561208 
L 761.181695 290.839785 
L 760.601088 291.392995 
L 759.021704 291.371871 
L 758.02752 292.031433 
L 758.040116 293.088253 
L 756.811458 293.813806 
L 755.410521 293.567508 
L 753.712522 294.448328 
L 752.539629 294.596058 
L 750.702941 295.296707 
L 750.211688 296.453326 
L 750.151856 297.340603 
L 747.623818 298.437753 
L 743.566518 299.648448 
L 741.293161 301.476545 
L 740.175245 301.619188 
L 739.413435 301.466112 
L 737.929441 302.539735 
L 736.311088 303.03737 
L 733.538342 303.318367 
L 732.98332 304.000266 
L 732.317819 304.188626 
L 731.924712 304.844943 
L 730.667975 304.788022 
L 729.85683 305.138031 
L 728.099393 305.006891 
L 727.439009 303.49918 
L 727.511569 302.086223 
L 727.096418 301.322709 
L 726.599523 299.405959 
L 725.86986 298.338833 
L 726.378039 298.212515 
L 726.117585 297.024672 
L 726.425406 296.522807 
L 726.312827 295.386695 
L 725.983357 294.273525 
L 725.217611 293.486967 
L 725.021844 292.443887 
L 723.710393 291.505712 
L 722.357085 289.305476 
L 721.640936 287.160749 
L 719.88468 285.344286 
L 718.752331 284.910044 
L 717.070734 282.38424 
L 716.776953 280.535916 
L 716.885202 278.954883 
L 715.428894 275.985983 
L 714.238287 274.937376 
L 712.86661 274.380847 
L 712.031716 272.835939 
L 712.170537 272.225209 
L 711.465016 270.821954 
L 710.723544 270.216446 
L 709.732116 268.193769 
L 706.891009 264.108723 
L 705.626925 264.121926 
L 706.021607 262.611617 
L 706.134448 261.645849 
L 706.448829 260.542385 
L 706.363935 260.141422 
L 705.650805 261.253707 
L 705.104443 263.337123 
L 704.41375 264.767723 
L 703.821727 265.246544 
L 701.829554 263.13437 
L 700.017795 259.171289 
L 699.756817 259.422909 
L 700.808996 262.342005 
L 702.36778 265.106235 
L 704.286869 269.358084 
L 705.224632 270.833859 
L 706.040107 272.362508 
L 708.318582 275.346001 
L 707.814077 275.814348 
L 707.895952 277.556996 
L 710.853312 279.955043 
L 711.298967 280.500956 
L 712.11779 283.108945 
L 711.560932 283.589951 
L 711.929896 286.312778 
L 712.861886 289.456605 
L 715.218957 291.07262 
L 716.692978 294.101247 
L 717.392463 296.494221 
L 718.784347 297.761191 
L 722.250148 300.21286 
L 725.831021 304.068638 
L 727.07936 304.84481 
L 727.680175 305.642843 
L 727.600267 306.712561 
L 726.1517 307.328553 
L 728.068165 308.506449 
L 728.565847 309.569136 
L 729.711317 310.643948 
L 730.971859 310.652502 
L 733.365406 309.995804 
L 736.129098 309.691445 
L 738.364143 308.893257 
L 739.623372 308.724044 
L 740.530301 308.255061 
L 742.78752 308.113997 
L 743.957658 307.731846 
L 745.303749 307.47284 
L 746.505377 306.591597 
L 747.468202 306.584544 
L 747.525672 307.296369 
L 747.291199 308.792317 
L 747.300777 310.142482 
L 746.764781 311.069384 
L 746.049289 313.839718 
L 744.826798 316.696699 
L 743.257123 319.956946 
L 741.078106 323.691562 
L 738.910373 326.540943 
L 735.924278 330.008861 
L 733.383251 332.065492 
L 729.585224 334.587317 
L 727.218313 336.518703 
L 724.439662 339.59448 
L 723.854069 340.933541 
L 723.280677 341.534892 
L 721.502378 342.54911 
L 720.875425 343.609036 
L 719.923751 343.795267 
L 719.563608 345.585783 
L 718.748264 346.611488 
L 718.252681 348.303621 
L 717.230241 349.143728 
L 716.057918 352.280916 
L 716.208417 353.725304 
L 717.833987 354.654352 
L 717.910089 355.317612 
L 717.21113 356.859304 
L 717.356642 357.63562 
L 717.190398 358.85662 
L 718.077121 360.4603 
L 719.127857 362.98664 
L 720.059715 363.547612 
L 720.470536 364.698441 
L 720.366093 367.259684 
L 720.679818 369.52038 
L 720.778357 373.559243 
L 721.224867 374.828599 
L 720.46765 376.683661 
L 719.482519 378.490545 
L 717.865871 380.107338 
L 712.682521 382.369445 
L 709.813729 385.184364 
L 708.836734 385.664286 
L 707.064207 387.535256 
L 706.018064 388.145147 
L 705.803534 390.029626 
L 707.007655 392.037211 
L 707.508618 393.596362 
L 707.540155 394.393231 
L 707.988804 394.259974 
L 707.916159 396.879414 
L 707.504419 398.12432 
L 708.102872 398.583785 
L 707.725247 399.701921 
L 706.663883 400.659787 
L 704.569366 401.571356 
L 701.515829 403.034509 
L 700.402243 404.036365 
L 700.619922 405.180194 
L 701.26889 405.363118 
L 701.050949 406.796348 
L 700.416545 408.785497 
L 700.116597 411.065791 
L 699.459625 412.30926 
L 697.230747 414.104524 
L 696.154688 415.513395 
L 695.446412 416.94298 
L 694.006505 418.944243 
L 689.344849 423.536998 
L 687.427466 424.82682 
L 684.773728 425.92989 
L 683.479334 426.078214 
L 683.151701 426.869617 
L 681.608531 426.448087 
L 680.351663 426.991 
L 677.599779 426.441311 
L 676.061464 426.789109 
L 675.010204 426.639784 
L 672.391499 427.767224 
L 670.223766 428.220344 
L 668.655141 429.304093 
L 667.500224 429.373096 
L 666.42587 428.350431 
L 665.567752 428.298035 
L 664.474241 427.021536 
L 664.354315 427.417536 
L 664.016841 426.650248 
L 664.031011 424.981492 
L 663.206089 423.082534 
L 664.0255 422.567865 
L 663.959108 420.406324 
L 662.296405 417.785236 
L 659.193795 411.824862 
L 657.306853 409.747746 
L 656.313194 407.748334 
L 655.752661 405.095357 
L 655.126786 403.130201 
L 654.276015 398.977119 
L 654.21907 395.771934 
L 653.894061 394.316493 
L 652.906175 393.219021 
L 651.595642 391.02502 
L 650.260966 387.852673 
L 649.706732 386.198524 
L 647.640818 383.6342 
L 647.486645 381.625161 
L 647.247711 379.982729 
L 647.599224 377.691424 
L 648.475319 375.312546 
L 648.607448 374.199592 
L 649.43132 371.866308 
L 650.036596 370.807484 
L 651.495134 369.119283 
L 652.309691 367.972663 
L 652.576311 366.066506 
L 652.443395 364.610194 
L 651.684078 363.692535 
L 650.384173 360.599994 
L 650.520501 360.06801 
L 651.300942 359.053781 
L 650.010747 354.876599 
L 648.73879 353.263313 
L 648.980218 352.767976 
L 648.624505 351.977727 
L 647.945621 350.063002 
L 645.86055 347.368344 
L 643.251293 344.802496 
L 641.573238 342.705975 
L 640.031381 340.082371 
L 640.112863 339.238743 
L 640.667228 338.426911 
L 641.795772 334.695709 
L 641.320264 334.312791 
L 642.192553 331.460662 
L 642.563355 329.454545 
L 641.571008 327.773996 
L 640.412548 327.342749 
L 639.896627 326.203126 
L 639.246347 325.838321 
L 639.275475 325.135134 
L 636.639451 326.050768 
L 635.675839 325.917004 
L 634.6995 326.487052 
L 632.668488 326.431452 
L 631.309145 324.83996 
L 630.473201 322.997134 
L 628.675614 321.318484 
L 624.526991 321.348647 
L 622.428538 321.645968 
L 620.384274 322.189536 
L 616.403601 323.680444 
L 614.991905 324.553435 
L 612.703983 325.291683 
L 610.440597 324.56889 
L 609.285417 324.594801 
L 607.513809 324.097113 
L 605.886009 324.126515 
L 602.878264 324.570863 
L 598.601318 326.238553 
L 598.110721 326.171709 
L 597.445613 326.194122 
L 594.828615 324.981337 
L 592.521536 323.043594 
L 590.358329 321.649656 
L 588.648522 320.004725 
L 587.964455 319.815513 
L 586.136557 318.787667 
L 584.813822 317.419913 
L 584.369542 316.486593 
L 584.058441 314.596542 
L 582.94479 313.081696 
L 581.957363 312.078672 
L 581.307279 311.746526 
L 580.673466 311.236814 
L 580.385196 310.102945 
L 580.013672 309.537279 
L 579.275415 309.116358 
L 577.919877 308.041631 
L 576.850837 307.871562 
L 576.267933 307.146139 
L 576.28276 306.754344 
L 575.508616 306.20779 
L 575.347096 305.656496 
L 574.930502 303.678826 
L 575.254986 302.532653 
L 574.207924 300.51753 
L 572.941084 299.594567 
L 574.05795 299.101783 
L 575.288051 297.27791 
L 575.891358 295.941353 
L 575.671449 294.536457 
L 576.380249 293.248736 
L 576.695614 290.78375 
L 576.414955 288.187428 
L 576.414955 288.187428 
" style="fill:none;stroke:#000000;"/>
    <path clip-path="url(#p513a80c879)" d="M 461.081875 309.836673 
L 462.541848 309.502786 
L 463.075055 309.592688 
L 462.973492 311.504758 
L 460.853357 311.786832 
L 460.396322 311.556048 
L 461.132657 310.850619 
L 461.081875 309.836673 
" style="fill:none;stroke:#000000;"/>
    <path clip-path="url(#p513a80c879)" d="M 223.113549 285.595042 
L 223.564541 285.824165 
L 223.976533 286.177798 
L 224.623618 287.102161 
L 224.562528 287.248274 
L 223.570508 287.810924 
L 222.758154 288.222265 
L 222.387295 288.662427 
L 221.756384 288.285667 
L 221.828976 287.549733 
L 221.408986 286.589921 
L 221.535407 286.296267 
L 221.976192 285.865712 
L 221.801021 285.346095 
L 221.948262 285.099538 
L 222.141309 285.148482 
L 223.113549 285.595042 
" style="fill:none;stroke:#000000;"/>
    <path clip-path="url(#p513a80c879)" d="M 221.606552 283.784456 
L 221.394285 284.102522 
L 220.54321 284.292009 
L 220.105776 283.734217 
L 219.813934 283.518745 
L 219.791387 283.353156 
L 220.040141 283.125805 
L 220.942709 283.377841 
L 221.606552 283.784456 
" style="fill:none;stroke:#000000;"/>
    <path clip-path="url(#p513a80c879)" d="M 219.670298 282.689728 
L 219.591358 282.976615 
L 218.230714 282.899566 
L 218.420993 282.576274 
L 219.670298 282.689728 
" style="fill:none;stroke:#000000;"/>
    <path clip-path="url(#p513a80c879)" d="M 216.453381 281.25444 
L 216.665623 281.425324 
L 217.39886 282.303863 
L 217.261241 282.457223 
L 217.079519 282.423049 
L 216.19574 282.329705 
L 215.872947 281.727207 
L 215.774303 281.621048 
L 216.453381 281.25444 
" style="fill:none;stroke:#000000;"/>
    <path clip-path="url(#p513a80c879)" d="M 213.049765 279.928131 
L 213.101994 280.548902 
L 212.800859 280.812564 
L 211.945721 280.326907 
L 212.077093 280.13271 
L 212.464481 279.871496 
L 213.049765 279.928131 
" style="fill:none;stroke:#000000;"/>
    <path clip-path="url(#p513a80c879)" d="M 419.1594 271.88515 
L 419.923334 271.994147 
L 420.812013 274.234077 
L 420.825572 275.794542 
L 420.202633 275.92813 
L 419.557579 274.379082 
L 418.60687 273.599101 
L 419.1594 271.88515 
" style="fill:none;stroke:#000000;"/>
    <path clip-path="url(#p513a80c879)" d="M 417.155733 267.594405 
L 418.349102 267.376142 
L 420.024897 267.458002 
L 420.10107 268.166893 
L 417.333469 268.602636 
L 417.155733 267.594405 
" style="fill:none;stroke:#000000;"/>
    <path clip-path="url(#p513a80c879)" d="M 420.177242 266.912012 
L 422.183118 268.139647 
L 421.744999 270.072734 
L 421.278163 269.724715 
L 421.31983 268.303104 
L 420.182269 267.225593 
L 420.177242 266.912012 
" style="fill:none;stroke:#000000;"/>
    <path clip-path="url(#p513a80c879)" d="M 455.153471 208.186848 
L 456.043064 209.740907 
L 457.884407 210.168425 
L 460.238696 210.081562 
L 458.989899 211.384113 
L 458.049372 211.590893 
L 454.82862 210.242368 
L 454.194332 209.174386 
L 455.153471 208.186848 
" style="fill:none;stroke:#000000;"/>
    <path clip-path="url(#p513a80c879)" d="M 453.873113 198.947135 
L 454.751382 198.668526 
L 458.090098 199.498081 
L 460.686832 200.875026 
L 460.761176 201.477579 
L 459.52496 201.536259 
L 456.234105 200.506151 
L 453.873113 198.947135 
" style="fill:none;stroke:#000000;"/>
    <path clip-path="url(#p513a80c879)" d="M 413.765054 155.100855 
L 414.745153 153.920863 
L 415.784577 154.007151 
L 416.430012 154.813863 
L 415.435453 156.869449 
L 414.313077 156.538133 
L 413.646339 155.371691 
L 413.765054 155.100855 
" style="fill:none;stroke:#000000;"/>
    <path clip-path="url(#p513a80c879)" d="M 404.425607 153.655772 
L 406.312628 151.828027 
L 409.800034 151.865851 
L 409.746053 152.635251 
L 406.774513 154.811722 
L 404.981793 154.72101 
L 404.425607 153.655772 
" style="fill:none;stroke:#000000;"/>
    <path clip-path="url(#p513a80c879)" d="M 426.712919 133.071384 
L 425.062743 134.342434 
L 422.216456 134.557431 
L 421.582879 132.449838 
L 422.661329 130.011427 
L 424.988272 129.404084 
L 426.97056 130.615159 
L 426.998921 132.476102 
L 426.712919 133.071384 
" style="fill:none;stroke:#000000;"/>
    <path clip-path="url(#p513a80c879)" d="M 372.525246 123.209015 
L 374.835082 125.775698 
L 373.256223 127.33362 
L 369.833818 125.988113 
L 367.765971 126.474564 
L 364.298616 124.468428 
L 366.532983 123.073627 
L 368.308199 121.108285 
L 371.001796 122.39557 
L 372.525246 123.209015 
" style="fill:none;stroke:#000000;"/>
    <path clip-path="url(#p513a80c879)" d="M 347.222806 107.324803 
L 350.066931 109.274079 
L 351.660485 113.909495 
L 352.447816 117.205063 
L 356.711903 119.489037 
L 361.293914 121.650553 
L 361.018372 123.639571 
L 356.849543 124.001503 
L 358.469143 125.722586 
L 357.613584 127.352383 
L 353.018487 126.655393 
L 348.651264 125.453082 
L 345.699449 125.724199 
L 340.932451 127.231964 
L 334.498035 127.895122 
L 329.980876 128.312146 
L 328.60531 126.222236 
L 325.139352 125.006118 
L 322.884783 125.505731 
L 319.756495 121.942489 
L 321.445663 121.458669 
L 325.364994 120.680724 
L 328.944424 120.885776 
L 332.258677 120.091131 
L 327.348376 119.019446 
L 321.922745 119.384929 
L 318.322388 119.292636 
L 316.982857 117.593093 
L 322.871662 115.734035 
L 318.954955 115.799396 
L 314.520949 114.566765 
L 316.652009 111.02143 
L 318.419877 109.113571 
L 325.217841 106.16351 
L 327.8126 107.104074 
L 326.54517 109.369382 
L 332.195433 107.909467 
L 335.726315 110.340126 
L 338.595632 107.881698 
L 340.915832 109.462781 
L 342.993292 114.133182 
L 344.268858 112.174638 
L 342.465038 107.259073 
L 344.699295 106.54678 
L 347.222806 107.324803 
" style="fill:none;stroke:#000000;"/>
    <path clip-path="url(#p513a80c879)" d="M 415.135046 108.646369 
L 412.34138 106.072769 
L 412.448564 104.307695 
L 413.669425 103.97986 
L 419.480421 104.510699 
L 423.858913 107.195257 
L 424.083866 108.533053 
L 421.384734 108.392262 
L 418.649551 108.290276 
L 415.870317 108.938992 
L 415.135046 108.646369 
" style="fill:none;stroke:#000000;"/>
    <path clip-path="url(#p513a80c879)" d="M 367.397315 89.546859 
L 367.592826 88.851625 
L 369.533739 91.293492 
L 369.612882 93.964086 
L 368.456114 97.773819 
L 364.26984 98.29397 
L 361.540525 97.482349 
L 361.593206 94.494424 
L 357.431201 94.89096 
L 357.270139 90.873906 
L 360.00162 91.037668 
L 363.826151 89.241721 
L 367.397315 89.546859 
" style="fill:none;stroke:#000000;"/>
    <path clip-path="url(#p513a80c879)" d="M 373.898808 67.16828 
L 375.658345 65.362749 
L 378.260976 64.946051 
L 377.151392 63.575592 
L 383.05627 63.269788 
L 386.298554 66.453083 
L 394.735627 68.825397 
L 396.741503 72.647207 
L 399.802766 74.492115 
L 396.316037 76.17683 
L 391.624333 80.373372 
L 387.132726 80.769984 
L 381.870912 80.06319 
L 379.142712 77.795706 
L 379.181879 75.756884 
L 381.18901 74.246391 
L 376.545657 74.289914 
L 373.747194 72.388874 
L 372.138485 69.77153 
L 373.898808 67.16828 
" style="fill:none;stroke:#000000;"/>
    <path clip-path="url(#p513a80c879)" d="M 385.145458 59.40544 
L 388.921126 58.23364 
L 391.88609 58.033197 
L 396.867848 57.030742 
L 400.600909 54.706815 
L 403.74936 55.034433 
L 406.491583 56.780176 
L 408.421286 53.399553 
L 411.772876 52.386744 
L 416.326367 51.683861 
L 424.08743 51.419389 
L 425.436242 52.107059 
L 432.767211 51.028836 
L 438.266269 51.433916 
L 443.765326 51.83817 
L 450.551408 52.335905 
L 456.003708 53.146835 
L 460.650231 54.855253 
L 460.538816 56.521464 
L 454.343148 59.200345 
L 448.200039 60.438255 
L 445.904377 61.798019 
L 451.432571 61.76678 
L 445.441121 65.406063 
L 441.303177 67.082715 
L 436.960583 71.842528 
L 431.722962 72.795437 
L 430.105058 73.961365 
L 422.417399 74.570686 
L 425.9175 75.282162 
L 424.162435 76.290903 
L 426.262282 79.051358 
L 423.849925 80.948333 
L 419.927117 82.50131 
L 418.723134 84.629162 
L 415.176492 86.239837 
L 415.531608 87.451053 
L 419.870292 87.244522 
L 419.925594 88.544227 
L 413.140807 91.703967 
L 406.505827 90.256532 
L 399.047397 91.071014 
L 395.268834 90.435601 
L 390.46824 90.159856 
L 390.149788 87.617633 
L 394.843817 86.40804 
L 393.593039 82.500818 
L 395.14188 82.116632 
L 401.930526 84.466052 
L 398.468079 80.964634 
L 394.349889 79.90561 
L 396.406394 77.752844 
L 400.908951 76.415779 
L 401.629365 74.443705 
L 398.043189 72.209398 
L 396.965475 69.225723 
L 403.905679 69.476958 
L 405.910905 70.107373 
L 409.873058 67.979391 
L 404.155626 67.299763 
L 395.2715 67.674788 
L 390.783214 65.669346 
L 388.667218 63.254114 
L 385.701924 61.484864 
L 385.145458 59.40544 
" style="fill:none;stroke:#000000;"/>
    <path clip-path="url(#p513a80c879)" d="M 498.955376 54.859264 
L 507.479967 51.080459 
L 516.389382 51.367591 
L 519.627704 49.000509 
L 528.60151 48.379277 
L 548.882209 49.19015 
L 564.764354 54.239486 
L 560.076114 56.645737 
L 550.362317 56.918867 
L 536.695777 57.523694 
L 537.974307 58.624328 
L 546.962155 57.945151 
L 554.610331 60.061849 
L 559.539199 58.183286 
L 561.650523 60.382052 
L 558.862965 63.89787 
L 565.327421 61.657465 
L 577.655813 59.294153 
L 585.267985 60.47738 
L 586.69401 63.064476 
L 576.342726 67.299527 
L 574.908982 68.64995 
L 566.793462 69.659141 
L 572.6737 69.938153 
L 569.703861 74.133195 
L 567.659924 77.794181 
L 567.739804 83.92471 
L 570.78843 87.438833 
L 566.821925 87.659164 
L 562.646631 89.33893 
L 567.332179 92.121981 
L 567.929143 96.508698 
L 565.214305 96.980891 
L 568.503357 101.32076 
L 562.863012 101.678928 
L 565.807536 103.696581 
L 564.975224 105.431309 
L 561.395447 106.188132 
L 557.856676 106.202381 
L 561.03769 109.482314 
L 561.072146 111.611005 
L 556.047807 109.633148 
L 554.741144 110.914699 
L 558.168907 112.104927 
L 561.495487 114.986854 
L 562.458434 118.726438 
L 557.932594 119.611797 
L 555.974986 117.83696 
L 552.835689 115.164961 
L 553.704208 118.318273 
L 550.755291 120.730251 
L 557.446639 120.923824 
L 560.946512 121.172321 
L 554.141134 125.10095 
L 547.239651 128.598829 
L 539.80943 130.114334 
L 537.008973 130.132916 
L 534.382545 131.811206 
L 530.850909 136.34644 
L 525.389645 139.307722 
L 523.635291 139.480697 
L 520.255086 140.508419 
L 516.605991 141.482072 
L 514.430581 144.039764 
L 514.395491 146.904574 
L 513.110994 149.556376 
L 508.970561 152.74808 
L 509.993101 155.824104 
L 507.551163 162.775616 
L 503.973341 163.007177 
L 500.225298 159.887159 
L 495.148909 159.867352 
L 492.685642 157.748981 
L 490.991287 153.929694 
L 486.591411 148.975525 
L 485.304375 146.337649 
L 484.957917 142.650824 
L 481.441109 138.800588 
L 482.355306 135.67876 
L 480.660467 134.170176 
L 483.170885 129.095158 
L 486.992307 127.455182 
L 487.995118 125.596767 
L 488.526268 122.082634 
L 484.243596 124.351203 
L 481.96256 124.989898 
L 478.846927 123.524546 
L 478.677697 120.443294 
L 479.67091 117.99951 
L 482.025974 117.932795 
L 487.208687 119.158378 
L 480.57132 114.620205 
L 478.042952 115.279141 
L 475.92363 114.116404 
L 478.758491 109.688988 
L 477.214347 107.893889 
L 472.143062 99.24004 
L 468.910402 97.272462 
L 468.939932 95.130444 
L 462.126428 92.099545 
L 456.735853 91.719231 
L 449.949848 91.929999 
L 443.754205 92.313212 
L 440.807675 90.647201 
L 436.395459 87.316486 
L 443.062737 85.630047 
L 448.173251 85.345446 
L 437.308615 83.939039 
L 431.585344 81.711175 
L 431.934772 79.568219 
L 441.547564 76.882725 
L 450.847592 74.165309 
L 451.829709 72.083462 
L 444.97652 70.007381 
L 447.189814 67.677434 
L 455.980222 63.530614 
L 459.674106 62.88658 
L 458.616019 60.162883 
L 464.630269 58.549956 
L 472.438078 57.580954 
L 480.240732 57.526044 
L 483.011227 59.44195 
L 489.746577 56.041164 
L 495.806734 58.358022 
L 499.371658 58.843133 
L 504.644928 60.831413 
L 498.60775 57.524993 
L 498.955376 54.859264 
L 498.955376 54.859264 
" style="fill:none;stroke:#000000;"/>
    <path clip-path="url(#p513a80c879)" d="M 347.026251 104.765982 
L 350.428622 104.56938 
L 352.358326 105.648448 
L 350.123932 108.853236 
L 346.162962 105.45266 
L 347.026251 104.765982 
" style="fill:none;stroke:#000000;"/>
   </g>
   <g id="line2d_1">
    <defs>
     <path d="M 0 3 
C 0.795609 3 1.55874 2.683901 2.12132 2.12132 
C 2.683901 1.55874 3 0.795609 3 0 
C 3 -0.795609 2.683901 -1.55874 2.12132 -2.12132 
C 1.55874 -2.683901 0.795609 -3 0 -3 
C -0.795609 -3 -1.55874 -2.683901 -2.12132 -2.12132 
C -2.683901 -1.55874 -3 -0.795609 -3 0 
C -3 0.795609 -2.683901 1.55874 -2.12132 2.12132 
C -1.55874 2.683901 -0.795609 3 0 3 
z
" id="m20475bc32c" style="stroke:#ff0000;"/>
    </defs>
    <g clip-path="url(#p513a80c879)">
     <use style="fill:#ff0000;stroke:#ff0000;" x="303.728024" xlink:href="#m20475bc32c" y="230.806988"/>
     <use style="fill:#ff0000;stroke:#ff0000;" x="449.985944" xlink:href="#m20475bc32c" y="290.011265"/>
     <use style="fill:#ff0000;stroke:#ff0000;" x="292.461349" xlink:href="#m20475bc32c" y="193.105002"/>
     <use style="fill:#ff0000;stroke:#ff0000;" x="400.725325" xlink:href="#m20475bc32c" y="222.46373"/>
     <use style="fill:#ff0000;stroke:#ff0000;" x="421.926119" xlink:href="#m20475bc32c" y="232.932437"/>
     <use style="fill:#ff0000;stroke:#ff0000;" x="303.78363" xlink:href="#m20475bc32c" y="230.743962"/>
     <use style="fill:#ff0000;stroke:#ff0000;" x="344.023526" xlink:href="#m20475bc32c" y="231.354132"/>
     <use style="fill:#ff0000;stroke:#ff0000;" x="303.785407" xlink:href="#m20475bc32c" y="230.7468"/>
     <use style="fill:#ff0000;stroke:#ff0000;" x="340.577741" xlink:href="#m20475bc32c" y="248.649755"/>
     <use style="fill:#ff0000;stroke:#ff0000;" x="369.547666" xlink:href="#m20475bc32c" y="257.680636"/>
     <use style="fill:#ff0000;stroke:#ff0000;" x="404.511352" xlink:href="#m20475bc32c" y="242.192441"/>
     <use style="fill:#ff0000;stroke:#ff0000;" x="404.61063" xlink:href="#m20475bc32c" y="241.856005"/>
     <use style="fill:#ff0000;stroke:#ff0000;" x="333.984757" xlink:href="#m20475bc32c" y="244.5582"/>
     <use style="fill:#ff0000;stroke:#ff0000;" x="431.528468" xlink:href="#m20475bc32c" y="327.510648"/>
     <use style="fill:#ff0000;stroke:#ff0000;" x="390.772542" xlink:href="#m20475bc32c" y="219.897322"/>
     <use style="fill:#ff0000;stroke:#ff0000;" x="431.825541" xlink:href="#m20475bc32c" y="326.489581"/>
     <use style="fill:#ff0000;stroke:#ff0000;" x="458.26984" xlink:href="#m20475bc32c" y="363.174545"/>
     <use style="fill:#ff0000;stroke:#ff0000;" x="616.747708" xlink:href="#m20475bc32c" y="192.481647"/>
     <use style="fill:#ff0000;stroke:#ff0000;" x="241.146475" xlink:href="#m20475bc32c" y="144.614662"/>
     <use style="fill:#ff0000;stroke:#ff0000;" x="311.37752" xlink:href="#m20475bc32c" y="233.301177"/>
     <use style="fill:#ff0000;stroke:#ff0000;" x="219.594575" xlink:href="#m20475bc32c" y="115.819458"/>
     <use style="fill:#ff0000;stroke:#ff0000;" x="372.226145" xlink:href="#m20475bc32c" y="226.469146"/>
     <use style="fill:#ff0000;stroke:#ff0000;" x="305.214025" xlink:href="#m20475bc32c" y="232.966004"/>
     <use style="fill:#ff0000;stroke:#ff0000;" x="220.046692" xlink:href="#m20475bc32c" y="115.781585"/>
     <use style="fill:#ff0000;stroke:#ff0000;" x="339.577342" xlink:href="#m20475bc32c" y="236.191623"/>
     <use style="fill:#ff0000;stroke:#ff0000;" x="493.17335" xlink:href="#m20475bc32c" y="343.830863"/>
     <use style="fill:#ff0000;stroke:#ff0000;" x="400.901283" xlink:href="#m20475bc32c" y="217.566285"/>
     <use style="fill:#ff0000;stroke:#ff0000;" x="404.50932" xlink:href="#m20475bc32c" y="242.192731"/>
     <use style="fill:#ff0000;stroke:#ff0000;" x="431.84433" xlink:href="#m20475bc32c" y="326.939501"/>
     <use style="fill:#ff0000;stroke:#ff0000;" x="333.557175" xlink:href="#m20475bc32c" y="226.545671"/>
     <use style="fill:#ff0000;stroke:#ff0000;" x="400.921342" xlink:href="#m20475bc32c" y="222.716556"/>
     <use style="fill:#ff0000;stroke:#ff0000;" x="220.075891" xlink:href="#m20475bc32c" y="115.852463"/>
     <use style="fill:#ff0000;stroke:#ff0000;" x="450.832611" xlink:href="#m20475bc32c" y="290.091302"/>
     <use style="fill:#ff0000;stroke:#ff0000;" x="376.098755" xlink:href="#m20475bc32c" y="255.661632"/>
     <use style="fill:#ff0000;stroke:#ff0000;" x="339.344762" xlink:href="#m20475bc32c" y="216.313564"/>
     <use style="fill:#ff0000;stroke:#ff0000;" x="219.593156" xlink:href="#m20475bc32c" y="115.820946"/>
     <use style="fill:#ff0000;stroke:#ff0000;" x="372.454663" xlink:href="#m20475bc32c" y="232.309328"/>
     <use style="fill:#ff0000;stroke:#ff0000;" x="434.437496" xlink:href="#m20475bc32c" y="222.240738"/>
     <use style="fill:#ff0000;stroke:#ff0000;" x="403.409633" xlink:href="#m20475bc32c" y="221.490471"/>
     <use style="fill:#ff0000;stroke:#ff0000;" x="333.9421" xlink:href="#m20475bc32c" y="226.62732"/>
     <use style="fill:#ff0000;stroke:#ff0000;" x="406.009157" xlink:href="#m20475bc32c" y="210.155271"/>
     <use style="fill:#ff0000;stroke:#ff0000;" x="390.104666" xlink:href="#m20475bc32c" y="217.242399"/>
     <use style="fill:#ff0000;stroke:#ff0000;" x="390.869167" xlink:href="#m20475bc32c" y="219.923898"/>
     <use style="fill:#ff0000;stroke:#ff0000;" x="303.755446" xlink:href="#m20475bc32c" y="230.774132"/>
     <use style="fill:#ff0000;stroke:#ff0000;" x="219.593102" xlink:href="#m20475bc32c" y="115.821016"/>
     <use style="fill:#ff0000;stroke:#ff0000;" x="414.962981" xlink:href="#m20475bc32c" y="314.070476"/>
     <use style="fill:#ff0000;stroke:#ff0000;" x="390.86564" xlink:href="#m20475bc32c" y="219.924756"/>
     <use style="fill:#ff0000;stroke:#ff0000;" x="416.977997" xlink:href="#m20475bc32c" y="242.031499"/>
     <use style="fill:#ff0000;stroke:#ff0000;" x="336.20163" xlink:href="#m20475bc32c" y="213.815263"/>
     <use style="fill:#ff0000;stroke:#ff0000;" x="219.593075" xlink:href="#m20475bc32c" y="115.82111"/>
     <use style="fill:#ff0000;stroke:#ff0000;" x="452.652118" xlink:href="#m20475bc32c" y="291.068183"/>
     <use style="fill:#ff0000;stroke:#ff0000;" x="400.854411" xlink:href="#m20475bc32c" y="222.681708"/>
     <use style="fill:#ff0000;stroke:#ff0000;" x="219.537926" xlink:href="#m20475bc32c" y="115.912503"/>
     <use style="fill:#ff0000;stroke:#ff0000;" x="219.592937" xlink:href="#m20475bc32c" y="115.82125"/>
     <use style="fill:#ff0000;stroke:#ff0000;" x="307.869114" xlink:href="#m20475bc32c" y="236.10311"/>
     <use style="fill:#ff0000;stroke:#ff0000;" x="372.454452" xlink:href="#m20475bc32c" y="232.309292"/>
     <use style="fill:#ff0000;stroke:#ff0000;" x="381.53592" xlink:href="#m20475bc32c" y="224.44856"/>
     <use style="fill:#ff0000;stroke:#ff0000;" x="400.857321" xlink:href="#m20475bc32c" y="222.683006"/>
     <use style="fill:#ff0000;stroke:#ff0000;" x="372.396116" xlink:href="#m20475bc32c" y="232.645232"/>
     <use style="fill:#ff0000;stroke:#ff0000;" x="336.943551" xlink:href="#m20475bc32c" y="212.643318"/>
     <use style="fill:#ff0000;stroke:#ff0000;" x="430.511311" xlink:href="#m20475bc32c" y="212.945166"/>
     <use style="fill:#ff0000;stroke:#ff0000;" x="390.749266" xlink:href="#m20475bc32c" y="201.559774"/>
     <use style="fill:#ff0000;stroke:#ff0000;" x="304.177188" xlink:href="#m20475bc32c" y="231.25709"/>
     <use style="fill:#ff0000;stroke:#ff0000;" x="344.030132" xlink:href="#m20475bc32c" y="231.368332"/>
     <use style="fill:#ff0000;stroke:#ff0000;" x="610.532321" xlink:href="#m20475bc32c" y="177.772918"/>
     <use style="fill:#ff0000;stroke:#ff0000;" x="339.559568" xlink:href="#m20475bc32c" y="235.824049"/>
     <use style="fill:#ff0000;stroke:#ff0000;" x="372.903065" xlink:href="#m20475bc32c" y="226.475801"/>
     <use style="fill:#ff0000;stroke:#ff0000;" x="339.173008" xlink:href="#m20475bc32c" y="233.790215"/>
     <use style="fill:#ff0000;stroke:#ff0000;" x="220.046692" xlink:href="#m20475bc32c" y="115.777385"/>
     <use style="fill:#ff0000;stroke:#ff0000;" x="303.727943" xlink:href="#m20475bc32c" y="230.806761"/>
     <use style="fill:#ff0000;stroke:#ff0000;" x="666.062074" xlink:href="#m20475bc32c" y="129.128494"/>
     <use style="fill:#ff0000;stroke:#ff0000;" x="339.620252" xlink:href="#m20475bc32c" y="235.956231"/>
     <use style="fill:#ff0000;stroke:#ff0000;" x="372.403373" xlink:href="#m20475bc32c" y="232.633621"/>
     <use style="fill:#ff0000;stroke:#ff0000;" x="372.430369" xlink:href="#m20475bc32c" y="232.316269"/>
    </g>
   </g>
   <g id="patch_3">
    <path d="M 197.211718 378 
L 197.211718 51.84 
L 688.388282 51.84 
L 688.388282 378 
L 197.211718 378 
" style="fill:none;stroke:#000000;stroke-linejoin:miter;"/>
   </g>
  </g>
 </g>
 <defs>
  <clipPath id="p513a80c879">
   <rect height="326.16" width="491.176564" x="197.211718" y="51.84"/>
  </clipPath>
 </defs>
</svg>
